<svg width="40" height="40" viewBox="0 0 40 40" fill="none" xmlns="http://www.w3.org/2000/svg">
<path fill-rule="evenodd" clip-rule="evenodd" d="M40 20C40 31.0457 31.0457 40 20 40C8.95431 40 0 31.0457 0 20C0 8.95431 8.95431 0 20 0C31.0457 0 40 8.95431 40 20ZM21.2073 28.0879H25.5333C25.82 28.0879 26.1039 28.1448 26.3684 28.2555C26.6329 28.3661 26.8727 28.5283 27.074 28.7325C27.2753 28.9367 27.4339 29.1788 27.5408 29.4449C27.6476 29.7109 27.7005 29.9956 27.6963 30.2823C27.6963 30.3769 27.6777 30.4707 27.6415 30.5582C27.6052 30.6457 27.5521 30.7251 27.4852 30.7921C27.4182 30.859 27.3387 30.9121 27.2513 30.9484C27.1638 30.9846 27.07 31.0033 26.9753 31.0033H12.5553C12.364 31.0033 12.1807 30.9273 12.0454 30.7921C11.9102 30.6569 11.8343 30.4735 11.8343 30.2823C11.8301 29.9956 11.883 29.7109 11.9898 29.4449C12.0967 29.1788 12.2553 28.9367 12.4566 28.7325C12.6579 28.5283 12.8977 28.3661 13.1622 28.2555C13.4267 28.1448 13.7106 28.0879 13.9973 28.0879H18.3233V17.2571C18.3233 17.0659 18.3993 16.8825 18.5345 16.7473C18.6697 16.6121 18.8531 16.5361 19.0443 16.5361V15.0941H13.1352L15.7998 19.4201H14.107L11.8343 15.7367L9.49884 19.4201H7.8374L10.5333 15.0941H9.62424C9.43301 15.0941 9.24962 15.0182 9.11441 14.8829C8.9792 14.7477 8.90323 14.5643 8.90323 14.3731C8.90323 13.7994 9.13112 13.2493 9.53676 12.8436C9.94241 12.438 10.4926 12.2101 11.0662 12.2101H19.0443V10.6427C18.5632 10.4726 18.1578 10.1379 17.8996 9.69782C17.6414 9.25771 17.5472 8.7405 17.6334 8.2376C17.7197 7.7347 17.981 7.2785 18.3711 6.94962C18.7612 6.62074 19.2551 6.44035 19.7653 6.44035C20.2756 6.44035 20.7694 6.62074 21.1595 6.94962C21.5496 7.2785 21.8109 7.7347 21.8972 8.2376C21.9834 8.7405 21.8892 9.25771 21.631 9.69782C21.3728 10.1379 20.9674 10.4726 20.4863 10.6427V12.2101H28.4644C29.038 12.2101 29.5882 12.438 29.9938 12.8436C30.3995 13.2493 30.6274 13.7994 30.6274 14.3731C30.6274 14.5643 30.5514 14.7477 30.4162 14.8829C30.281 15.0182 30.0976 15.0941 29.9064 15.0941H29.0913L31.7559 19.4201H30.0631L27.7904 15.7367L25.455 19.4201H23.7465L26.4894 15.0941H20.4863V16.5361C20.581 16.5361 20.6747 16.5548 20.7622 16.591C20.8497 16.6272 20.9292 16.6803 20.9961 16.7473C21.0631 16.8143 21.1162 16.8937 21.1524 16.9812C21.1887 17.0687 21.2073 17.1624 21.2073 17.2571V28.0879ZM19.3647 9.15753C19.4833 9.23676 19.6227 9.27904 19.7653 9.27904C19.86 9.27904 19.9537 9.26039 20.0412 9.22416C20.1287 9.18793 20.2082 9.13482 20.2751 9.06786C20.3421 9.00091 20.3952 8.92143 20.4314 8.83395C20.4677 8.74648 20.4863 8.65272 20.4863 8.55804C20.4863 8.41543 20.444 8.27604 20.3648 8.15747C20.2856 8.0389 20.173 7.94648 20.0412 7.89191C19.9095 7.83734 19.7645 7.82306 19.6246 7.85088C19.4848 7.8787 19.3563 7.94737 19.2555 8.04821C19.1546 8.14904 19.086 8.27751 19.0582 8.41737C19.0303 8.55724 19.0446 8.70221 19.0992 8.83395C19.1538 8.9657 19.2462 9.07831 19.3647 9.15753ZM24.685 23.921C23.8737 23.1097 23.418 22.0093 23.418 20.862H32.07C32.07 22.0093 31.6142 23.1097 30.8029 23.921C29.9917 24.7323 28.8913 25.1881 27.744 25.1881C26.5967 25.1881 25.4963 24.7323 24.685 23.921ZM16.113 20.862H7.46094C7.46094 22.0093 7.91671 23.1097 8.728 23.921C9.53928 24.7323 10.6396 25.1881 11.787 25.1881C12.9343 25.1881 14.0346 24.7323 14.8459 23.921C15.6572 23.1097 16.113 22.0093 16.113 20.862Z" fill="url(#paint0_linear)"/>
<defs>
<linearGradient id="paint0_linear" x1="20" y1="0" x2="20" y2="40" gradientUnits="userSpaceOnUse">
<stop stop-color="#F5871F"/>
<stop offset="1" stop-color="#F06D22"/>
</linearGradient>
</defs>
</svg>
