<svg width="40" height="40" viewBox="0 0 40 40" fill="none" xmlns="http://www.w3.org/2000/svg">
<path fill-rule="evenodd" clip-rule="evenodd" d="M40 20C40 31.0457 31.0457 40 20 40C8.9543 40 0 31.0457 0 20C0 8.95431 8.9543 0 20 0C31.0457 0 40 8.95431 40 20ZM35.1248 22.4139V13.7305L30.642 14.6866C30.4442 14.735 30.2384 14.7404 30.0383 14.7025C29.8383 14.6647 29.6486 14.5844 29.4822 14.4672L26.5668 11.9907C25.3129 10.9249 24.6546 10.9719 23.7455 11.4578C22.2564 12.1788 18.6514 14.2791 16.943 15.3136C16.6339 15.4455 16.3693 15.6633 16.1803 15.9411C15.9914 16.2189 15.8862 16.5451 15.8771 16.881C15.9011 17.1712 15.9982 17.4506 16.1593 17.6932C16.3204 17.9357 16.5403 18.1335 16.7985 18.2681C17.0568 18.4027 17.3449 18.4697 17.636 18.4629C17.9271 18.456 18.2117 18.3755 18.4633 18.229C19.2 17.8528 21.0025 16.928 22.2094 16.2854C22.5301 16.0743 22.9098 15.9711 23.2932 15.9908C23.6767 16.0105 24.0438 16.1522 24.3411 16.3951C24.3411 16.3951 29.0903 21.1286 30.4383 22.4139C30.7823 22.6749 31.1846 22.8483 31.6106 22.9193C32.0365 22.9903 32.4733 22.9567 32.8834 22.8214C33.2596 22.7744 35.1248 22.4139 35.1248 22.4139ZM16.2461 27.6099C16.2943 27.8921 16.2643 28.182 16.1593 28.4484C16.4396 28.3094 16.7551 28.2576 17.0652 28.2995C17.3752 28.3414 17.6657 28.4751 17.8991 28.6835C18.0471 28.8508 18.1605 29.0458 18.2327 29.2572C18.305 29.4686 18.3347 29.6922 18.3201 29.9152C18.3055 30.1381 18.247 30.3559 18.1478 30.5561C18.0487 30.7563 17.9109 30.9349 17.7423 31.0816C17.0213 31.7712 15.5637 32.1004 14.9367 31.3794C14.4161 30.7807 14.6628 30.2469 14.8961 29.742C14.9437 29.6389 14.9909 29.5369 15.0307 29.4358C14.9932 29.448 14.9546 29.4608 14.9149 29.474C14.3404 29.6643 13.5502 29.9262 12.9931 29.3104C12.5196 28.787 12.7 28.3231 12.8726 27.8792C12.917 27.7648 12.961 27.6517 12.9931 27.5393C12.8868 27.5629 12.7744 27.5976 12.6579 27.6336C12.1558 27.7888 11.577 27.9677 11.0809 27.3825C10.6012 26.8167 10.7779 26.3861 10.9519 25.9618C10.9996 25.8454 11.0472 25.7295 11.0809 25.6114C10.9739 25.6352 10.8612 25.6702 10.7446 25.7065C10.2465 25.8615 9.6767 26.0389 9.16868 25.4546C8.54172 24.7336 8.99626 23.4954 9.70159 22.8214C10.0239 22.5055 10.4572 22.3286 10.9085 22.3286C11.3598 22.3286 11.7931 22.5055 12.1154 22.8214C12.3061 23.0289 12.4373 23.2841 12.4953 23.5599C12.5532 23.8357 12.5357 24.1221 12.4445 24.3888C12.7168 24.3057 13.0065 24.2982 13.2826 24.3672C13.5588 24.4363 13.8109 24.5792 14.0119 24.7807C14.2027 24.9882 14.3339 25.2433 14.3918 25.5191C14.4497 25.795 14.4322 26.0813 14.3411 26.3481C14.6197 26.2823 14.911 26.2941 15.1834 26.3822C15.4557 26.4703 15.6988 26.6313 15.8861 26.8477C16.0735 27.0641 16.198 27.3277 16.2461 27.6099ZM23.6514 18.4327L29.1373 23.9343H29.106C29.3429 24.1712 29.476 24.4926 29.476 24.8277C29.476 25.1628 29.3429 25.4841 29.106 25.7211C28.869 25.958 28.5477 26.0912 28.2126 26.0912C27.8775 26.0912 27.5561 25.958 27.3191 25.7211C27.316 25.7211 27.2298 25.638 27.0929 25.506C26.5387 24.9717 25.1532 23.6362 25.0778 23.7619C24.9837 23.9186 27.0997 26.1129 27.0997 26.1129C27.3283 26.3499 27.4535 26.668 27.4476 26.9972C27.4417 27.3264 27.3053 27.6398 27.0684 27.8684C26.8314 28.0971 26.5133 28.2222 26.1841 28.2163C25.8549 28.2104 25.5415 28.074 25.3129 27.8371C24.4132 26.9476 23.4318 26.1447 22.3818 25.439C22.2094 25.6114 24.4195 27.5863 24.4195 27.5863L24.5762 27.743C24.8131 27.98 24.9463 28.3013 24.9463 28.6364C24.9463 28.9715 24.8131 29.2929 24.5762 29.5299C24.3393 29.7668 24.0179 29.8999 23.6828 29.8999C23.3477 29.8999 23.0263 29.7668 22.7894 29.5299C22.7856 29.5261 22.7681 29.5076 22.7391 29.4769C22.407 29.1256 20.5629 27.1744 20.3756 27.3042C20.1718 27.4452 21.943 29.2947 21.943 29.2947C22.0985 29.3952 22.2298 29.5289 22.3276 29.6861C22.4253 29.8434 22.487 30.0203 22.5082 30.2042C22.5295 30.3881 22.5097 30.5745 22.4504 30.7499C22.391 30.9252 22.2936 31.0853 22.1651 31.2186C22.0365 31.3518 21.8801 31.455 21.707 31.5206C21.5338 31.5862 21.3483 31.6126 21.1637 31.598C20.9792 31.5834 20.8001 31.5282 20.6395 31.4361C20.4788 31.3441 20.3405 31.2177 20.2345 31.0659C19.9837 30.7995 19.5762 30.3449 19.5762 30.3449C19.6575 29.8972 19.6318 29.4366 19.501 29.0007C19.3703 28.5648 19.1382 28.1661 18.8238 27.8371C18.4866 27.4902 18.0655 27.2365 17.6013 27.1004C17.4937 26.6216 17.2617 26.1796 16.9287 25.8191C16.5957 25.4586 16.1735 25.1923 15.7047 25.0471C15.5829 24.592 15.3453 24.1762 15.0151 23.8402C14.6902 23.5048 14.2858 23.2568 13.8395 23.1192C13.7196 22.6588 13.4819 22.2375 13.1499 21.8966C12.5661 21.3363 11.7882 21.0234 10.979 21.0234C10.1698 21.0234 9.39195 21.3363 8.80818 21.8966C8.44664 22.2519 8.17294 22.6867 8.0088 23.1662C7.25645 22.8684 6.44141 22.6333 6.44141 22.6333V12.6961L9.29407 13.6835C9.68686 13.8759 10.1184 13.9759 10.5558 13.9759C10.9932 13.9759 11.4248 13.8759 11.8176 13.6835C11.8176 13.6835 15.4853 11.2854 17.2408 11.2854C17.7044 11.271 18.1659 11.3542 18.5952 11.5297C19.0246 11.7052 19.4122 11.9691 19.7329 12.3042C19.7329 12.3042 17.0997 13.7149 15.9555 14.4985C15.4128 14.8237 14.9937 15.3201 14.7639 15.9096C14.5342 16.499 14.5069 17.1481 14.6864 17.7548C14.8659 18.3614 15.242 18.8912 15.7554 19.2608C16.2689 19.6304 16.8907 19.8188 17.5229 19.7963C18.1215 19.7336 18.6992 19.541 19.2157 19.2321L21.7235 18.0879C22.0439 17.9534 22.3964 17.9144 22.7384 17.9756C23.0804 18.0368 23.3975 18.1955 23.6514 18.4327Z" fill="url(#paint0_linear)"/>
<defs>
<linearGradient id="paint0_linear" x1="20" y1="0" x2="20" y2="40" gradientUnits="userSpaceOnUse">
<stop stop-color="#F5871F"/>
<stop offset="1" stop-color="#F06D22"/>
</linearGradient>
</defs>
</svg>
