<svg width="40" height="40" viewBox="0 0 40 40" fill="none" xmlns="http://www.w3.org/2000/svg">
<path fill-rule="evenodd" clip-rule="evenodd" d="M40 20C40 31.0457 31.0457 40 20 40C8.95431 40 0 31.0457 0 20C0 8.9543 8.95431 0 20 0C31.0457 0 40 8.9543 40 20ZM20.3765 6.22253C19.9704 6.19293 19.5625 6.24734 19.1784 6.38241C18.7943 6.51748 18.4422 6.73029 18.144 7.00753C17.8458 7.28478 17.6079 7.62051 17.4453 7.99379C17.2827 8.36706 17.1987 8.76986 17.1987 9.17702C17.1987 9.58418 17.2827 9.98697 17.4453 10.3602C17.6079 10.7335 17.8458 11.0693 18.144 11.3465C18.4422 11.6237 18.7943 11.8365 19.1784 11.9716C19.5625 12.1067 19.9704 12.1611 20.3765 12.1315C21.1229 12.0771 21.821 11.7422 22.3306 11.1941C22.8402 10.646 23.1235 9.9254 23.1235 9.17702C23.1235 8.42863 22.8402 7.70798 22.3306 7.1599C21.821 6.61182 21.1229 6.27693 20.3765 6.22253ZM23.6684 12.1316C23.2629 12.588 22.7658 12.9536 22.2094 13.2048C21.653 13.456 21.05 13.587 20.4396 13.5894C19.8221 13.5878 19.2119 13.4573 18.6478 13.2063C18.0837 12.9553 17.5782 12.5892 17.1637 12.1316C16.4409 12.9248 16.0387 13.9583 16.0352 15.0314V15.7524C16.0352 15.9437 16.1111 16.1271 16.2463 16.2623C16.3815 16.3975 16.5649 16.4735 16.7562 16.4735H24.0759C24.2671 16.4735 24.4505 16.3975 24.5857 16.2623C24.721 16.1271 24.7969 15.9437 24.7969 15.7524V15.0314C24.7934 13.9583 24.3912 12.9248 23.6684 12.1316ZM10.6424 21.0971L14.3414 28.5267C14.5101 28.872 14.5355 29.2699 14.4122 29.6339C14.2889 29.9979 14.0269 30.2985 13.6831 30.4702L12.727 30.9404C12.6417 30.9833 12.5488 31.0087 12.4536 31.0153C12.3583 31.0219 12.2628 31.0095 12.1724 30.9789C12.082 30.9483 11.9985 30.9 11.9269 30.8369C11.8553 30.7738 11.797 30.6971 11.7552 30.6113L7.39787 21.8965C7.35506 21.8112 7.32962 21.7183 7.32302 21.623C7.31641 21.5278 7.32878 21.4323 7.3594 21.3419C7.39002 21.2515 7.43828 21.168 7.50139 21.0964C7.56449 21.0248 7.64119 20.9665 7.72702 20.9247L8.69881 20.4388C9.04414 20.2702 9.44208 20.2448 9.80606 20.3681C10.17 20.4914 10.4706 20.7534 10.6424 21.0971ZM31.5211 18.2131C31.235 18.004 30.8818 17.9076 30.5291 17.9423C30.1764 17.9769 29.8488 18.1403 29.6089 18.4012L25.6277 23.3542C25.3322 23.631 24.9501 23.7971 24.5462 23.8244H21.1763C20.983 23.8244 20.7976 23.7476 20.6609 23.6109C20.5242 23.4743 20.4474 23.2889 20.4474 23.0956C20.4474 22.9023 20.5242 22.7169 20.6609 22.5802C20.7976 22.4435 20.983 22.3667 21.1763 22.3667H24.076C24.4345 22.3294 24.7665 22.1606 25.0078 21.8928C25.2491 21.625 25.3827 21.2774 25.3827 20.9169C25.3827 20.5564 25.2491 20.2087 25.0078 19.941C24.7665 19.6732 24.4345 19.5044 24.076 19.467H20.2672C19.962 19.467 19.7803 19.2985 19.5606 19.0946C19.5208 19.0577 19.4797 19.0196 19.4365 18.9811C18.8262 18.4512 18.098 18.0751 17.3127 17.8842C16.5273 17.6933 15.7077 17.6932 14.9223 17.8839C14.1026 18.0729 13.3397 18.4544 12.6966 18.9968L11.6465 19.9216L15.7531 28.0564H24.076C24.7535 28.057 25.422 27.9002 26.0285 27.5982C26.6351 27.2963 27.1633 26.8576 27.5713 26.3166L31.8346 20.2194C32.0535 19.9099 32.1432 19.5272 32.0846 19.1527C32.0261 18.7781 31.824 18.4411 31.5211 18.2131Z" fill="url(#paint0_linear)"/>
<defs>
<linearGradient id="paint0_linear" x1="20" y1="0" x2="20" y2="40" gradientUnits="userSpaceOnUse">
<stop stop-color="#F5871F"/>
<stop offset="1" stop-color="#F06D22"/>
</linearGradient>
</defs>
</svg>
