<svg width="40" height="40" viewBox="0 0 40 40" fill="none" xmlns="http://www.w3.org/2000/svg">
<path fill-rule="evenodd" clip-rule="evenodd" d="M40 20C40 31.0457 31.0457 40 20 40C8.95431 40 0 31.0457 0 20C0 8.9543 8.95431 0 20 0C31.0457 0 40 8.9543 40 20ZM12.3669 14.2007C13.6047 14.2007 14.6082 13.1972 14.6082 11.9592C14.6082 10.7213 13.6047 9.71774 12.3669 9.71774C11.129 9.71774 10.1255 10.7213 10.1255 11.9592C10.1255 13.1972 11.129 14.2007 12.3669 14.2007ZM9.85879 22.0689H10.0782V26.489C10.0782 26.7842 10.1955 27.0672 10.4042 27.2759C10.6129 27.4846 10.8959 27.6019 11.1911 27.6019H13.5422C13.8373 27.6019 14.1204 27.4846 14.3291 27.2759C14.5378 27.0672 14.655 26.7842 14.655 26.489V26.2226C14.4417 25.8219 14.3287 25.3755 14.3259 24.9216V19.0909C14.3276 18.5503 14.4873 18.022 14.7852 17.5709C15.0832 17.1197 15.5064 16.7655 16.003 16.5517V16.1129C16.003 15.9667 15.9742 15.822 15.9183 15.687C15.8624 15.552 15.7804 15.4293 15.677 15.3259C15.5737 15.2226 15.451 15.1406 15.316 15.0847C15.181 15.0288 15.0363 15 14.8901 15H9.85879C9.71265 15 9.56794 15.0288 9.43292 15.0847C9.29791 15.1406 9.17523 15.2226 9.07189 15.3259C8.96855 15.4293 8.88658 15.552 8.83065 15.687C8.77473 15.822 8.74594 15.9667 8.74594 16.1129V20.9091C8.7373 21.0597 8.75981 21.2104 8.81206 21.352C8.86431 21.4935 8.94518 21.6227 9.04961 21.7315C9.15405 21.8404 9.27981 21.9265 9.41904 21.9846C9.55826 22.0426 9.70797 22.0714 9.85879 22.0689ZM30.1566 11.9592C30.1566 13.1972 29.1531 14.2007 27.9152 14.2007C26.6773 14.2007 25.6738 13.1972 25.6738 11.9592C25.6738 10.7213 26.6773 9.71774 27.9152 9.71774C29.1531 9.71774 30.1566 10.7213 30.1566 11.9592ZM24.2793 16.1284V16.5673C24.7729 16.7835 25.1929 17.1387 25.4879 17.5896C25.783 18.0406 25.9403 18.5676 25.9407 19.1065V24.9216C25.9467 25.3766 25.8332 25.8252 25.6116 26.2226V26.489C25.6116 26.7842 25.7288 27.0672 25.9375 27.2759C26.1462 27.4846 26.4293 27.6019 26.7244 27.6019H29.0599C29.206 27.6019 29.3507 27.5731 29.4857 27.5172C29.6208 27.4613 29.7434 27.3793 29.8468 27.2759C29.9501 27.1726 30.0321 27.0499 30.088 26.9149C30.1439 26.7799 30.1727 26.6352 30.1727 26.489V22.0376H30.3922C30.5383 22.0376 30.683 22.0088 30.818 21.9529C30.953 21.8969 31.0757 21.815 31.1791 21.7116C31.2824 21.6083 31.3644 21.4856 31.4203 21.3506C31.4762 21.2156 31.505 21.0708 31.505 20.9247V16.1441C31.505 15.998 31.4762 15.8533 31.4203 15.7182C31.3644 15.5832 31.2824 15.4605 31.1791 15.3572C31.0757 15.2538 30.953 15.1719 30.818 15.116C30.683 15.06 30.5383 15.0312 30.3922 15.0312H25.3922C25.0997 15.0312 24.819 15.1463 24.6107 15.3516C24.4025 15.557 24.2834 15.836 24.2793 16.1284ZM16.003 24.9217V19.138C15.9965 18.9887 16.0207 18.8396 16.0739 18.7C16.1272 18.5603 16.2084 18.433 16.3126 18.3259C16.4168 18.2188 16.5418 18.134 16.6799 18.0769C16.8181 18.0198 16.9664 17.9915 17.1158 17.9938H23.1817C23.4768 17.9938 23.7599 18.111 23.9686 18.3198C24.1773 18.5285 24.2945 18.8115 24.2945 19.1067V24.9061C24.2945 25.2012 24.1773 25.4843 23.9686 25.693C23.7599 25.9017 23.4768 26.0189 23.1817 26.0189H22.7585V31.2854C22.7585 31.5805 22.6412 31.8636 22.4325 32.0723C22.2238 32.281 21.9408 32.3982 21.6456 32.3982H18.6519C18.3567 32.3982 18.0737 32.281 17.865 32.0723C17.6563 31.8636 17.539 31.5805 17.539 31.2854V26.0346H17.1158C16.9697 26.0346 16.825 26.0058 16.6899 25.9499C16.5549 25.894 16.4323 25.812 16.3289 25.7086C16.2256 25.6053 16.1436 25.4826 16.0877 25.3476C16.0318 25.2126 16.003 25.0679 16.003 24.9217ZM20.1408 17.0837C21.5605 17.0837 22.7114 15.9328 22.7114 14.5132C22.7114 13.0936 21.5605 11.9427 20.1408 11.9427C18.7212 11.9427 17.5703 13.0936 17.5703 14.5132C17.5703 15.9328 18.7212 17.0837 20.1408 17.0837Z" fill="url(#paint0_linear)"/>
<defs>
<linearGradient id="paint0_linear" x1="20" y1="0" x2="20" y2="40" gradientUnits="userSpaceOnUse">
<stop stop-color="#F5871F"/>
<stop offset="1" stop-color="#F06D22"/>
</linearGradient>
</defs>
</svg>
