<svg width="40" height="40" viewBox="0 0 40 40" fill="none" xmlns="http://www.w3.org/2000/svg">
<path fill-rule="evenodd" clip-rule="evenodd" d="M40 20C40 31.0457 31.0457 40 20 40C8.9543 40 0 31.0457 0 20C0 8.95431 8.9543 0 20 0C31.0457 0 40 8.95431 40 20ZM28.3392 10.5173V25.6897H23.2451V10.5173C23.2451 10.3012 23.331 10.0938 23.4838 9.94097C23.6367 9.78812 23.844 9.70224 24.0602 9.70224H27.5241C27.7403 9.70224 27.9476 9.78812 28.1004 9.94097C28.2533 10.0938 28.3392 10.3012 28.3392 10.5173ZM16.2539 25.6585H21.3323V14.8747C21.3323 14.6585 21.2464 14.4512 21.0936 14.2983C20.9407 14.1455 20.7334 14.0596 20.5172 14.0596H17.069C16.8528 14.0596 16.6455 14.1455 16.4926 14.2983C16.3398 14.4512 16.2539 14.6585 16.2539 14.8747V25.6585ZM9.2168 25.6585H14.3108V20.8622C14.3108 20.646 14.225 20.4387 14.0721 20.2858C13.9193 20.133 13.712 20.0471 13.4958 20.0471H10.0318C9.81568 20.0471 9.60837 20.133 9.45552 20.2858C9.30267 20.4387 9.2168 20.646 9.2168 20.8622V25.6585ZM9.2168 27.2728V28.0402C9.2168 28.2562 9.30267 28.4634 9.45552 28.6161C9.60837 28.7688 9.81568 28.8546 10.0318 28.8546H27.524C27.7402 28.8546 27.9475 28.7688 28.1003 28.6161C28.2532 28.4634 28.339 28.2562 28.339 28.0402V27.2728H9.2168Z" fill="url(#paint0_linear)"/>
<defs>
<linearGradient id="paint0_linear" x1="20" y1="0" x2="20" y2="40" gradientUnits="userSpaceOnUse">
<stop stop-color="#F5871F"/>
<stop offset="1" stop-color="#F06D22"/>
</linearGradient>
</defs>
</svg>
