<svg width="168" height="224" viewBox="0 0 168 224" fill="none" xmlns="http://www.w3.org/2000/svg">
<path d="M16.1617 2.75371L13.1131 5.04017C12.7514 5.31147 12.6167 5.79174 12.7846 6.21156L15.3912 12.728C15.4622 12.9056 15.5827 13.0591 15.7384 13.1703L18.8644 15.4031C18.9542 15.4673 19.0327 15.5458 19.0969 15.6356L23.8486 22.2881C23.9479 22.427 24.0099 22.5891 24.0288 22.7589L24.4639 26.6754C24.4874 26.8863 24.5773 27.0843 24.7207 27.2407L29.7372 32.7133C29.9062 32.8977 30 33.1388 30 33.389V35.0858C30 35.351 29.8946 35.6054 29.7071 35.7929L28.1669 37.3331C28.0571 37.4428 27.9744 37.5767 27.9253 37.724L27.0513 40.3461C27.0173 40.448 27 40.5548 27 40.6623V45.3377C27 45.4452 26.9827 45.552 26.9487 45.6539L26.5619 46.8142C26.521 46.9369 26.4567 47.0505 26.3725 47.1487L23.6463 50.3293C23.55 50.4417 23.4798 50.5741 23.4408 50.7169L22.0408 55.8502C22.0138 55.9495 21.9715 56.044 21.9157 56.1303L16.7955 64.0433C16.6113 64.328 16.2952 64.5 15.956 64.5H9.26195C9.09021 64.5 8.92137 64.5442 8.77169 64.6284L1.30728 68.8272C1.10842 68.939 0.953799 69.1155 0.869064 69.3273L0.136043 71.1599C0.0482017 71.3795 0.0410423 71.6231 0.115837 71.8475L0.300706 72.4021C0.422485 72.7675 0.743229 73.0304 1.12535 73.0782L3.62403 73.3905C4.12446 73.4531 4.5 73.8785 4.5 74.3828V76.4289C4.5 76.4762 4.50336 76.5235 4.51005 76.5704L4.9126 79.3882C4.96616 79.7631 5.22698 80.0757 5.58632 80.1954L6.21276 80.4043C6.40006 80.4667 6.60164 80.4723 6.79211 80.4203L11.0873 79.2489C11.5994 79.1093 12.1313 79.3939 12.2991 79.8974L13 82L13.3419 83.0257C13.4414 83.3243 13.6757 83.5586 13.9743 83.6581L14.8959 83.9653C14.9651 83.9884 15.0316 84.0189 15.0941 84.0565L17.0145 85.2087C17.3157 85.3894 17.5 85.7149 17.5 86.0662V86.6379C17.5 86.8719 17.418 87.0984 17.2682 87.2781L16.4119 88.3057C16.3057 88.4332 16.1693 88.5323 16.0151 88.594L15.1906 88.9238C15.0648 88.9741 14.9506 89.0494 14.8549 89.1451L14.087 89.9129C14.0292 89.9708 13.9787 90.0355 13.9367 90.1056L12.6733 92.2111C12.5609 92.3985 12.3901 92.5439 12.1872 92.6251L10 93.5L7.47434 94.3419C7.17574 94.4414 6.94142 94.6757 6.84189 94.9743L6.63099 95.607C6.54712 95.8587 6.56663 96.1333 6.68524 96.3705L7.38124 97.7625C7.45906 97.9181 7.57616 98.0508 7.72096 98.1473L9 99L10.3852 99.9235C10.4614 99.9743 10.5302 100.035 10.5898 100.105L10.7214 100.258C11.0294 100.618 11.0433 101.144 10.7548 101.519L10.06 102.422C10.0201 102.474 9.97518 102.522 9.92591 102.565L8.09991 104.163C8.03359 104.221 7.97524 104.287 7.92636 104.36L7.74538 104.632C7.5891 104.866 7.53896 105.156 7.60729 105.429L7.88845 106.554C7.95925 106.837 8.15027 107.075 8.41138 107.206L9.91935 107.96C9.97301 107.987 10.0241 108.018 10.0721 108.054L11.6 109.2C11.8518 109.389 12 109.685 12 110V110.951C12 111.293 12.1747 111.611 12.4631 111.795L17.2105 114.816C17.3981 114.935 17.5406 115.114 17.6154 115.323L19.9417 121.837C19.9803 121.945 20 122.059 20 122.173V125C20 125.315 20.1482 125.611 20.4 125.8L21.4688 126.602C21.7907 126.843 21.9365 127.254 21.839 127.644L21.5299 128.881C21.51 128.96 21.5 129.041 21.5 129.123V130.901C21.5 130.967 21.5065 131.033 21.5194 131.097L21.9327 133.164C21.9763 133.382 21.946 133.608 21.8466 133.807L21.2015 135.097C21.0734 135.353 20.8415 135.542 20.5647 135.616L14.1228 137.334C13.7436 137.435 13.4586 137.749 13.394 138.136L13.0388 140.267C13.0133 140.42 13.0238 140.577 13.0694 140.726L14.6018 145.706C14.7997 146.349 14.3188 147 13.646 147H12.3333C12.117 147 11.9064 147.07 11.7333 147.2L10.3556 148.233C10.1292 148.403 9.98538 148.661 9.95975 148.943L9.53361 153.63C9.51193 153.869 9.57656 154.107 9.71577 154.302L11.8374 157.272C11.9437 157.421 12.089 157.538 12.2572 157.61L18.5441 160.305C18.8313 160.428 19.0445 160.678 19.1203 160.981L19.4294 162.217C19.4755 162.402 19.4681 162.596 19.4079 162.776L19.1045 163.687C19.0366 163.89 18.9051 164.066 18.7293 164.189L14.1542 167.392C14.0523 167.463 13.9646 167.553 13.8956 167.657L13.1679 168.748C13.0584 168.912 13 169.105 13 169.303V170.838C13 170.945 13.0173 171.052 13.0513 171.154L14.416 175.248C14.4711 175.413 14.482 175.59 14.4479 175.76L13.7694 179.153C13.7565 179.217 13.75 179.283 13.75 179.349V180.937C13.75 181.183 13.8403 181.42 14.0038 181.603L14.6718 182.352C15.0034 182.724 15.5581 182.795 15.9727 182.518L17.5 181.5L21.3773 178.484C21.7425 178.2 22.2548 178.204 22.616 178.493L24.3788 179.903C24.4591 179.967 24.529 180.044 24.5861 180.129L26.3391 182.759C26.4442 182.916 26.5919 183.041 26.765 183.118L30.8728 184.943C30.9572 184.981 31.036 185.03 31.1069 185.089L36.6905 189.742C36.8891 189.908 37.144 189.99 37.4019 189.971L43.2068 189.557C43.6712 189.523 44.097 189.815 44.2339 190.26L45.8341 195.461C45.9371 195.795 46.2076 196.052 46.5473 196.137L49.8935 196.973C49.9643 196.991 50.0329 197.016 50.0982 197.049L51.7019 197.851C51.8954 197.948 52.0523 198.105 52.1491 198.298L52.7764 199.553C52.9172 199.834 52.9172 200.166 52.7764 200.447L52.2277 201.545C52.0847 201.831 51.8133 202.031 51.4977 202.084L46.8356 202.861C46.3534 202.941 46 203.358 46 203.847V204.877C46 204.959 46.01 205.04 46.0299 205.119L46.4394 206.757C46.4792 206.917 46.4792 207.083 46.4394 207.243L46.0939 208.624C46.0335 208.866 46.0655 209.122 46.1836 209.341L47.562 211.901C47.6828 212.125 47.8846 212.295 48.1262 212.375L49.56 212.853C49.8391 212.946 50.063 213.158 50.1722 213.431L50.8896 215.224C50.9616 215.404 50.9797 215.601 50.9417 215.792L50.605 217.475C50.5394 217.803 50.642 218.142 50.8784 218.378L55.7442 223.244C56.1532 223.653 56.8229 223.631 57.2039 223.196L59.7526 220.283C59.9121 220.1 60 219.866 60 219.624V216.681C60 216.561 60.0216 216.443 60.0636 216.33L61.4497 212.633C61.5417 212.388 61.7264 212.188 61.964 212.077L64.5466 210.875L67.5 209.5L70.036 208.655C70.3288 208.557 70.6502 208.6 70.9069 208.771L71.8475 209.398C71.9483 209.466 72.0361 209.551 72.1065 209.649L74.4519 212.933C74.4839 212.977 74.5196 213.02 74.5585 213.059L77.7734 216.273C77.9208 216.421 78.1105 216.518 78.3161 216.553L83.8419 217.474C83.9466 217.491 84.0535 217.492 84.1584 217.476L89.8431 216.601C90.2411 216.54 90.5635 216.246 90.6612 215.855L91.8885 210.946C91.9593 210.663 92.1503 210.425 92.4114 210.294L93.7889 209.606C93.9277 209.536 94.0808 209.5 94.2361 209.5H95.723C95.9043 209.5 96.0821 209.549 96.2375 209.643L98.332 210.899C98.443 210.966 98.5399 211.053 98.6175 211.157L99.8317 212.776C99.9418 212.922 100.09 213.036 100.26 213.104L104.724 214.89C104.904 214.962 105.101 214.98 105.291 214.942L109.841 214.032C109.946 214.011 110.048 213.973 110.141 213.919L113.129 212.212C113.366 212.076 113.537 211.85 113.604 211.586L114.47 208.119C114.49 208.04 114.5 207.959 114.5 207.877V205V202.303C114.5 202.105 114.558 201.912 114.668 201.748L117.891 196.914C118.217 196.424 118.051 195.758 117.533 195.479L112.129 192.57C112.044 192.523 111.965 192.465 111.896 192.396L110.196 190.696C110.068 190.568 109.977 190.407 109.933 190.231L109.637 189.049C109.552 188.709 109.652 188.348 109.9 188.1L115 183L118.253 179.283C118.412 179.1 118.5 178.866 118.5 178.624V171.481C118.5 171.177 118.638 170.89 118.875 170.7L120.625 169.3C120.862 169.11 121 168.823 121 168.519V159C121 158.448 120.552 158 120 158H115.25C115.086 158 114.924 157.96 114.779 157.882L107.5 154L103.149 151.583C103.05 151.528 102.962 151.457 102.887 151.373L99.6264 147.705C99.2747 147.309 99.2923 146.708 99.6667 146.333L101.072 144.928C101.335 144.665 101.722 144.57 102.078 144.68L109.218 146.912C109.402 146.969 109.599 146.973 109.784 146.921L116.396 145.084C117.221 144.855 117.395 143.764 116.683 143.289L113.057 140.871C112.72 140.647 112.552 140.241 112.631 139.843L112.974 138.131C112.991 138.044 113.02 137.96 113.06 137.88L114.368 135.264C114.454 135.092 114.489 134.898 114.467 134.706L114.038 130.846C114.014 130.622 114.065 130.396 114.184 130.205L116.266 126.875C116.415 126.636 116.658 126.471 116.935 126.421L118.959 126.053C119.149 126.018 119.325 125.93 119.465 125.797L123.299 122.189C123.431 122.065 123.526 121.909 123.576 121.735L124.293 119.225C124.415 118.796 124.808 118.5 125.254 118.5H126.424C126.474 118.5 126.525 118.504 126.576 118.512L132.924 119.488C132.975 119.496 133.026 119.5 133.076 119.5H136.313C136.727 119.5 137.098 119.755 137.247 120.141L139.253 125.359C139.402 125.745 139.773 126 140.187 126H141C141.552 126 142 125.552 142 125V121.618C142 121.239 142.214 120.893 142.553 120.724L146.762 118.619C146.918 118.541 147.051 118.424 147.147 118.279L147.926 117.111C147.975 117.037 148.014 116.957 148.042 116.873L148.833 114.5C148.938 114.187 149.19 113.946 149.507 113.855L152.283 113.062C152.426 113.021 152.576 113.013 152.722 113.037L155.179 113.447C155.388 113.481 155.602 113.449 155.791 113.355L159.355 111.573C159.451 111.525 159.539 111.461 159.615 111.385L163.786 107.214C163.926 107.074 164.021 106.897 164.059 106.703L164.394 105.031C164.46 104.7 164.689 104.424 165.003 104.299L166.925 103.53C166.975 103.51 167.027 103.5 167.081 103.5C167.312 103.5 167.5 103.312 167.5 103.081V102.676C167.5 102.283 167.223 101.945 166.837 101.867L165 101.5L163.652 101.163C163.258 101.064 162.962 100.737 162.905 100.334L162.023 94.1606C162.008 94.0542 161.975 93.951 161.927 93.8549L161.106 92.2111C161.036 92.0723 161 91.9192 161 91.7639V87V84.9142C161 84.649 161.105 84.3946 161.293 84.2071L162 83.5L163.577 81.4729C163.69 81.3271 163.761 81.1529 163.781 80.9694L164 79V73.6339C164 73.545 164.012 73.4566 164.035 73.3708L165.349 68.5543C165.442 68.2115 165.345 67.845 165.094 67.5938C165.032 67.5315 164.961 67.4779 164.885 67.4342L162.004 65.7879C161.692 65.6099 161.5 65.2785 161.5 64.9197V63.2656C161.5 63.0915 161.545 62.9205 161.632 62.7694L163.308 59.8357C163.432 59.6197 163.47 59.3654 163.416 59.1226L162.555 55.2477C162.519 55.0851 162.524 54.9161 162.57 54.756L163.5 51.5L164.977 42.6369C164.992 42.5461 164.995 42.4536 164.985 42.3621L164.571 38.6378C164.528 38.2492 164.715 37.871 165.05 37.6698L166.101 37.0396C166.59 36.7458 166.735 36.1025 166.418 35.6274L166.333 35.5001C166.128 35.1924 165.77 35.023 165.402 35.0598L161 35.5L155.071 35.9235C154.492 35.9648 154 35.5064 154 34.926V32.8471C154 32.3583 153.647 31.9411 153.164 31.8607L151.256 31.5427C151.088 31.5147 150.916 31.5301 150.755 31.5873L144.245 33.9127C144.084 33.9699 143.912 33.9853 143.744 33.9573L139.164 33.1941C138.555 33.0925 138 33.5625 138 34.1805V36.0316C138 36.3284 137.868 36.6099 137.64 36.7998L135.608 38.4937C135.251 38.7905 134.738 38.8036 134.367 38.5255L133.181 37.6361C133.062 37.5465 132.924 37.4848 132.778 37.4555L128.531 36.6062C128.2 36.54 127.924 36.3108 127.799 35.997L126.251 32.1286C126.1 31.749 125.732 31.5 125.323 31.5H118.677C118.268 31.5 117.9 31.749 117.749 32.1286L115.251 38.3714C115.1 38.751 114.732 39 114.323 39H112.435C112.157 39 111.893 38.885 111.703 38.6823L105.38 31.9076C105.144 31.6542 104.793 31.5414 104.453 31.6093L97.5971 32.9806C97.5325 32.9935 97.4668 33 97.401 33H85.3252C85.1138 33 84.9079 32.933 84.737 32.8087L79.8022 29.2198C79.6073 29.078 79.4702 28.8707 79.416 28.6359L78.1176 23.0094C78.0439 22.6903 77.8187 22.4275 77.5146 22.3058L73.2969 20.6188C73.1038 20.5415 72.9396 20.406 72.8271 20.231L68.6634 13.7543C68.5569 13.5885 68.4037 13.4579 68.2231 13.3789L60.7924 10.1279C60.6022 10.0447 60.4426 9.90434 60.3358 9.72628L59.1705 7.78421C59.0598 7.59967 59.0116 7.38434 59.033 7.17021L59.4169 3.33147C59.465 2.85012 59.1617 2.40333 58.6965 2.27044L56 1.5L52.3297 0.684385C51.8513 0.57807 51.3663 0.834143 51.1843 1.28918L49.7514 4.87139C49.5996 5.25105 49.2319 5.5 48.823 5.5H45.8028C45.6054 5.5 45.4123 5.44156 45.2481 5.33205L41.4507 2.80048C41.1695 2.61303 40.8127 2.58027 40.5021 2.71339L34.5314 5.27226C34.2026 5.41316 33.8236 5.36773 33.5375 5.15311L30.4382 2.82867C30.1652 2.62391 29.8066 2.57251 29.4871 2.69234L26.2468 3.90746C26.085 3.96812 25.9103 3.98584 25.7397 3.9589L16.9177 2.56595C16.6507 2.52379 16.378 2.59152 16.1617 2.75371Z" fill="#F4F7F7"/>
</svg>
