<svg width="233" height="177" viewBox="0 0 233 177" fill="none" xmlns="http://www.w3.org/2000/svg">
<path fill-rule="evenodd" clip-rule="evenodd" d="M0.704789 85.3223C0.65154 85.257 0.59965 85.1904 0.549164 85.1226C4.28681 81.8503 4.41026 80.5806 4.1138 78.9006C3.90229 77.9483 4.00039 76.9533 4.3938 76.0606C5.2438 73.8206 6.03379 73.0606 8.09379 72.6606C9.398 72.3723 10.6473 71.8759 11.7938 71.1906L11.8091 71.1823C13.7974 70.1086 14.5109 69.7233 17.2638 74.6806C20.1438 79.8406 27.8138 79.6806 30.9638 79.3306C34.6038 78.9806 34.8338 76.7706 35.0138 74.9906C35.1938 73.2106 35.3138 72.0806 37.4338 71.6506C38.2411 71.4823 39.0803 71.5589 39.8438 71.8706C40.6057 72.1723 41.2626 72.6902 41.7338 73.3606C44.0338 76.7906 48.5838 77.6206 53.9138 75.5706C55.0838 75.1106 57.8538 73.7706 58.4038 71.4506C58.5837 70.2942 58.5837 69.117 58.4038 67.9606C58.222 66.779 58.1985 65.5784 58.3338 64.3906C58.5102 63.3918 58.8805 62.4371 59.4238 61.5806C59.9693 60.8054 60.5852 60.0824 61.2638 59.4206C61.7038 58.9706 62.1538 58.5006 62.5738 57.9906C66.0838 58.8306 70.2638 57.4106 72.4738 56.4706C77.2138 54.6506 77.9538 52.7506 78.4738 51.3606C78.9038 50.2506 79.1438 49.6406 81.6838 49.5206L81.6854 49.5205C83.9754 49.4405 87.4338 49.3197 87.5138 45.4606C87.6138 42.0506 88.2938 41.9406 89.9338 41.6906C90.8394 41.5783 91.7247 41.3393 92.5638 40.9806C94.0541 40.2449 95.2981 39.0914 96.1438 37.6606L96.1496 37.6525C97.5566 35.6567 98.5812 34.2033 104.024 36.2306C105.784 36.9006 107.174 37.4206 108.474 36.3006C108.772 35.9103 109.211 35.652 109.696 35.581C110.182 35.51 110.677 35.6318 111.074 35.9206L111.097 35.9321C111.974 36.3606 113.086 36.9043 114.444 35.0906C115.814 33.2606 117.364 33.4506 119.374 33.8106C120.685 34.1175 122.041 34.1786 123.374 33.9906C123.687 33.962 123.989 33.8556 124.251 33.681C124.513 33.5063 124.727 33.269 124.874 32.9906C125.44 31.6508 124.094 29.5821 122.53 27.1755L122.494 27.1206C121.004 24.8406 119.314 22.2506 119.844 20.9006C119.982 20.6315 120.183 20.3999 120.431 20.2258C120.678 20.0516 120.964 19.94 121.264 19.9006L121.954 19.7306C125.714 18.8106 128.684 18.0806 127.584 12.4206C127.374 11.3697 127.073 10.3392 126.684 9.34061L126.676 9.32024C126.06 7.6302 125.587 6.33261 126.314 4.34061C127.774 0.590607 128.764 0.820607 130.724 1.34061C132.495 1.91664 134.403 1.91664 136.174 1.34061C138.302 0.624517 138.887 1.03607 140.153 1.92598L140.174 1.9406C140.707 2.33884 141.265 2.7029 141.844 3.03059C143.859 3.97628 145.586 5.44359 146.844 7.28059C148.014 9.16059 149.254 10.1606 150.624 10.3406C152.914 10.6406 155.054 8.6506 157.314 6.5406C159.174 4.8006 161.104 3.00061 163.134 2.48061C165.066 1.9857 166.309 2.65023 167.658 3.37072C167.726 3.40725 167.795 3.44393 167.864 3.48061L167.874 3.48592C169.511 4.37466 171.379 5.38849 174.184 4.3306C176.464 3.4606 177.434 3.79061 179.544 4.51061L179.954 4.64059C181.502 5.1499 182.481 4.27297 183.34 3.50372L183.344 3.5006C184.404 2.5006 185.344 1.7306 187.344 2.6606C189.344 3.5906 189.844 4.6106 190.204 5.6606C190.487 6.81285 191.18 7.82247 192.154 8.5006L192.203 8.53595C193.506 9.4703 195.154 10.6523 195.154 13.1606C195.113 13.7746 195.201 14.3904 195.411 14.9688C195.621 15.5472 195.949 16.0757 196.374 16.5206C197.979 18.0557 200.865 17.9016 203.667 17.752L203.694 17.7506C205.094 17.6145 206.504 17.6145 207.904 17.7506C207.967 18.784 207.682 19.8088 207.094 20.6606C205.7 21.9659 204.545 23.506 203.684 25.2106C203.386 25.9707 203.367 26.8118 203.63 27.5845C203.894 28.3572 204.423 29.0113 205.124 29.4306L205.344 29.5606L205.356 29.5679C206.282 30.1151 207.157 30.633 207.924 33.4306C208.091 34.4846 208.479 35.4912 209.063 36.384C209.648 37.2769 210.415 38.0358 211.314 38.6106C212.25 39.2459 213.256 39.7695 214.314 40.1706C215.002 40.4407 215.67 40.7581 216.314 41.1206C216.527 41.2456 216.707 41.4215 216.836 41.6326C216.965 41.8437 217.04 42.0835 217.054 42.3306C217.143 42.8436 217.312 43.3396 217.554 43.8006C217.867 44.3608 218.229 44.8928 218.634 45.3906C219.1 45.8869 219.443 46.4866 219.634 47.1406C219.634 47.2784 219.671 47.4458 219.713 47.6364C219.72 47.6672 219.727 47.6986 219.734 47.7306C219.996 49.2878 220.173 50.9882 219.136 52.0257C218.939 52.2026 218.709 52.3622 218.44 52.4996C217.774 52.8401 217.29 53.1458 216.956 53.4299C216.439 53.8412 216.166 54.2421 216.084 54.6806C216.065 55.0294 216.128 55.3778 216.269 55.6975C216.409 56.0173 216.624 56.2993 216.894 56.5206C218.105 57.7078 219.05 59.1396 219.664 60.7206C219.767 61.4968 220.074 62.2317 220.554 62.8506C221.035 63.482 221.682 63.9668 222.424 64.2506C223.184 64.6006 223.534 65.1006 223.484 65.3906C223.434 65.6806 223.014 65.8406 222.484 65.8806C221.969 65.8588 221.461 66.0024 221.034 66.2906C220.609 66.5781 220.289 66.9962 220.123 67.4815C219.957 67.9669 219.954 68.4931 220.114 68.9806C220.259 69.4461 220.55 69.8526 220.944 70.1406C221.654 70.8306 221.654 71.4306 221.654 72.5106C221.641 73.2023 221.678 73.8941 221.764 74.5806C221.844 75.0906 221.894 75.5206 221.934 75.9106C221.973 77.0822 222.318 78.2232 222.934 79.2206C223.284 79.8309 223.48 80.5175 223.504 81.2206C223.521 81.956 223.356 82.6842 223.024 83.3406L222.794 83.9306C222.184 85.4606 221.714 86.6706 222.954 87.9306C223.622 88.4124 224.412 88.6966 225.234 88.7506C226.974 89.0706 228.124 89.3806 228.234 90.8206C228.295 91.4872 228.275 92.1588 228.174 92.8206C228.004 94.0806 228.114 94.6206 230.044 96.1306C231.974 97.6406 233.134 100.261 232.724 101.831C232.658 102.129 232.498 102.397 232.267 102.597C232.037 102.797 231.748 102.918 231.444 102.941C230.567 103.132 229.653 103.052 228.824 102.711C227.267 102.141 225.579 102.037 223.964 102.411C221.854 102.604 219.728 102.483 217.654 102.051L217.609 102.043C214.908 101.616 212.575 101.248 211.014 102.511C210.135 103.228 209.447 104.152 209.014 105.201C208.808 105.753 208.482 106.252 208.06 106.664C207.638 107.075 207.131 107.388 206.574 107.581C204.804 108.301 204.644 108.151 204.224 107.751C203.783 107.308 203.25 106.967 202.664 106.751C201.538 106.275 200.311 106.086 199.094 106.201H196.404L196.37 106.2C192.34 106.11 189.902 106.056 189.294 108.051C189.115 108.621 189.115 109.232 189.294 109.802C189.473 110.372 189.822 110.874 190.294 111.241C190.414 111.361 190.534 111.491 190.644 111.621C191.164 112.231 191.324 112.681 191.264 112.861C191.244 112.919 191.212 112.961 191.166 112.994C191.154 113.002 191.142 113.009 191.129 113.017C191.04 113.066 190.913 113.091 190.753 113.123L190.714 113.131C190.294 113.206 189.864 113.206 189.444 113.131C189.021 113.015 188.572 113.041 188.165 113.205C187.758 113.37 187.417 113.663 187.194 114.041C186.876 114.504 186.725 115.061 186.764 115.621C186.764 116.251 186.764 116.621 185.064 117.161C182.664 117.908 182.664 119.696 182.664 120.886V120.901C182.664 121.331 182.664 121.831 182.524 121.971C182.198 122.223 181.829 122.413 181.434 122.531C180.803 122.704 180.22 123.018 179.727 123.447C179.234 123.876 178.843 124.41 178.584 125.011C178.264 125.749 177.817 126.426 177.264 127.011C176.394 127.899 175.785 129.009 175.504 130.221C175.335 130.999 175.034 131.743 174.614 132.421C174.345 132.786 174.152 133.202 174.047 133.644C173.943 134.085 173.928 134.543 174.004 134.991C174.354 137.161 174.004 138.431 172.894 138.991C171.234 139.831 170.524 140.551 170.714 142.581C170.714 142.875 170.768 143.122 170.815 143.339C170.829 143.402 170.843 143.462 170.854 143.521L170.855 143.528C170.994 144.362 171.031 144.584 170.084 145.801C169.601 146.285 169.257 146.891 169.09 147.555C168.923 148.218 168.938 148.915 169.134 149.571C169.134 149.713 169.166 149.86 169.199 150.012C169.215 150.084 169.231 150.157 169.244 150.231C169.32 150.918 169.538 151.582 169.884 152.181C170.228 152.778 170.695 153.296 171.254 153.701C171.584 153.951 171.604 154.101 171.674 154.651C171.724 155.158 171.821 155.661 171.964 156.151C172.132 156.726 172.418 157.261 172.804 157.721C173.011 157.923 173.157 158.179 173.228 158.459C173.298 158.74 173.29 159.034 173.204 159.311C172.884 160.881 172.524 162.661 174.014 163.921C174.498 164.336 174.887 164.851 175.154 165.431C175.418 166.012 175.558 166.642 175.564 167.281V168.061C175.664 168.543 175.648 169.041 175.517 169.516C175.387 169.99 175.146 170.427 174.814 170.791C174.494 171.141 174.194 171.421 173.914 171.681C173.06 172.332 172.456 173.257 172.204 174.301C171.874 175.781 171.394 176.051 170.564 176.051C170.008 176.037 169.464 175.893 168.974 175.631C168.486 175.356 168.069 174.973 167.754 174.511L167.474 174.111C166.864 173.241 166.684 173.111 165.474 173.111C165.124 173.111 162.064 172.881 161.794 171.111C161.396 169.545 161.102 167.955 160.914 166.351C160.914 165.144 160.014 164.392 159.118 163.643L159.044 163.581C158.724 163.336 158.421 163.072 158.134 162.791C157.824 162.481 157.54 162.146 157.284 161.791C156.428 160.526 155.305 159.464 153.994 158.681C152.344 157.681 151.814 157.361 150.694 157.361C150.288 157.361 149.82 157.407 149.159 157.473C149.071 157.482 148.979 157.491 148.884 157.501L147.684 157.611C146.685 157.69 145.682 157.69 144.684 157.611C143.963 157.487 143.224 157.519 142.517 157.705C141.809 157.892 141.15 158.228 140.584 158.691C139.769 159.294 138.845 159.735 137.864 159.991C136.973 160.189 136.149 160.617 135.474 161.231C134.839 161.824 134.048 162.223 133.194 162.381C132.443 162.543 131.662 162.497 130.935 162.247C130.209 161.996 129.565 161.552 129.074 160.961C128.621 160.447 128.28 159.844 128.074 159.191C127.754 158.622 127.313 158.13 126.783 157.75C126.252 157.37 125.645 157.111 125.004 156.991C124.552 156.927 124.092 156.987 123.672 157.163C123.251 157.339 122.886 157.625 122.614 157.991C122.347 158.299 122.149 158.661 122.033 159.053C121.917 159.445 121.887 159.856 121.944 160.261C121.994 160.781 122.004 160.941 120.664 161.191C119.974 161.318 119.275 161.395 118.574 161.421C117.344 161.491 116.924 161.581 116.294 163.131L116.144 163.511C115.464 165.221 115.144 166.011 113.434 165.951C112.034 165.713 110.597 166.036 109.434 166.851L109.014 167.081C108.793 167.237 108.542 167.347 108.278 167.404C108.013 167.46 107.739 167.463 107.474 167.411C106.944 167.231 106.544 166.511 106.064 165.411C105.594 164.513 104.971 163.704 104.224 163.021C103.334 162.101 102.484 161.221 102.714 160.531C103.284 158.821 103.714 156.451 102.714 154.881C102.611 154.718 102.496 154.546 102.374 154.364C102.271 154.211 102.164 154.05 102.054 153.881C101.068 152.66 100.349 151.246 99.9438 149.731C99.8853 149.23 99.7326 148.745 99.4938 148.301C99.2439 147.852 98.9033 147.46 98.4938 147.151C98.0977 146.833 97.6421 146.599 97.1538 146.461C96.6786 146.331 96.183 146.294 95.6938 146.351H95.0038C93.1938 146.351 91.4938 146.411 91.0038 148.261C90.9438 148.471 90.8938 148.671 90.8438 148.871C90.5238 150.221 90.3238 151.031 87.2238 151.381C83.4938 151.811 80.9438 152.841 79.4238 154.551C78.04 156.157 77.102 158.098 76.7038 160.181C76.7012 160.787 76.7751 161.392 76.9238 161.981L76.9332 162.028C77.1411 163.076 77.3753 164.258 76.8138 164.751C76.6538 164.881 76.4438 165.031 76.2838 164.961C76.1259 164.825 75.998 164.658 75.9084 164.471C75.8189 164.283 75.7696 164.079 75.7638 163.871C75.7634 163.74 75.7355 163.612 75.6821 163.493C75.6287 163.374 75.551 163.267 75.4538 163.181C75.0538 162.831 74.4538 162.891 73.7538 162.961C73.6423 162.961 73.5262 162.972 73.4064 162.984C73.2791 162.997 73.1478 163.011 73.0138 163.011C72.783 163.011 72.7098 162.94 72.5634 162.798C72.5449 162.78 72.5252 162.761 72.5038 162.741C71.6278 161.645 71.1736 160.272 71.2238 158.871C71.2238 158.471 71.2238 158.061 71.2838 157.651C71.4338 155.651 71.6238 153.071 67.7438 152.411C67.293 152.335 66.8658 152.256 66.4572 152.181C66.2131 152.136 65.9756 152.092 65.7438 152.051C62.8638 151.501 61.1138 151.171 59.7438 152.481C59.2622 152.934 58.8143 153.422 58.4038 153.941C58.022 154.485 57.5187 154.934 56.9338 155.251C56.847 155.31 56.7442 155.342 56.6388 155.342C56.5334 155.342 56.4306 155.31 56.3438 155.251C56.1679 155.073 56.0364 154.856 55.96 154.618C55.8835 154.38 55.8643 154.127 55.9038 153.881C56.0382 153.409 56.0689 152.915 55.9938 152.431C55.9265 151.947 55.7559 151.483 55.4937 151.07C55.2314 150.658 54.8836 150.307 54.4738 150.041C54.0755 149.776 53.6256 149.599 53.1538 149.521C51.1538 149.031 51.3438 147.881 51.6038 146.521V146.321C51.6707 145.851 51.5686 145.373 51.3159 144.972C51.0631 144.571 50.6761 144.273 50.2238 144.131C49.6707 143.935 49.064 143.956 48.5259 144.19C47.9878 144.424 47.5583 144.853 47.3238 145.391C46.6138 146.581 46.1638 147.391 45.7438 148.161C45.3238 148.931 45.0038 149.511 44.4738 150.391C43.4738 152.011 42.1438 152.341 40.3838 152.611C39.2874 152.923 38.128 152.939 37.0233 152.658C35.9186 152.377 34.9079 151.809 34.0938 151.011L33.2738 150.301L33.2039 150.239C31.5432 148.784 30.4474 147.823 29.2738 147.991C28.8987 148.075 28.5471 148.241 28.2444 148.478C27.9417 148.715 27.6955 149.017 27.5238 149.361C27.0142 150.13 26.6734 151 26.5238 151.911C26.3634 152.794 26.3941 153.701 26.6138 154.571C26.4904 156.06 25.9225 157.478 24.9838 158.641C23.9838 159.841 23.3338 160.001 21.9338 159.421C21.8203 159.369 21.7205 159.291 21.6424 159.194C21.5643 159.097 21.51 158.983 21.4838 158.861C21.2802 157.519 21.5041 156.148 22.1238 154.941C22.6538 154.051 23.4538 152.341 22.7538 150.941C22.2538 149.941 21.1138 149.391 19.3738 149.241C17.8709 149.072 16.409 148.642 15.0538 147.971C14.3309 147.606 13.5649 147.334 12.7738 147.161C12.7738 146.685 12.7895 146.221 12.805 145.761C12.8173 145.4 12.8294 145.041 12.8338 144.681C12.8338 143.511 12.8338 142.311 12.9638 141.021C13.0536 140.124 13.4206 139.278 14.0138 138.601C14.8962 137.542 15.4397 136.242 15.5738 134.871C15.8205 132.413 15.2491 131.582 14.5996 130.638L14.5738 130.601C14.1573 130.051 13.8207 129.445 13.5738 128.801C13.4125 128.45 13.3391 128.066 13.36 127.681C13.3809 127.296 13.4955 126.921 13.6938 126.591C13.7056 126.563 13.7175 126.536 13.7295 126.508C14.1541 125.524 14.6707 124.327 13.8538 121.721L13.7838 121.401C13.4238 120.241 13.6738 119.981 14.4838 119.171C17.4838 116.171 18.2238 114.281 15.0738 110.861C13.8638 109.551 13.7338 108.421 13.5938 106.371C13.5528 104.943 13.6364 103.514 13.8438 102.101C14.1338 99.5306 14.4338 96.8606 13.3938 95.1006C12.448 93.6815 11.1299 92.5502 9.5838 91.8306C8.15392 91.1989 6.94552 90.1542 6.1138 88.8306C5.82519 88.2749 5.39809 87.803 4.87379 87.4606C4.37124 87.1387 3.79829 86.9431 3.2038 86.8906C2.32636 86.5057 1.57205 85.8864 1.0238 85.1006L0.704789 85.3223ZM13.3274 69.6098C13.2448 69.6196 13.1615 69.6334 13.0774 69.6512C13.1612 69.6323 13.2444 69.6183 13.3274 69.6098Z" fill="#F4F7F7"/>
<path d="M160.354 51.7291C160.354 52.126 160.236 52.5141 160.015 52.8441C159.795 53.1742 159.481 53.4315 159.113 53.5834C158.746 53.7353 158.342 53.7751 157.952 53.6976C157.562 53.6202 157.204 53.429 156.923 53.1483C156.642 52.8676 156.45 52.51 156.373 52.1206C156.295 51.7313 156.335 51.3277 156.487 50.961C156.639 50.5942 156.897 50.2807 157.227 50.0602C157.558 49.8396 157.947 49.7219 158.344 49.7219C158.877 49.7219 159.388 49.9334 159.765 50.3098C160.142 50.6862 160.354 51.1967 160.354 51.7291Z" fill="#DCDBDB"/>
<path d="M137.099 100.829C137.099 101.336 136.948 101.831 136.667 102.252C136.385 102.674 135.984 103.002 135.515 103.196C135.046 103.39 134.53 103.441 134.032 103.342C133.535 103.243 133.077 102.999 132.718 102.641C132.36 102.282 132.115 101.826 132.016 101.329C131.917 100.832 131.968 100.316 132.162 99.8482C132.356 99.38 132.685 98.9799 133.107 98.6983C133.529 98.4168 134.025 98.2665 134.533 98.2665C135.213 98.2665 135.866 98.5364 136.347 99.017C136.829 99.4975 137.099 100.149 137.099 100.829Z" fill="#DCDBDB"/>
<path d="M50.321 93.1633C50.321 93.5602 50.2031 93.9483 49.9822 94.2783C49.7613 94.6084 49.4474 94.8657 49.0801 95.0176C48.7128 95.1695 48.3086 95.2093 47.9187 95.1318C47.5288 95.0544 47.1706 94.8632 46.8895 94.5825C46.6084 94.3018 46.417 93.9442 46.3394 93.5549C46.2619 93.1655 46.3016 92.7619 46.4538 92.3952C46.6059 92.0284 46.8635 91.7149 47.1941 91.4944C47.5247 91.2738 47.9133 91.1561 48.3109 91.1561C48.844 91.1561 49.3553 91.3676 49.7322 91.744C50.1092 92.1204 50.321 92.6309 50.321 93.1633Z" fill="#DCDBDB"/>
</svg>
