<svg width="210" height="155" viewBox="0 0 210 155" fill="none" xmlns="http://www.w3.org/2000/svg">
<path fill-rule="evenodd" clip-rule="evenodd" d="M193.387 90.2635L193.478 90.3643C193.497 90.3902 193.515 90.4159 193.533 90.4414L193.204 90.6706C193.872 91.6389 194.806 92.3927 195.894 92.8406H196.054C196.505 92.8735 196.942 93.0178 197.324 93.2606C197.704 93.5116 198.014 93.8559 198.224 94.2606C199.131 95.7727 200.478 96.9727 202.084 97.7006C203.475 98.346 204.667 99.3548 205.534 100.621C206.404 102.081 206.124 104.621 205.844 106.991C205.63 108.46 205.546 109.946 205.594 111.431L205.597 111.471C205.735 113.402 205.844 114.922 207.344 116.541C209.974 119.401 209.564 120.651 206.734 123.541C206.243 123.878 205.883 124.375 205.715 124.947C205.548 125.519 205.582 126.131 205.814 126.681L205.884 126.991C206.584 129.371 206.164 130.351 205.784 131.221C205.526 131.674 205.38 132.183 205.355 132.704C205.331 133.225 205.43 133.745 205.644 134.221C205.93 134.938 206.318 135.612 206.794 136.221C207.203 136.711 207.493 137.289 207.641 137.91C207.788 138.532 207.789 139.179 207.644 139.801C207.533 140.994 207.058 142.125 206.284 143.041C205.557 143.864 205.109 144.897 205.004 145.991C204.915 147.278 204.894 148.487 204.874 149.656L204.874 149.691V149.691C204.874 150.561 204.874 151.431 204.804 152.341C202.867 153.567 200.591 154.145 198.304 153.991H198.303C197.783 153.991 197.224 153.991 196.614 154.041C195.407 154.158 194.191 154.158 192.984 154.041C193.024 153.88 193.099 153.729 193.204 153.601L193.464 153.231L193.474 153.216C194.251 152.09 195.138 150.806 193.724 149.641C193.304 149.385 192.837 149.217 192.35 149.149C191.863 149.08 191.368 149.111 190.894 149.241C190.374 149.311 189.664 149.391 189.504 149.241C189.158 148.587 188.948 147.87 188.884 147.133C188.821 146.396 188.905 145.654 189.134 144.951L189.254 144.531C189.564 143.451 189.914 142.221 189.254 141.301C188.674 140.541 187.544 140.181 185.684 140.181C184.124 140.181 182.964 140.091 182.034 140.011C180.396 139.752 178.72 139.917 177.164 140.491C174.474 141.491 173.164 141.491 171.504 140.491C168.315 138.549 164.97 136.877 161.504 135.491C158.234 134.401 156.364 134.491 153.164 135.021C152.638 135.101 152.16 135.197 151.744 135.28C151.693 135.291 151.643 135.301 151.594 135.311C150.644 135.501 149.904 135.641 149.594 135.451C149.358 135.148 149.231 134.774 149.234 134.391C149.232 133.88 149.119 133.376 148.903 132.913C148.687 132.451 148.374 132.04 147.984 131.711C147.184 131.121 145.984 131.031 144.254 131.401C141.254 132.011 136.664 131.401 135.024 130.221C134.422 129.72 133.908 129.121 133.504 128.451C132.754 127.331 131.974 126.181 130.304 126.141C129.514 126.141 128.694 126.141 127.824 126.241C126.051 126.441 124.258 126.377 122.504 126.051C121.613 125.851 120.766 125.492 120.004 124.991C119.247 124.483 118.403 124.121 117.514 123.921L116.514 123.661C115.148 123.282 115.005 123.34 112.646 124.302L112.624 124.311L112.444 124.391C110.287 125.269 108.13 125.061 105.854 124.842L105.844 124.841C105.768 124.833 105.692 124.826 105.615 124.818C104.866 124.745 104.096 124.669 103.334 124.651L103.168 124.645C100.943 124.572 95.5697 124.394 93.8638 123.771C93.4638 123.621 92.9738 123.381 92.3938 123.091C90.2601 121.859 87.856 121.172 85.3938 121.091C82.5389 121.187 79.7468 121.954 77.2438 123.331C76.5874 123.502 75.9187 123.622 75.2438 123.691C73.1792 123.942 71.1412 124.377 69.1538 124.991C67.438 125.533 65.6171 125.657 63.8438 125.351C62.6168 125.197 61.3786 125.154 60.1438 125.221C58.8433 125.3 57.538 125.203 56.2638 124.931C54.92 124.604 53.5176 124.604 52.1738 124.931C51.0311 125.178 49.8559 125.239 48.6938 125.111C47.0628 124.917 45.4093 125.074 43.8438 125.571H43.7238L43.7077 125.577C40.8621 126.631 40.4221 126.794 39.5338 128.741C39.2332 129.358 38.8993 129.959 38.5338 130.541C37.7145 131.752 37.1373 133.11 36.8338 134.541C36.7754 135.341 36.5179 136.114 36.0848 136.79C35.6517 137.466 35.0567 138.023 34.3538 138.411C31.8227 139.845 29.4351 141.52 27.2238 143.411C26.4293 144.151 25.6875 144.947 25.0038 145.791C24.2532 146.926 23.1388 147.772 21.8438 148.191C19.5338 148.851 18.7438 148.551 17.6338 146.581C17.3691 146.171 17.2047 145.705 17.1538 145.221C17.0638 144.381 16.7238 144.311 15.0938 143.981C14.3786 143.838 13.6788 143.627 13.0038 143.351C12.1044 142.906 11.0659 142.834 10.1138 143.151C9.66645 143.268 9.21226 143.359 8.75381 143.421L8.72481 143.426C6.83461 143.745 3.99595 144.226 4.41381 147.221C4.53381 148.081 4.72381 148.911 4.91381 149.711C5.25381 151.171 5.56381 152.551 5.17381 153.161C5.09949 153.265 5.00416 153.353 4.89395 153.418C4.78374 153.484 4.66107 153.525 4.53381 153.541C4.20943 153.637 3.868 153.662 3.53308 153.614C3.19815 153.565 2.8777 153.445 2.59381 153.261C2.26605 152.94 2.00804 152.555 1.83597 152.13C1.66389 151.705 1.58145 151.249 1.59381 150.791C1.51975 150.011 1.38602 149.239 1.19381 148.481C0.657739 146.877 0.636759 145.146 1.13381 143.531C1.82003 141.748 2.15944 139.851 2.13381 137.941C2.13381 137.541 2.13381 137.131 2.18381 136.711C2.23109 135.887 1.99463 135.071 1.51381 134.401C1.27044 134.111 1.13704 133.744 1.13704 133.366C1.13704 132.987 1.27044 132.621 1.51381 132.331C1.7454 131.916 1.97699 131.547 2.19062 131.207L2.21381 131.171C3.21381 129.611 3.91381 128.481 2.76381 125.941C1.61381 123.401 3.89381 119.261 4.76381 118.011C5.42381 117.091 6.27381 113.921 7.28381 108.581C7.78381 105.951 6.90381 104.691 4.58381 102.721C4.50381 102.651 4.37381 102.521 4.38381 102.421C4.44081 101.946 5.81549 101.245 6.72445 100.782C6.77228 100.757 6.81882 100.734 6.86381 100.711L6.87257 100.706C8.17769 100.059 9.04358 99.629 8.94381 98.9306C8.85135 98.2834 8.29723 98.1747 7.70832 98.0593C7.6603 98.0499 7.61205 98.0404 7.56381 98.0306C6.56381 97.8306 6.32381 97.5706 6.29381 97.5006C6.26381 97.4306 6.39381 96.9606 6.56381 96.6406L6.57172 96.6248C6.89366 95.9811 7.48234 94.8042 6.09381 94.0306C5.12738 93.5526 4.07114 93.2834 2.99381 93.2406C1.73381 93.1206 1.25381 93.0206 1.12381 92.4606C1.00138 91.9499 0.816664 91.4562 0.573807 90.9906C0.226547 90.4486 0.0296478 89.824 0.00328944 89.1809C-0.0230689 88.5378 0.122062 87.8992 0.423807 87.3306C1.02186 85.9286 3.20589 83.1137 5.3456 80.3558L5.47381 80.1906C7.24917 78.0824 8.85738 75.8389 10.2838 73.4806C11.0938 71.7906 9.93381 69.7806 8.99381 68.1606C8.45381 67.2306 7.84381 66.1606 7.99381 65.7606C7.99381 65.6506 8.16381 65.5706 8.37381 65.5006C8.6278 65.4537 8.86604 65.344 9.06688 65.1816C9.26772 65.0192 9.42479 64.8091 9.52381 64.5706C9.71325 63.9524 9.26644 63.3939 8.90697 62.9446L8.90381 62.9406L8.74381 62.7306C8.95013 62.7137 9.15749 62.7137 9.36381 62.7306C12.8338 62.8606 15.0438 62.8306 16.6938 60.8006C17.2374 60.1471 17.9209 59.6242 18.6938 59.2706C19.6346 58.8023 20.4739 58.1533 21.1638 57.3606C21.4797 57.0103 21.8135 56.6765 22.1638 56.3606C23.4738 55.1106 24.2138 54.2206 24.0938 50.6306C24.0938 50.0093 24.0278 48.8224 23.9782 47.9301L23.9738 47.8506C25.196 47.9071 26.3953 48.2027 27.5038 48.7206C30.0838 49.9706 31.0338 49.4406 32.1838 48.4806C32.8866 47.8133 33.7829 47.3862 34.7438 47.2606C35.0988 47.1604 35.4762 47.173 35.8237 47.2966C36.1712 47.4202 36.4718 47.6487 36.6838 47.9506C36.9932 48.3402 37.3872 48.6542 37.8359 48.8691C38.2846 49.0839 38.7763 49.1939 39.2738 49.1906C40.2375 49.2098 41.201 49.1462 42.1538 49.0006C43.0327 48.8568 43.9247 48.8098 44.8138 48.8606C46.454 49.1621 47.9366 50.0291 49.0038 51.3106C50.1938 52.5006 51.4338 53.7406 53.4938 53.3106C55.5538 52.8806 55.8738 50.7306 56.0238 49.1806C56.0238 49.0248 56.0467 48.8736 56.0709 48.7146C56.0824 48.6388 56.0941 48.5613 56.1038 48.4806C56.1464 47.8622 56.1129 47.2408 56.0038 46.6306C55.7864 45.5993 55.9005 44.5257 56.3297 43.5631C56.7589 42.6005 57.4813 41.7981 58.3938 41.2706C59.4738 40.4406 60.5838 39.5806 59.9938 37.7406C59.8097 37.2982 59.7343 36.8181 59.7738 36.3406C59.8092 35.8875 59.9423 35.4474 60.1638 35.0506C61.1594 33.8758 63.2551 35.0402 65.1387 36.0866L65.1638 36.1006C66.0807 36.7093 67.0955 37.1558 68.1638 37.4206C68.8402 37.543 69.5376 37.4665 70.1713 37.2002C70.8051 36.9339 71.3479 36.4894 71.7338 35.9206C71.9352 35.6147 72.1953 35.352 72.4992 35.1477C72.8031 34.9434 73.1446 34.8016 73.5038 34.7306C75.1438 34.4806 75.5038 35.5706 76.0438 37.7306C76.4938 39.4606 77.0438 41.4206 78.8038 42.3006L79.0038 42.4106C80.3238 43.0306 81.1338 43.4706 81.1338 44.4806C81.1315 44.7655 81.1901 45.0476 81.3056 45.308C81.4212 45.5684 81.591 45.8011 81.8038 45.9906C82.5793 46.6169 83.7897 46.3636 85.0714 46.0953L85.0938 46.0906C85.7265 45.9329 86.3727 45.8358 87.0238 45.8006C87.8848 45.8122 88.7265 45.5456 89.4238 45.0406C90.0338 44.6406 90.2938 44.4806 91.4238 45.3906C91.8838 45.7306 94.1938 47.3906 95.1438 46.5506C95.7838 45.9906 95.3338 44.9006 94.8538 44.0106C94.7107 43.752 94.5838 43.4849 94.4738 43.2106L94.3838 42.8506C94.0638 41.6906 93.4838 39.5306 94.1338 38.8506C94.3638 38.6006 94.8238 38.5406 95.4838 38.6906L96.1538 38.8506L96.1593 38.852C97.5988 39.2219 99.565 39.7271 100.494 36.9606C101.292 34.7678 102.826 32.9196 104.834 31.7306C105.42 31.4029 105.929 30.9528 106.326 30.411C106.723 29.8692 106.998 29.2484 107.134 28.5906C107.332 27.7474 107.715 26.9585 108.254 26.2806C109.674 24.4406 109.384 23.6806 108.744 22.0206L108.674 21.8206C107.254 17.9039 107.656 17.5826 108.152 17.186C108.163 17.1776 108.173 17.1691 108.184 17.1606C108.891 16.7016 109.39 15.9835 109.574 15.1606C109.699 14.7062 109.706 14.2276 109.596 13.7695C109.486 13.3114 109.262 12.8886 108.944 12.5406C108.574 12.0306 108.404 11.7706 108.574 11.3206C108.834 10.6306 109.284 10.5106 110.044 10.3206C111.414 10.0306 112.534 9.5606 112.334 6.6206C112.164 4.0506 112.264 1.5006 115.334 1.0906L116.254 0.950603L116.294 0.944514C118.785 0.567332 120.767 0.267221 123.254 1.50059C125.7 2.5474 128.343 3.05557 131.004 2.9906C132.086 2.9906 133.136 3.09285 134.162 3.19271C134.293 3.20545 134.424 3.21815 134.554 3.2306C135.749 3.37195 136.95 3.45204 138.154 3.47059C139.544 3.50997 140.909 3.85119 142.154 4.47059C145.854 5.99059 147.024 5.47059 148.764 4.47059L149.214 4.2106C148.994 5.94066 149.2 7.69814 149.814 9.33059C150.095 10.0356 150.257 10.7825 150.294 11.5406C150.294 12.9206 149.794 13.0206 148.704 13.2206C147.304 13.4706 145.394 13.8306 145.704 17.9606C145.844 20.6206 146.034 23.9606 149.274 24.8206C153.104 25.9006 155.584 27.3906 155.734 28.7006C155.864 29.8006 154.404 30.8706 153.154 31.5806L152.484 31.9406C150.804 32.8406 149.214 33.7006 148.764 35.2806C148.635 35.9592 148.643 36.6568 148.789 37.332C148.935 38.0071 149.216 38.646 149.614 39.2106C150.924 41.5506 150.804 42.0906 150.384 43.9106C150.371 43.9683 150.358 44.0274 150.345 44.0879C150.263 44.4573 150.17 44.8794 150.084 45.3606C149.564 48.0606 150.284 49.0306 150.984 49.3606C152.204 49.9506 154.104 48.9806 155.984 46.8406C157.094 45.5506 157.984 44.9306 158.764 44.9706C159.674 45.0306 160.404 46.1506 161.174 47.3406C161.944 48.5306 162.944 50.0406 164.364 50.3906C165.872 50.8536 167.202 51.768 168.174 53.0106C169.51 54.602 171.231 55.8242 173.174 56.5606C174.597 57.0086 176.108 57.0979 177.574 56.8206C178.306 56.643 179.072 56.6637 179.794 56.8806C180.564 57.2506 180.694 58.0206 180.794 59.2406L180.795 59.2483C180.975 60.757 181.198 62.6318 183.684 63.3206C184.084 63.4206 184.544 63.5006 185.024 63.5806C187.354 63.9906 189.024 64.4206 188.914 66.2906C188.917 66.5558 188.862 66.8186 188.754 67.0606C188.646 67.3038 188.494 67.5244 188.304 67.7106C188.106 67.8878 187.875 68.0237 187.624 68.1106C187.371 68.2027 187.102 68.2402 186.834 68.2206C184.284 68.1006 182.834 68.3906 182.254 69.1706C181.674 69.9506 181.934 70.8706 182.194 71.7806C182.494 72.4501 182.551 73.2037 182.354 73.9106C181.544 75.5606 182.354 77.3206 184.564 78.9106C186.774 80.5006 187.894 81.4106 186.874 83.7806C186.194 85.3806 188.284 86.7006 189.664 87.5706L190.254 87.9506C191.168 88.5755 191.989 89.3263 192.694 90.1806L193.024 90.5806L193.387 90.2635ZM149.578 3.75281C149.56 3.76202 149.542 3.77128 149.524 3.78059L149.362 3.46343C149.381 3.45374 149.4 3.44404 149.418 3.43435L149.578 3.75281Z" fill="#F4F7F7"/>
<path d="M138.634 108.811C138.634 109.565 138.41 110.302 137.991 110.929C137.571 111.556 136.975 112.044 136.278 112.333C135.58 112.621 134.813 112.697 134.072 112.55C133.332 112.403 132.652 112.04 132.118 111.506C131.584 110.973 131.221 110.294 131.073 109.555C130.926 108.816 131.002 108.049 131.291 107.353C131.579 106.656 132.069 106.061 132.696 105.642C133.324 105.224 134.062 105 134.817 105C135.829 105 136.8 105.402 137.516 106.116C138.232 106.831 138.634 107.801 138.634 108.811Z" fill="#DCDBDB"/>
<path d="M181.02 98.0071C181.02 98.4041 180.902 98.7922 180.681 99.1222C180.461 99.4523 180.147 99.7096 179.779 99.8615C179.412 100.013 179.008 100.053 178.618 99.9757C178.228 99.8982 177.87 99.7071 177.589 99.4264C177.308 99.1457 177.116 98.7881 177.039 98.3987C176.961 98.0094 177.001 97.6058 177.153 97.239C177.305 96.8723 177.563 96.5588 177.893 96.3383C178.224 96.1177 178.613 96 179.01 96C179.543 96 180.054 96.2115 180.431 96.5879C180.808 96.9643 181.02 97.4748 181.02 98.0071Z" fill="#DCDBDB"/>
<path d="M105.985 105.829C105.985 106.226 105.867 106.614 105.646 106.944C105.425 107.274 105.111 107.531 104.744 107.683C104.377 107.835 103.973 107.875 103.583 107.797C103.193 107.72 102.835 107.529 102.554 107.248C102.272 106.967 102.081 106.61 102.003 106.22C101.926 105.831 101.966 105.427 102.118 105.061C102.27 104.694 102.528 104.38 102.858 104.16C103.189 103.939 103.577 103.822 103.975 103.822C104.508 103.822 105.019 104.033 105.396 104.41C105.773 104.786 105.985 105.296 105.985 105.829Z" fill="#DCDBDB"/>
<path d="M43.0202 66.0071C43.0202 66.4041 42.9023 66.7922 42.6814 67.1222C42.4606 67.4523 42.1466 67.7096 41.7793 67.8615C41.412 68.0134 41.0079 68.0531 40.6179 67.9757C40.228 67.8982 39.8699 67.7071 39.5887 67.4264C39.3076 67.1457 39.1162 66.788 39.0386 66.3987C38.9611 66.0093 39.0009 65.6058 39.153 65.239C39.3051 64.8723 39.5628 64.5588 39.8933 64.3383C40.2239 64.1177 40.6125 64 41.0101 64C41.5432 64 42.0545 64.2115 42.4314 64.5879C42.8084 64.9643 43.0202 65.4748 43.0202 66.0071Z" fill="#DCDBDB"/>
<path d="M72.9214 67.7082C72.9214 68.046 72.8211 68.3763 72.6331 68.6572C72.4452 68.9381 72.178 69.157 71.8654 69.2863C71.5528 69.4156 71.2088 69.4495 70.877 69.3836C70.5451 69.3176 70.2403 69.1549 70.0011 68.916C69.7618 68.6772 69.5989 68.3728 69.5329 68.0414C69.4669 67.7101 69.5007 67.3666 69.6302 67.0545C69.7597 66.7424 69.979 66.4756 70.2603 66.2879C70.5416 66.1002 70.8724 66 71.2107 66C71.6644 66 72.0996 66.18 72.4204 66.5003C72.7412 66.8207 72.9214 67.2551 72.9214 67.7082Z" fill="#DCDBDB"/>
<path d="M40.3654 91.4159C40.3675 91.6993 40.2853 91.9769 40.1292 92.2136C39.973 92.4503 39.75 92.6353 39.4884 92.7452C39.2268 92.8551 38.9384 92.885 38.6598 92.831C38.3812 92.777 38.1249 92.6416 37.9234 92.442C37.722 92.2423 37.5845 91.9874 37.5283 91.7096C37.4722 91.4318 37.4999 91.1436 37.608 90.8816C37.7161 90.6196 37.8998 90.3955 38.1356 90.2378C38.3714 90.0801 38.6489 89.996 38.9327 89.996C39.3127 89.996 39.6771 90.1467 39.9458 90.415C40.2145 90.6833 40.3654 91.0472 40.3654 91.4266" fill="#DCDBDB"/>
<path d="M18.5334 136.64C18.5334 137.088 18.4005 137.526 18.1514 137.898C17.9023 138.27 17.5483 138.56 17.1341 138.731C16.7199 138.903 16.2642 138.947 15.8245 138.86C15.3848 138.773 14.9809 138.557 14.6639 138.241C14.3469 137.924 14.131 137.521 14.0436 137.082C13.9561 136.643 14.001 136.188 14.1725 135.774C14.3441 135.361 14.6346 135.007 15.0074 134.758C15.3802 134.51 15.8184 134.377 16.2667 134.377C16.5644 134.377 16.8591 134.435 17.1341 134.549C17.4091 134.663 17.659 134.83 17.8695 135.04C18.08 135.25 18.247 135.5 18.3609 135.774C18.4748 136.049 18.5334 136.343 18.5334 136.64Z" fill="#DCDBDB"/>
<path d="M97.2472 52.8595C97.2494 53.3287 97.1119 53.7879 96.8524 54.1791C96.5929 54.5703 96.2229 54.8757 95.7894 55.0567C95.3559 55.2378 94.8783 55.2862 94.4171 55.196C93.956 55.1057 93.532 54.8809 93.199 54.5498C92.866 54.2188 92.6389 53.7965 92.5464 53.3365C92.4539 52.8764 92.5003 52.3993 92.6797 51.9656C92.859 51.5319 93.1632 51.1611 93.5538 50.9002C93.9444 50.6393 94.4037 50.5 94.8736 50.5C95.5013 50.5 96.1034 50.7483 96.5482 51.1904C96.9931 51.6326 97.2444 52.2327 97.2472 52.8595Z" fill="#DCDBDB"/>
<path d="M136.94 12.615C136.94 13.1471 136.782 13.6672 136.485 14.1097C136.189 14.5521 135.769 14.8969 135.276 15.1006C134.784 15.3042 134.242 15.3575 133.72 15.2537C133.197 15.1499 132.717 14.8936 132.34 14.5174C131.963 14.1411 131.707 13.6617 131.603 13.1398C131.499 12.6179 131.552 12.077 131.756 11.5854C131.96 11.0938 132.305 10.6736 132.748 10.378C133.191 10.0823 133.712 9.92456 134.245 9.92456C134.96 9.92456 135.645 10.208 136.15 10.7126C136.656 11.2171 136.94 11.9014 136.94 12.615Z" fill="#DCDBDB"/>
<path d="M158.974 52.8216C158.974 53.1172 158.886 53.4062 158.722 53.652C158.557 53.8978 158.324 54.0893 158.05 54.2025C157.777 54.3156 157.476 54.3452 157.185 54.2875C156.895 54.2299 156.628 54.0875 156.419 53.8785C156.21 53.6694 156.067 53.4031 156.009 53.1132C155.951 52.8232 155.981 52.5227 156.094 52.2496C156.208 51.9765 156.4 51.743 156.646 51.5788C156.892 51.4146 157.181 51.3269 157.477 51.3269C157.874 51.3269 158.255 51.4844 158.536 51.7647C158.817 52.045 158.974 52.4252 158.974 52.8216Z" fill="#DCDBDB"/>
</svg>
