<svg width="233" height="154" viewBox="0 0 233 154" fill="none" xmlns="http://www.w3.org/2000/svg">
<path fill-rule="evenodd" clip-rule="evenodd" d="M231.614 92.1506C231.864 92.1006 231.934 91.9906 231.934 91.9906C232.154 91.6406 231.834 90.5106 231.434 89.1606V89.0606C230.986 87.5332 230.921 85.9191 231.244 84.3606C231.262 84.2134 231.282 84.0622 231.303 83.9044C231.338 83.6333 231.376 83.3429 231.414 83.0206C231.564 81.7506 231.404 81.4506 231.294 81.3706C231.224 81.3195 231.059 81.3337 230.864 81.3506C230.753 81.3602 230.633 81.3706 230.514 81.3706H230.214C229.977 81.395 229.742 81.4419 229.514 81.5106C229.153 81.6677 228.749 81.6969 228.369 81.5932C227.989 81.4896 227.655 81.2593 227.424 80.9406C227.099 80.5405 226.932 80.0354 226.954 79.5206C226.966 79.4343 226.966 79.3468 226.954 79.2606C226.964 79.2606 226.924 79.2306 226.714 79.1806C226.4 79.1255 226.078 79.1255 225.764 79.1806C225.367 79.2861 224.949 79.2834 224.553 79.1726C224.157 79.0618 223.798 78.847 223.514 78.5506C222.548 77.39 221.261 76.541 219.814 76.1106C217.424 75.2606 217.024 74.5206 215.694 72.0506L215.444 71.6006C213.574 68.1706 215.504 66.4306 217.384 65.2906C217.612 65.1815 217.811 65.0207 217.965 64.8211C218.12 64.6214 218.225 64.3884 218.274 64.1406C218.424 63.1106 217.404 61.8906 217.094 61.5406C216.564 60.9606 215.914 61.0406 214.494 61.2906L213.404 61.4706C211.859 61.6786 211.138 60.435 210.561 59.4396L210.544 59.4106C210.329 58.9477 210.023 58.5329 209.644 58.1906C208.417 57.5241 207.04 57.18 205.644 57.1906C204.806 57.2373 203.968 57.1078 203.184 56.8106C202.396 56.5063 201.683 56.0356 201.094 55.4306C199.994 54.1306 199.344 53.7506 198.564 53.9706C198.264 54.0652 197.976 54.1926 197.704 54.3506C196.686 54.9339 195.511 55.1823 194.344 55.0606C193.886 54.9863 193.417 55.0141 192.971 55.142C192.525 55.27 192.113 55.4948 191.764 55.8006C191.28 56.1438 190.772 56.4512 190.244 56.7206L190.034 56.8206C188.174 57.8206 187.394 58.1706 185.224 56.8206C184.62 56.3938 183.892 56.1793 183.154 56.2106C182.857 56.2416 182.557 56.2016 182.279 56.0938C182.001 55.986 181.752 55.8135 181.554 55.5906C180.785 54.712 181.212 54.0227 181.702 53.2343L181.704 53.2306C182.09 52.6613 182.424 52.0589 182.704 51.4306C183.815 49.0381 184.563 46.4935 184.924 43.8806C185.227 42.6044 185.254 41.2782 185.004 39.9906C184.798 39.0938 184.781 38.1643 184.954 37.2606C185.174 35.6106 184.774 34.6306 183.824 34.4906H183.624L183.58 34.4848C182.737 34.3722 180.863 34.1219 180.804 32.4906C180.805 32.2476 180.751 32.0074 180.648 31.7876C180.544 31.5679 180.392 31.3741 180.204 31.2206C179.946 31.0624 179.655 30.9648 179.353 30.9354C179.052 30.9059 178.748 30.9453 178.464 31.0506C176.494 31.5906 176.014 31.2506 174.654 29.9806L174.464 29.8006C173.194 28.6206 172.684 28.5106 170.094 28.3706C167.724 28.2306 166.974 27.2106 165.854 25.6606C165.815 25.6076 165.776 25.5536 165.736 25.4987C165.497 25.1697 165.232 24.8062 164.924 24.4206C164.127 23.4077 163.037 22.6641 161.804 22.2906C160.873 21.9573 159.984 21.5177 159.154 20.9806C156.694 19.3606 156.054 17.1406 157.054 13.9806C157.654 12.1206 157.004 10.5606 154.934 8.90059C153.614 7.85059 153.494 6.67058 153.364 5.30058L153.356 5.22396C153.308 4.75644 153.258 4.26149 153.154 3.73059C152.814 1.96059 151.224 0.980591 148.294 0.730591C147.512 2.10065 146.531 3.34747 145.384 4.43059C144.922 4.85771 144.362 5.16564 143.754 5.3277C143.146 5.48975 142.507 5.50104 141.894 5.36058C140.162 5.1188 138.399 5.47132 136.894 6.36058C135.807 6.87512 134.602 7.0925 133.404 6.99059C132.31 6.92882 131.237 6.67142 130.234 6.23059C128.964 5.73059 128.134 5.41059 126.754 6.23059C126.229 6.53671 125.689 6.8138 125.134 7.06059C123.414 7.86059 122.534 8.35059 122.794 9.99059C123.096 11.647 122.737 13.3556 121.794 14.7506C121.527 15.12 121.184 15.4268 120.786 15.6496C120.389 15.8724 119.948 16.0059 119.494 16.0406C118.893 16.0724 118.294 15.9628 117.744 15.7206C116.912 15.3319 116.156 14.7967 115.514 14.1406C114.734 13.3906 113.854 13.6506 112.584 14.1406C110.234 15.0706 109.564 14.5406 108.664 13.6206C108.119 13.0056 107.432 12.532 106.664 12.2406C105.708 11.9145 104.67 11.9145 103.714 12.2406C102.95 12.4439 102.164 12.548 101.374 12.5506C100.432 12.4329 99.5098 12.1873 98.6338 11.8206C98.037 11.5505 97.3972 11.388 96.7438 11.3406C95.9438 11.4806 95.6938 12.5906 95.6138 13.0606C95.5229 13.7853 95.5842 14.5209 95.7938 15.2206C95.9811 15.825 96.0457 16.4608 95.9838 17.0906C95.9449 17.6374 95.7512 18.1619 95.4254 18.6028C95.0996 19.0437 94.6551 19.3828 94.1438 19.5806C93.493 19.7673 92.8035 19.7729 92.1497 19.5967C91.4959 19.4204 90.9026 19.0691 90.4338 18.5806C90.0163 18.2055 89.5643 17.8707 89.0838 17.5806C88.1987 17.0802 87.4608 16.3561 86.9438 15.4806C86.7251 15.0241 86.3775 14.6417 85.9438 14.3806C85.5928 14.1856 84.5955 15.0552 83.897 15.6642L83.8438 15.7106C83.292 16.2474 82.6737 16.7112 82.0038 17.0906C80.7652 17.5637 79.4318 17.7351 78.1138 17.5906C76.8456 17.4465 75.6186 17.0522 74.5038 16.4306C74.0678 16.1645 73.5864 15.9814 73.0838 15.8906C72.3538 15.8906 69.9338 17.8306 67.9938 19.3906C66.4417 20.7124 64.7976 21.9221 63.0738 23.0106C63.5679 23.336 64.128 23.5477 64.7138 23.6306C65.3897 23.7342 66.0309 23.9982 66.5838 24.4006L66.6738 24.4706C67.1238 24.9806 66.8338 25.7106 66.4538 26.6306C65.9655 27.6369 65.6897 28.733 65.6438 29.8506C65.661 30.7344 65.5737 31.6172 65.3838 32.4806C65.1516 33.4256 65.0973 34.4057 65.2238 35.3706C65.3077 36.0646 65.2452 36.7684 65.0402 37.4368C64.8352 38.1051 64.4924 38.723 64.0338 39.2506C63.9138 39.4106 63.7638 39.6206 63.6438 39.8106C63.4541 40.0948 63.2213 40.3478 62.9538 40.5606C62.5393 40.8857 62.2269 41.3231 62.0538 41.8206C61.884 42.3171 61.8632 42.8524 61.9938 43.3606C62.1552 44.4662 62.2188 45.5838 62.1838 46.7006C62.0613 48.1387 62.2419 49.5866 62.7138 50.9506C63.1538 51.8306 63.1738 52.1606 63.0438 52.5406C62.9444 53.1765 63.0098 53.8272 63.2338 54.4306C63.3674 54.861 63.4776 55.2983 63.5638 55.7406C63.9838 57.5106 64.0838 57.7406 65.0838 58.0606C65.4628 58.1717 65.8511 58.2487 66.2438 58.2906L66.244 58.2906C67.174 58.3706 68.4538 58.4807 68.6338 60.0706C68.8132 61.4753 67.4341 61.6989 66.6921 61.8192L66.6838 61.8206C66.255 61.8509 65.843 61.9998 65.4938 62.2506C65.3831 62.4337 65.334 62.6475 65.3538 62.8606C65.3538 63.9406 65.1238 65.2206 62.4438 67.4306C61.6338 68.0406 61.1038 68.4906 60.6338 68.9206C58.5538 70.6706 58.1238 71.0306 56.3338 71.3306C55.4586 71.4411 54.5698 71.3522 53.7338 71.0706C53.2284 70.8551 52.682 70.7525 52.1328 70.7697C51.5836 70.787 51.0447 70.9238 50.5538 71.1706C49.3439 71.7905 49.2838 72.7604 49.2138 73.8903L49.2138 73.8906C49.2534 74.5614 49.1045 75.23 48.7838 75.8206L48.6738 75.9606C47.6919 76.8074 46.494 77.3647 45.2138 77.5706L44.8738 77.6706C44.738 77.72 44.5953 77.7677 44.4536 77.8151C44.251 77.8828 44.0503 77.95 43.8738 78.0206C42.7338 78.4606 42.7938 79.5906 43.0238 81.4106V81.5506C43.0149 81.6404 43.0149 81.7308 43.0238 81.8206C43.0461 81.9229 43.0628 82.0264 43.0738 82.1306C43.1022 82.3695 43.0783 82.6118 43.0038 82.8406C42.9252 83.0605 42.8065 83.2639 42.6538 83.4406C42.4438 83.6777 42.1571 83.8335 41.8438 83.8806C41.5901 83.9355 41.3276 83.9355 41.0738 83.8806C40.6525 83.7261 40.2726 83.4763 39.9638 83.1506C39.6779 82.8427 39.4599 82.4781 39.3238 82.0806C39.0686 81.5203 38.8547 80.9421 38.6838 80.3506L38.6621 80.2834C38.0154 78.2834 37.6234 77.0713 34.8938 77.1306C33.1981 77.2794 31.4905 77.0506 29.8938 76.4606L29.4338 76.3006C29.3977 76.2874 29.3612 76.274 29.3243 76.2604C29.1366 76.1913 28.9362 76.1174 28.6938 76.0506L28.0538 75.8506C27.419 75.5875 26.7408 75.4451 26.0538 75.4306C25.9719 75.4304 25.8909 75.4483 25.8166 75.4828C25.7423 75.5174 25.6765 75.5678 25.6238 75.6306C25.4738 75.8106 25.3138 76.2506 25.4238 77.3206C25.6438 79.8706 23.3838 81.1506 21.8838 81.9906C21.5602 82.1422 21.2492 82.3194 20.9538 82.5206C20.43 82.851 19.8696 83.1195 19.2838 83.3206C18.5462 83.5453 17.8784 83.9549 17.3438 84.5106L17.0938 84.8006L17.089 84.8058C16.0608 85.9238 15.1043 86.9639 15.4238 89.1006C15.648 90.1619 15.742 91.2465 15.7038 92.3306C15.6765 93.2919 15.2914 94.2084 14.6238 94.9006C14.2837 95.2225 14.0028 95.6015 13.7938 96.0206C13.6245 96.3249 13.5546 96.6746 13.5938 97.0206C13.6321 97.3475 13.7929 97.6476 14.0438 97.8606C14.293 98.1095 14.5841 98.3126 14.9038 98.4606C15.7695 98.8061 16.5682 99.3001 17.2638 99.9206C17.5581 100.176 17.744 100.533 17.7838 100.921C17.8316 101.314 17.728 101.711 17.4938 102.031C16.6773 103.474 15.375 103.709 13.9916 103.957L13.9738 103.961L13.5138 104.051C13.1275 104.146 12.7469 104.263 12.3738 104.401C10.8038 104.931 8.67381 105.641 6.2538 103.811C4.61381 102.581 2.2538 101.691 1.2538 102.311C0.683805 102.651 0.503798 103.431 0.683798 104.651C1.00329 106.757 2.11028 107.03 3.40761 107.349L3.41381 107.351C3.92643 107.407 4.42072 107.574 4.86265 107.84C5.30458 108.106 5.68366 108.464 5.97381 108.891C6.87288 110.439 8.35077 110.94 10.2081 111.569L10.2138 111.571C12.1309 112.105 13.9223 113.016 15.4838 114.251C16.653 115.311 18.6665 114.633 19.7733 114.261L19.8038 114.251C20.0745 114.125 20.3731 114.07 20.6708 114.093C20.9686 114.116 21.2554 114.215 21.5038 114.381C22.3533 115.05 22.224 116.619 22.0741 118.437L22.0738 118.441C21.9643 119.39 21.9375 120.347 21.9938 121.301C22.4231 125.085 21.2077 126.038 20.328 126.727L20.3238 126.731L20.3194 126.734C19.4413 127.423 18.6844 128.016 19.0538 131.231C19.6238 135.931 18.4438 138.991 15.2238 141.161C12.1838 143.211 10.7438 145.101 10.9438 146.771C11.1938 148.781 13.8138 150.701 18.7238 152.511L19.1738 152.671L19.6438 152.841C23.0338 153.791 27.4438 152.171 29.1938 151.441C33.5237 149.765 34.1509 148.178 34.6603 146.89L34.6638 146.881C35.2338 145.421 35.9438 144.511 38.7638 144.421C41.5838 144.331 43.5838 144.031 43.6338 141.331C43.7638 137.271 44.9038 136.901 46.9038 136.591C47.72 136.495 48.5181 136.283 49.2738 135.961C50.6017 135.289 51.7064 134.247 52.4538 132.961C53.9038 130.851 55.3038 128.861 61.4538 131.161C63.2338 131.831 64.1138 132.121 64.9138 131.431C65.3565 130.905 65.9764 130.56 66.6563 130.46C67.3363 130.361 68.0291 130.514 68.6038 130.891L68.6162 130.897C69.4183 131.283 69.8584 131.495 70.7538 130.351C72.5938 127.961 74.6538 128.331 76.6538 128.691C77.8547 128.981 79.0993 129.046 80.3238 128.881C80.9438 128.761 81.0838 128.511 81.0838 128.431C81.4408 127.578 80.0569 125.446 78.8245 123.548L78.7938 123.501C77.0438 120.891 75.3238 118.191 76.0438 116.361C76.2409 115.946 76.536 115.585 76.9036 115.31C77.2712 115.035 77.7003 114.853 78.1538 114.781L78.8438 114.611C82.7338 113.661 84.6538 113.191 83.7338 108.461C83.5296 107.462 83.2419 106.481 82.8738 105.531L82.8731 105.528C82.2134 103.709 81.6441 102.14 82.5038 99.8406C84.2038 95.4806 85.7338 95.6106 88.0938 96.1806C89.6824 96.7005 91.3953 96.7005 92.9838 96.1806C95.6086 95.3023 96.5501 95.9779 97.856 96.915L97.8638 96.9206C98.3559 97.2856 98.8702 97.6195 99.4038 97.9206C101.563 98.9525 103.41 100.54 104.754 102.521C105.764 104.131 106.764 104.991 107.834 105.131C109.689 105.359 111.721 103.451 113.657 101.634L113.704 101.591L113.745 101.552C115.681 99.7347 117.64 97.8964 119.954 97.3006C122.284 96.7006 123.804 97.5206 125.404 98.3906C127.004 99.2606 128.514 100.081 130.904 99.1806C133.484 98.1945 134.764 98.6272 136.879 99.3422L136.904 99.3506L137.304 99.4806C138.254 99.7906 138.814 99.3506 139.724 98.5406C140.834 97.5406 142.234 96.3706 144.834 97.5406C147.434 98.7106 147.864 100.031 148.234 101.201C148.439 102.129 148.985 102.946 149.764 103.491C149.808 103.524 149.853 103.557 149.898 103.591C151.307 104.639 153.184 106.036 153.184 109.001C153.141 109.478 153.2 109.958 153.355 110.411C153.51 110.864 153.758 111.28 154.084 111.631C155.394 112.911 158.074 112.771 160.674 112.631C162.058 112.52 163.449 112.52 164.834 112.631C164.764 112.067 164.734 111.499 164.744 110.931C164.777 110.146 164.972 109.378 165.317 108.672C165.661 107.967 166.147 107.34 166.744 106.831C166.904 106.688 167.094 106.582 167.299 106.52C167.505 106.457 167.721 106.441 167.934 106.471C170.385 106.669 172.852 106.383 175.194 105.631C176.537 105.101 178.011 105 179.414 105.341C180.034 105.441 180.744 105.551 181.624 105.611H181.844C184.704 105.811 185.414 105.931 186.344 108.811C186.517 109.347 186.656 109.842 186.778 110.274L186.814 110.401C187.304 112.251 187.434 112.511 188.384 112.401H188.734C190.284 112.211 190.694 112.191 191.734 112.851L191.74 112.854C192.78 113.514 194.237 114.439 195.944 113.781C196.364 113.568 196.828 113.457 197.299 113.457C197.77 113.457 198.234 113.568 198.654 113.781C199.346 114.064 200.072 114.259 200.814 114.361C201.78 114.549 202.78 114.455 203.694 114.091C204.597 113.721 205.372 113.095 205.924 112.291C206.921 111.386 208.122 110.734 209.424 110.391C210.351 110.166 211.212 109.724 211.934 109.101C212.144 108.76 212.331 108.406 212.494 108.041C212.699 107.402 213.046 106.818 213.508 106.331C213.971 105.845 214.536 105.469 215.164 105.231C216.239 104.891 217.16 104.183 217.764 103.231C217.83 103.149 217.896 103.064 217.964 102.978C218.111 102.792 218.266 102.596 218.444 102.391C218.956 101.609 219.289 100.725 219.418 99.7996C219.548 98.8746 219.471 97.9324 219.194 97.0406C219.013 96.7772 218.916 96.4652 218.916 96.1456C218.916 95.826 219.013 95.5139 219.194 95.2506C219.664 94.7306 220.464 94.6206 221.664 94.9406C223.354 95.3706 225.794 94.7406 226.664 93.0606C227.534 91.3806 229.244 91.7506 230.384 92.0006C230.783 92.1177 231.198 92.1684 231.614 92.1506Z" fill="#F4F7F7"/>
<path d="M31.2797 111.033C31.2797 111.312 31.197 111.584 31.0419 111.816C30.8868 112.048 30.6664 112.228 30.4085 112.335C30.1506 112.442 29.8668 112.47 29.593 112.415C29.3193 112.361 29.0678 112.227 28.8704 112.03C28.673 111.832 28.5386 111.581 28.4842 111.308C28.4297 111.035 28.4576 110.751 28.5645 110.494C28.6713 110.236 28.8522 110.016 29.0843 109.861C29.3164 109.706 29.5893 109.624 29.8684 109.624C30.2427 109.624 30.6017 109.772 30.8664 110.037C31.131 110.301 31.2797 110.659 31.2797 111.033Z" fill="#DCDBDB"/>
<path d="M53.4421 83.7447C53.4421 84.1416 53.3242 84.5297 53.1033 84.8598C52.8824 85.1898 52.5685 85.4471 52.2012 85.599C51.8339 85.7509 51.4297 85.7907 51.0398 85.7132C50.6499 85.6358 50.2917 85.4446 50.0106 85.1639C49.7295 84.8832 49.5381 84.5256 49.4605 84.1362C49.3829 83.7469 49.4228 83.3433 49.5749 82.9766C49.727 82.6098 49.9847 82.2963 50.3152 82.0758C50.6458 81.8552 51.0344 81.7375 51.432 81.7375C51.9651 81.7375 52.4764 81.949 52.8533 82.3254C53.2303 82.7018 53.4421 83.2123 53.4421 83.7447Z" fill="#DCDBDB"/>
<path d="M162.426 45.7374C162.426 46.4321 162.22 47.1112 161.833 47.6888C161.447 48.2664 160.897 48.7167 160.254 48.9825C159.612 49.2484 158.904 49.3179 158.222 49.1824C157.54 49.0468 156.913 48.7123 156.421 48.2211C155.929 47.7299 155.594 47.104 155.458 46.4227C155.322 45.7413 155.392 45.0351 155.658 44.3932C155.925 43.7514 156.376 43.2029 156.954 42.8169C157.532 42.4309 158.213 42.225 158.908 42.225C159.841 42.225 160.736 42.595 161.396 43.2537C162.055 43.9124 162.426 44.8058 162.426 45.7374Z" fill="#DCDBDB"/>
<path d="M78.2492 90.1192C78.2492 90.835 78.0366 91.5348 77.6383 92.1299C77.2401 92.7251 76.674 93.189 76.0117 93.4629C75.3494 93.7369 74.6206 93.8085 73.9175 93.6689C73.2144 93.5292 72.5685 93.1845 72.0616 92.6784C71.5547 92.1722 71.2095 91.5274 71.0696 90.8253C70.9298 90.1232 71.0016 89.3955 71.2759 88.7342C71.5503 88.0729 72.0148 87.5076 72.6109 87.1099C73.207 86.7123 73.9077 86.5 74.6246 86.5C75.5859 86.5 76.5078 86.8813 77.1876 87.56C77.8673 88.2388 78.2492 89.1593 78.2492 90.1192Z" fill="#DCDBDB"/>
<path d="M73.1911 32.1573C73.1911 32.5332 73.0795 32.9006 72.8704 33.2131C72.6612 33.5256 72.364 33.7692 72.0163 33.913C71.6685 34.0568 71.2858 34.0945 70.9166 34.0211C70.5475 33.9478 70.2084 33.7669 69.9422 33.5011C69.676 33.2353 69.4948 32.8967 69.4213 32.528C69.3479 32.1594 69.3856 31.7773 69.5296 31.4301C69.6737 31.0828 69.9176 30.786 70.2306 30.5772C70.5436 30.3684 70.9115 30.2569 71.2879 30.2569C71.7927 30.2569 72.2768 30.4572 72.6337 30.8136C72.9906 31.1699 73.1911 31.6533 73.1911 32.1573Z" fill="#DCDBDB"/>
<path d="M112.217 17.0825C112.217 17.4583 112.105 17.8258 111.896 18.1383C111.687 18.4508 111.389 18.6943 111.042 18.8382C110.694 18.982 110.311 19.0196 109.942 18.9463C109.573 18.873 109.234 18.692 108.968 18.4262C108.701 18.1605 108.52 17.8219 108.447 17.4532C108.373 17.0846 108.411 16.7025 108.555 16.3552C108.699 16.008 108.943 15.7112 109.256 15.5024C109.569 15.2936 109.937 15.1821 110.313 15.1821C110.818 15.1821 111.302 15.3823 111.659 15.7387C112.016 16.0951 112.217 16.5785 112.217 17.0825Z" fill="#DCDBDB"/>
<path d="M192.588 75.2785C192.588 75.6544 192.476 76.0218 192.267 76.3343C192.058 76.6468 191.761 76.8904 191.413 77.0342C191.065 77.1781 190.682 77.2157 190.313 77.1424C189.944 77.069 189.605 76.888 189.339 76.6223C189.073 76.3565 188.891 76.0179 188.818 75.6493C188.744 75.2806 188.782 74.8985 188.926 74.5513C189.07 74.204 189.314 73.9072 189.627 73.6984C189.94 73.4896 190.308 73.3782 190.684 73.3782C191.189 73.3782 191.673 73.5784 192.03 73.9347C192.387 74.2911 192.588 74.7745 192.588 75.2785Z" fill="#DCDBDB"/>
</svg>
