<svg width="159" height="187" viewBox="0 0 159 187" fill="none" xmlns="http://www.w3.org/2000/svg">
<path fill-rule="evenodd" clip-rule="evenodd" d="M14.6741 157.557C14.7184 158.65 15.0759 159.706 15.7038 160.601C17.0038 162.201 16.8938 166.471 16.1738 168.801C15.5938 170.801 15.7938 177.671 15.9038 180.801C17.2908 180.861 18.6513 181.202 19.9038 181.801C22.1035 182.86 22.6337 182.421 23.5135 181.691L23.5138 181.691C24.3637 180.905 25.4362 180.402 26.5838 180.251C27.0972 180.128 27.6353 180.157 28.1325 180.334C28.6297 180.512 29.0645 180.83 29.3838 181.251C29.6073 181.544 29.8967 181.779 30.2286 181.939C30.5605 182.099 30.9255 182.178 31.2938 182.171C32.2006 182.187 33.1071 182.127 34.0038 181.991C34.7365 181.888 35.4742 181.824 36.2138 181.801H36.9038C38.7854 182.135 40.4869 183.127 41.7038 184.601L41.7183 184.615C42.8614 185.748 43.7602 186.639 45.2838 186.311C46.6438 186.011 46.8538 184.831 47.0338 183.061C47.0419 182.963 47.0566 182.866 47.0713 182.769C47.0926 182.627 47.1138 182.487 47.1138 182.351C47.1445 181.812 47.1109 181.271 47.0138 180.741C46.7734 179.533 46.9102 178.281 47.4057 177.154C47.9013 176.027 48.7315 175.08 49.7838 174.441C50.8838 173.591 51.4038 173.141 51.0538 172.051C50.8237 171.473 50.7279 170.851 50.7738 170.231C50.8259 169.598 51.0208 168.986 51.3438 168.441C52.8938 166.561 55.5238 168.021 57.6438 169.201C58.4642 169.74 59.3656 170.145 60.3138 170.401C60.828 170.503 61.3613 170.446 61.8421 170.237C62.3229 170.028 62.7283 169.677 63.0038 169.231C63.5877 168.487 64.4303 167.991 65.3638 167.841C67.9807 167.447 68.5167 169.551 68.9999 171.447L69.0238 171.541L69.0292 171.562C69.4375 173.145 69.86 174.784 71.2638 175.471L71.4638 175.571L71.5433 175.61C72.7645 176.21 74.1438 176.887 74.1438 178.571C74.1236 178.716 74.1355 178.863 74.1787 179.003C74.2219 179.143 74.2953 179.272 74.3938 179.381C74.7776 179.697 75.7694 179.498 76.7325 179.305L76.8538 179.281C77.5519 179.108 78.2654 179.004 78.9838 178.971C79.6507 178.986 80.303 178.775 80.8338 178.371C81.7238 177.771 82.4238 177.521 84.0438 178.771C84.7485 179.369 85.5959 179.776 86.5038 179.951C86.3925 179.498 86.2175 179.064 85.9838 178.661C85.809 178.339 85.6586 178.005 85.5338 177.661L85.4238 177.261C85.0138 175.721 84.4238 173.401 85.4238 172.311C85.7322 172.041 86.1063 171.857 86.5084 171.778C86.9104 171.699 87.3262 171.728 87.7138 171.861L88.4138 172.031C90.0238 172.451 90.9638 172.591 91.5638 170.781C92.4376 168.371 94.1198 166.339 96.3238 165.031C96.8057 164.769 97.2234 164.404 97.5469 163.961C97.8703 163.518 98.0912 163.009 98.1938 162.471C98.4249 161.504 98.8652 160.599 99.4838 159.821C100.561 158.434 100.434 158.102 99.8381 156.542L99.8338 156.531L99.7538 156.321C98.2038 152.071 98.5038 151.321 99.6138 150.501C99.8725 150.34 100.095 150.127 100.267 149.876C100.439 149.624 100.557 149.34 100.614 149.041C100.702 148.732 100.705 148.406 100.623 148.096C100.54 147.785 100.374 147.504 100.144 147.281C99.8664 147.002 99.6726 146.65 99.5842 146.267C99.4959 145.883 99.5165 145.483 99.6438 145.111C99.8243 144.664 100.128 144.277 100.519 143.996C100.91 143.715 101.373 143.55 101.854 143.521L101.866 143.518C102.849 143.309 103.503 143.171 103.344 140.891C103.184 138.911 102.954 134.851 107.184 134.281L108.084 134.141L108.195 134.124C110.681 133.76 112.934 133.431 115.614 134.771C117.928 135.77 120.434 136.248 122.954 136.171C124.234 136.181 125.444 136.301 126.614 136.421C127.779 136.556 128.951 136.633 130.124 136.651C131.665 136.691 133.178 137.074 134.554 137.771C137.944 139.121 138.764 138.641 140.244 137.771C140.424 137.678 140.598 137.582 140.777 137.483C140.927 137.401 141.08 137.317 141.244 137.231L141.52 137.774C141.56 137.753 141.601 137.731 141.642 137.71C141.649 137.71 141.656 137.709 141.664 137.709C142.312 137.384 142.992 137.127 143.694 136.941C144.408 136.756 145.132 136.615 145.864 136.521C145.91 136.513 145.957 136.506 146.003 136.499C147.569 136.257 149.151 136.012 149.734 135.041C149.908 134.654 149.998 134.235 149.998 133.811C149.998 133.387 149.908 132.967 149.734 132.581C149.427 131.604 149.427 130.557 149.734 129.581C149.904 129.061 149.931 128.505 149.814 127.971C149.656 127.399 149.294 127.245 148.834 127.049L148.814 127.041C147.944 126.681 147.194 126.191 147.814 124.311L147.984 123.821C148.144 123.327 148.24 123.031 148.244 122.735C148.248 122.293 148.047 121.848 147.544 120.741C147.108 119.904 146.811 119.002 146.664 118.071C146.424 115.691 143.544 114.301 141.844 113.691C139.914 113.001 139.834 112.101 139.914 111.161C139.974 110.501 140.014 110.021 138.454 109.411L138.154 109.281C137.982 109.213 137.814 109.133 137.654 109.041L137.544 108.961C136.204 107.931 135.544 106.971 135.544 106.021C135.524 104.711 136.604 103.811 137.604 103.021C137.69 102.949 137.768 102.886 137.843 102.825C138.039 102.668 138.215 102.526 138.454 102.281C138.784 101.941 138.924 101.661 138.924 101.461C138.864 101.081 138.014 100.661 137.344 100.331C136.512 100.031 135.786 99.496 135.254 98.7906C134.564 97.4406 134.374 96.5006 134.684 95.7906C135.069 94.8827 136.087 94.5883 137.276 94.2443L137.324 94.2306C138.251 94.0263 139.143 93.6895 139.974 93.2306C140.385 93.0159 140.747 92.7156 141.033 92.35C141.319 91.9844 141.524 91.5618 141.634 91.1106C141.802 90.4808 142.124 89.9027 142.571 89.428C143.018 88.9533 143.575 88.5968 144.194 88.3906C144.597 88.2444 144.94 87.9688 145.17 87.607C145.399 87.2452 145.503 86.8174 145.464 86.3906C145.354 85.7006 144.704 85.2406 143.704 85.1206C141.114 84.7906 140.964 83.0406 140.874 81.9006C140.784 80.7606 140.734 80.2206 139.304 80.2206C138.588 80.3083 137.892 80.5144 137.244 80.8306L137.184 80.8544C136.073 81.2972 134.928 81.7534 134.034 81.3506C133.81 81.2451 133.61 81.0948 133.447 80.909C133.283 80.7233 133.16 80.506 133.084 80.2706C132.579 78.8078 132.479 77.2357 132.794 75.7206C132.91 75.2575 132.857 74.768 132.644 74.3406C132.567 74.2417 132.47 74.1597 132.36 74.0995C132.25 74.0393 132.129 74.0022 132.004 73.9906C131.619 73.9541 131.231 73.9777 130.854 74.0606C130.497 74.1974 130.115 74.2557 129.734 74.2315C129.352 74.2074 128.98 74.1013 128.644 73.9206C128.463 73.758 128.321 73.5566 128.23 73.3314C128.138 73.1063 128.098 72.8633 128.114 72.6206C128.114 68.5506 131.924 66.8506 134.694 65.6206L134.824 65.5606C136.563 64.9292 138.424 64.7035 140.264 64.9006C142.024 64.9706 143.554 65.0306 144.804 64.1006C146.774 62.6706 149.534 57.6306 150.404 55.4406C150.665 54.7833 150.877 54.0693 151.085 53.3715C151.108 53.2943 151.131 53.2173 151.154 53.1406C151.451 51.9793 151.863 50.8505 152.384 49.7706C152.775 49.0466 153.255 48.3746 153.814 47.7706C154.421 47.2156 154.87 46.5092 155.114 45.7238C155.358 44.9383 155.389 44.102 155.204 43.3006C154.714 40.0306 155.224 39.2506 156.424 37.7806C156.829 37.3003 157.209 36.7996 157.564 36.2806C158.614 34.7106 158.104 33.1906 156.034 31.7806C154.244 30.5606 151.684 27.7606 151.954 25.0406C152.164 22.9406 151.084 21.3006 149.664 19.3006L148.994 18.3006C148.944 18.2275 148.894 18.1545 148.845 18.0818C147.914 16.7124 147.042 15.4299 145.134 14.8506C143.132 14.243 142.915 12.8419 142.706 11.4869L142.704 11.4706C142.652 11.0563 142.575 10.6455 142.474 10.2406C142.189 9.41734 141.799 8.63422 141.314 7.91061C141.088 7.58776 140.877 7.25403 140.684 6.91061C138.634 3.63061 136.924 1.44062 135.924 0.630615C134.819 2.4794 133.18 3.95054 131.224 4.85062L130.884 4.98061L130.838 4.99774C128.187 5.98334 127.559 6.21683 123.194 5.56062C120.394 5.13062 119.754 6.59062 119.194 7.88062C119.03 8.43223 118.706 8.9229 118.264 9.29062C117.761 9.57198 117.339 9.97669 117.036 10.4666C116.733 10.9565 116.561 11.5154 116.534 12.0906C116.723 13.7696 116.274 15.4584 115.274 16.8206C114.94 17.2968 114.511 17.6985 114.014 18.0006L114.01 18.0028C113.502 18.3415 113.183 18.5542 113.014 20.1906C112.92 20.9894 112.94 21.7975 113.074 22.5906C113.303 24.0076 113.169 25.4597 112.684 26.8106C112.432 27.4407 112.318 28.1173 112.349 28.7951C112.38 29.4729 112.555 30.1362 112.864 30.7406C113.251 31.5428 113.498 32.4052 113.594 33.2906C113.914 36.3806 113.854 37.2706 110.474 39.7206C107.274 42.0306 107.164 43.1906 107.224 47.1906C107.283 50.0413 105.705 51.6982 104.312 53.1609L104.284 53.1906C103.591 53.83 103.01 54.5803 102.564 55.4106C102.379 55.8024 102.332 56.2454 102.432 56.667C102.532 57.0886 102.773 57.4636 103.114 57.7306C103.503 58.079 103.995 58.2925 104.516 58.3393C105.036 58.3862 105.558 58.2639 106.004 57.9906C106.543 57.6348 107.155 57.4027 107.794 57.3111C108.434 57.2195 109.086 57.2705 109.704 57.4606C110.482 57.7201 111.195 58.1424 111.797 58.6994C112.399 59.2563 112.875 59.9352 113.194 60.6906C114.33 63.0336 114.718 65.6697 114.304 68.2406C114.074 69.9106 113.884 71.2406 111.964 72.1006C111.39 72.3686 110.774 72.5344 110.144 72.5906C109.67 72.6133 109.214 72.7769 108.834 73.0606C107.444 74.0306 105.464 73.6706 102.374 72.9606C102.03 72.8982 101.702 72.7657 101.411 72.5713C101.121 72.3769 100.873 72.1248 100.684 71.8306C99.8973 70.5862 100.35 68.7769 100.679 67.4584L100.684 67.4406C100.774 67.1113 100.848 66.7775 100.904 66.4406C100.97 66.0888 101.116 65.757 101.331 65.4708C101.546 65.1847 101.824 64.9519 102.144 64.7906C102.901 64.2528 102.854 64.1713 102.735 63.9631L102.734 63.9606C102.422 63.5041 102.041 63.0992 101.604 62.7606C100.826 62.217 100.252 61.4284 99.9738 60.5206C99.9585 60.2606 99.8758 60.009 99.7338 59.7906C99.6038 59.5918 99.4247 59.4299 99.2138 59.3206C98.9996 59.2137 98.7632 59.1589 98.5238 59.1606C98.2873 59.1704 98.057 59.2391 97.8538 59.3606C97.4738 59.5806 97.3538 59.9106 97.1638 60.4606C97.0333 61.0388 96.7458 61.5697 96.3329 61.9949C95.9201 62.4202 95.3979 62.7232 94.8238 62.8706C92.2938 63.6706 89.9638 63.5006 88.5838 62.4206C88.2943 62.1707 87.9461 61.9983 87.5718 61.9196C87.1976 61.8409 86.8094 61.8584 86.4438 61.9706C85.8438 62.2606 85.7238 63.0806 85.7238 63.7106C85.7832 64.6938 85.602 65.6766 85.196 66.5739C84.79 67.4713 84.1714 68.2562 83.3938 68.8606L82.8538 69.4006C82.7896 69.4634 82.7233 69.5286 82.6549 69.5959C81.2088 71.0183 78.8304 73.3576 76.4338 72.8706C75.5122 72.645 74.6669 72.1792 73.9838 71.5206C73.3031 70.8105 72.3845 70.3762 71.4038 70.3006C69.2538 70.1906 67.8738 71.1506 66.2538 72.8406C65.0209 74.1133 66.1211 77.0864 66.4974 78.1033L66.5038 78.1206V78.2306C66.9255 79.04 67.1708 79.9295 67.2238 80.8406C67.2926 81.7738 67.1631 82.711 66.8438 83.5906C66.638 84.1079 66.2924 84.5576 65.8456 84.8897C65.3988 85.2217 64.8684 85.4228 64.3138 85.4706C63.3923 85.6186 62.4486 85.5373 61.5661 85.2338C60.6835 84.9303 59.8894 84.414 59.2538 83.7306C57.9038 82.0406 54.2238 84.3306 53.3238 85.0406C52.4238 85.7506 51.6038 86.3606 50.8138 86.9406C49.5338 87.8906 48.3038 88.8106 46.9338 90.0006C45.5638 91.1906 42.8238 91.6606 41.8238 90.5406C41.4238 90.1106 41.4238 90.1106 40.7738 90.2206L40.7736 90.2206C40.4436 90.2806 40.0037 90.3606 39.3738 90.4406C37.1238 90.7006 36.7838 88.7406 36.5838 87.5706C36.5458 87.2937 36.489 87.0198 36.4138 86.7506C36.2067 86.1857 35.8632 85.6807 35.4138 85.2806C34.9669 84.8724 34.4284 84.5774 33.8438 84.4206C32.7538 84.0306 32.1438 84.4506 31.1438 85.3506C30.8038 85.6406 30.4138 85.9706 29.9738 86.2806C28.1238 87.5906 25.3938 87.0506 24.1238 86.4006L23.4738 86.0606C23.0946 85.7715 22.6607 85.5621 22.1984 85.4452C21.7361 85.3284 21.2548 85.3064 20.7838 85.3806C20.2988 85.5088 19.8293 85.6899 19.3838 85.9206C18.4238 86.4806 17.3074 86.7123 16.2038 86.5806C15.6306 86.4879 15.0442 86.5186 14.4838 86.6706C13.7092 86.8958 12.8814 86.8535 12.1338 86.5506L11.8538 86.4506C11.0638 86.1406 11.0638 86.1406 10.4238 86.6006C10.333 86.6611 10.2377 86.7262 10.1352 86.7961C9.9329 86.9342 9.70258 87.0914 9.42379 87.2706C9.03841 87.5368 8.60342 87.7226 8.14471 87.8171C7.686 87.9116 7.21297 87.9128 6.75379 87.8206C5.56988 87.5174 4.54883 86.7686 3.90379 85.7306C3.10379 84.5006 2.74379 84.3906 1.20379 84.0906C0.773786 84.0106 0.603787 84.1706 0.603787 84.1706C0.413787 84.3306 0.173787 85.0506 0.713787 87.3306C0.838149 87.8612 0.962511 88.3368 1.07548 88.7689C1.09876 88.8579 1.12157 88.9452 1.14379 89.0306C1.49342 90.0992 1.67229 91.2163 1.67379 92.3406C1.46209 94.2955 1.57358 96.2719 2.00379 98.1906C2.6954 101.062 3.22292 103.97 3.58379 106.901C3.75379 108.181 4.15379 110.471 4.58379 112.901L4.59076 112.94C5.14859 116.118 5.7242 119.397 5.82379 120.901C5.91379 122.171 7.07379 124.801 8.19379 127.331C9.18994 129.308 9.96142 131.391 10.4938 133.541C10.6418 134.721 10.869 135.891 11.1738 137.041L11.2096 137.187C11.4109 138.01 11.6379 138.939 11.8738 140.241C12.3438 142.831 13.0638 146.741 14.6338 147.671C16.5938 148.831 16.9538 151.801 15.4538 154.441C14.9004 155.383 14.6298 156.465 14.6741 157.557Z" fill="#F4F7F7"/>
<path d="M37.0035 141.124C37.0035 141.462 36.9031 141.792 36.7152 142.073C36.5272 142.354 36.26 142.573 35.9474 142.702C35.6348 142.831 35.2909 142.865 34.959 142.799C34.6272 142.733 34.3223 142.571 34.0831 142.332C33.8438 142.093 33.6809 141.788 33.6149 141.457C33.5489 141.126 33.5828 140.782 33.7123 140.47C33.8417 140.158 34.061 139.891 34.3423 139.703C34.6237 139.516 34.9544 139.416 35.2928 139.416C35.5174 139.416 35.7399 139.46 35.9474 139.546C36.155 139.631 36.3436 139.757 36.5024 139.916C36.6613 140.074 36.7873 140.263 36.8733 140.47C36.9592 140.677 37.0035 140.899 37.0035 141.124Z" fill="#DCDBDB"/>
<path d="M40.4136 119.825C40.4136 120.163 40.3133 120.493 40.1253 120.774C39.9373 121.055 39.6702 121.274 39.3576 121.403C39.045 121.532 38.701 121.566 38.3692 121.5C38.0373 121.434 37.7325 121.272 37.4932 121.033C37.254 120.794 37.0911 120.49 37.0251 120.158C36.9591 119.827 36.9929 119.483 37.1224 119.171C37.2519 118.859 37.4712 118.592 37.7525 118.405C38.0338 118.217 38.3646 118.117 38.7029 118.117C38.9276 118.117 39.15 118.161 39.3576 118.247C39.5651 118.333 39.7537 118.458 39.9126 118.617C40.0714 118.776 40.1974 118.964 40.2834 119.171C40.3694 119.378 40.4136 119.601 40.4136 119.825Z" fill="#DCDBDB"/>
<path d="M116.529 103.373C116.529 103.905 116.371 104.425 116.075 104.868C115.779 105.31 115.358 105.655 114.866 105.858C114.374 106.062 113.832 106.115 113.309 106.011C112.787 105.908 112.307 105.651 111.93 105.275C111.553 104.899 111.296 104.42 111.192 103.898C111.088 103.376 111.142 102.835 111.346 102.343C111.55 101.852 111.895 101.431 112.338 101.136C112.781 100.84 113.302 100.682 113.835 100.682C114.189 100.682 114.539 100.752 114.866 100.887C115.193 101.022 115.49 101.221 115.74 101.47C115.99 101.72 116.189 102.017 116.324 102.343C116.46 102.67 116.529 103.019 116.529 103.373Z" fill="#DCDBDB"/>
<path d="M91.2755 73.7571C91.2755 74.2892 91.1175 74.8093 90.8214 75.2518C90.5253 75.6942 90.1045 76.039 89.6122 76.2427C89.1199 76.4463 88.5781 76.4996 88.0555 76.3958C87.5328 76.292 87.0527 76.0357 86.6759 75.6595C86.2991 75.2832 86.0425 74.8038 85.9385 74.2819C85.8345 73.7601 85.8879 73.2191 86.0918 72.7275C86.2957 72.2359 86.6411 71.8157 87.0842 71.5201C87.5273 71.2244 88.0482 71.0667 88.5811 71.0667C89.2957 71.0667 89.981 71.3501 90.4863 71.8547C90.9916 72.3592 91.2755 73.0435 91.2755 73.7571Z" fill="#DCDBDB"/>
<path d="M91.3185 149.985C91.3185 150.353 91.2094 150.712 91.0049 151.017C90.8005 151.323 90.51 151.561 90.17 151.701C89.8301 151.842 89.456 151.879 89.0951 151.807C88.7342 151.735 88.4027 151.558 88.1426 151.299C87.8824 151.039 87.7052 150.708 87.6334 150.348C87.5616 149.987 87.5985 149.614 87.7393 149.274C87.8801 148.935 88.1185 148.645 88.4245 148.441C88.7304 148.236 89.0901 148.127 89.4581 148.127C89.7024 148.127 89.9443 148.176 90.17 148.269C90.3957 148.362 90.6008 148.499 90.7736 148.672C90.9463 148.844 91.0834 149.049 91.1769 149.274C91.2704 149.5 91.3185 149.741 91.3185 149.985Z" fill="#DCDBDB"/>
<path d="M115.693 73.757C115.693 74.1244 115.584 74.4835 115.38 74.789C115.176 75.0945 114.885 75.3326 114.545 75.4732C114.205 75.6138 113.831 75.6506 113.47 75.5789C113.109 75.5072 112.778 75.3303 112.518 75.0705C112.257 74.8107 112.08 74.4797 112.008 74.1194C111.937 73.759 111.973 73.3855 112.114 73.0461C112.255 72.7066 112.494 72.4165 112.799 72.2124C113.105 72.0083 113.465 71.8993 113.833 71.8993C114.077 71.8993 114.319 71.9474 114.545 72.0407C114.771 72.1341 114.976 72.2709 115.149 72.4434C115.321 72.6159 115.458 72.8207 115.552 73.0461C115.645 73.2714 115.693 73.513 115.693 73.757Z" fill="#DCDBDB"/>
<path d="M127.884 11.3439C127.884 11.6437 127.795 11.9368 127.628 12.1862C127.461 12.4355 127.224 12.6298 126.947 12.7445C126.67 12.8593 126.364 12.8893 126.07 12.8308C125.775 12.7723 125.505 12.6279 125.292 12.4159C125.08 12.2039 124.935 11.9337 124.877 11.6397C124.818 11.3456 124.848 11.0408 124.963 10.7637C125.078 10.4867 125.273 10.2499 125.522 10.0834C125.772 9.91678 126.066 9.82788 126.366 9.82788C126.769 9.82788 127.155 9.9876 127.439 10.2719C127.724 10.5562 127.884 10.9418 127.884 11.3439Z" fill="#DCDBDB"/>
<path d="M149.568 26.6857C149.568 26.9855 149.479 27.2786 149.312 27.528C149.145 27.7773 148.908 27.9716 148.631 28.0863C148.353 28.2011 148.048 28.2311 147.753 28.1726C147.459 28.1141 147.188 27.9697 146.976 27.7577C146.764 27.5457 146.619 27.2755 146.56 26.9815C146.502 26.6874 146.532 26.3826 146.647 26.1055C146.762 25.8285 146.956 25.5918 147.206 25.4252C147.456 25.2586 147.749 25.1697 148.05 25.1697C148.452 25.1697 148.838 25.3294 149.123 25.6137C149.408 25.898 149.568 26.2836 149.568 26.6857Z" fill="#DCDBDB"/>
</svg>
