<svg width="242" height="160" viewBox="0 0 242 160" fill="none" xmlns="http://www.w3.org/2000/svg">
<path fill-rule="evenodd" clip-rule="evenodd" d="M0.673279 93.1506L0.503281 93.5006C0.461082 93.5734 0.414323 93.6436 0.363281 93.7106C1.43328 94.5206 3.00328 96.5006 5.00328 99.6106C5.28188 99.159 5.61803 98.7455 6.00328 98.3806C6.60547 97.8255 7.31749 97.403 8.09328 97.1406C9.22935 96.8143 10.4427 96.8849 11.5333 97.3406C12.256 97.5968 13.009 97.7582 13.7733 97.8206C14.4133 97.8806 15.0433 97.9806 15.6133 98.0806H15.7833L15.8296 98.087C17.4778 98.314 18.7848 98.4941 20.0133 97.8006C20.8707 97.3006 21.8878 97.1502 22.8533 97.3806C23.8702 97.6029 24.8281 98.0392 25.6633 98.6606C26.7879 99.4169 26.9517 99.3116 27.7813 98.7783L27.7933 98.7706C28.3344 98.4242 28.9069 98.1296 29.5033 97.8906C29.9007 97.7515 30.2093 97.6025 30.4977 97.4633L30.5033 97.4606L31.0433 97.2106C32.1733 96.6306 33.1333 96.1506 34.5533 97.6306C34.7001 97.7874 34.8571 97.9344 35.0233 98.0706C36.0435 98.8406 37.2334 99.355 38.4933 99.5706C39.0133 99.7206 39.5609 99.748 40.0933 99.6506C40.6083 99.5584 41.0967 99.3535 41.5233 99.0506L41.6233 98.9606C42.0528 98.3465 42.3897 97.6726 42.6233 96.9606C43.1033 95.7406 43.5933 94.5106 44.9933 94.3606C45.8746 94.3257 46.7439 94.5745 47.4733 95.0706C48.1525 95.5009 48.951 95.704 49.7533 95.6506C50.3959 95.5516 51.0534 95.6565 51.6333 95.9506C51.8927 96.068 52.1119 96.2593 52.2633 96.5006C52.4347 96.7016 52.5302 96.9564 52.5333 97.2206C52.5592 97.6311 52.458 98.0397 52.2433 98.3906C51.7841 99.4668 51.7168 100.67 52.0533 101.791C52.2983 102.874 52.959 103.819 53.8933 104.421C54.6365 104.914 55.4803 105.235 56.3633 105.361C57.164 105.454 57.9296 105.743 58.5933 106.201C59.0439 106.497 59.5151 106.761 60.0033 106.991C60.9064 107.324 61.7183 107.865 62.3733 108.571C63.041 109.32 63.5119 110.224 63.7433 111.201C64.4828 113.809 65.0326 114.01 66.3407 114.49L66.3433 114.491L66.5633 114.581C67.0218 114.757 67.4692 114.961 67.9033 115.191C68.4911 115.484 69.1227 115.68 69.7733 115.771C71.1833 116.011 71.7733 116.501 71.7733 118.921C71.833 122.006 71.9125 122.08 73.0961 123.185L73.1133 123.201L73.2833 123.351C73.4933 123.541 73.7333 123.761 74.0233 124.061C74.9289 125.011 76.004 125.784 77.1933 126.341C78.351 126.843 79.6321 126.989 80.8733 126.761C82.3762 126.563 83.9005 126.597 85.3933 126.861C85.9474 126.96 86.5106 127.001 87.0733 126.981C87.4942 126.956 87.9166 126.976 88.3333 127.041C89.7468 127.27 91.1964 127.093 92.5133 126.531L93.5133 126.081C95.5533 125.221 97.1533 124.571 98.9733 126.571C99.2987 126.919 99.5955 127.301 99.8854 127.675C99.9785 127.795 100.071 127.914 100.163 128.031L100.703 128.721C101.718 130.218 102.98 131.533 104.433 132.611C104.863 132.931 105.402 133.071 105.933 133.001C106.199 132.973 106.455 132.892 106.689 132.763C106.923 132.634 107.128 132.46 107.293 132.251C108.119 131.333 108.794 130.29 109.293 129.161C109.48 128.698 109.559 128.198 109.523 127.701C109.523 126.161 109.813 125.151 113.723 124.791H114.023C114.27 124.771 114.503 124.753 114.724 124.735C116.936 124.56 117.936 124.481 118.663 124.881C119.463 125.321 119.463 126.041 119.463 127.241V127.241V127.861C119.427 128.446 119.58 129.028 119.898 129.521C120.217 130.014 120.685 130.393 121.233 130.601C122.305 130.956 123.438 131.088 124.563 130.991C125.683 130.991 126.023 131.201 126.403 131.691C126.723 132.203 127.211 132.589 127.783 132.781C128.056 132.903 128.355 132.958 128.653 132.941C128.805 132.918 128.951 132.867 129.083 132.791C129.215 132.709 129.33 132.604 129.423 132.481C129.647 132.166 129.791 131.803 129.843 131.421C129.934 130.782 129.872 130.131 129.663 129.521C129.508 129.111 129.487 128.663 129.603 128.241C129.661 128.017 129.778 127.813 129.943 127.651C130.13 127.476 130.351 127.343 130.593 127.261C131.382 127.072 132.209 127.117 132.973 127.391C134.229 127.715 135.534 127.81 136.823 127.671C137.794 127.7 138.744 127.393 139.513 126.801C139.721 126.581 139.975 126.411 140.257 126.304C140.539 126.196 140.842 126.154 141.143 126.181C141.91 126.156 142.671 126.045 143.413 125.851C144.354 125.53 145.365 125.478 146.333 125.701C146.853 125.881 147.593 126.391 147.283 127.991V128.401V128.531C147.15 128.985 147.096 129.458 147.123 129.931L147.125 129.939C147.175 130.179 147.24 130.497 149.423 130.171C150.033 130.061 150.583 129.941 151.033 129.841L151.613 129.711C152.729 129.375 153.916 129.354 155.043 129.651C155.782 129.785 156.545 129.673 157.213 129.331H157.323C157.638 129.183 157.977 129.092 158.323 129.061C158.582 129.069 158.834 129.146 159.052 129.285C159.27 129.424 159.447 129.62 159.563 129.851C159.676 129.998 159.755 130.169 159.795 130.35C159.835 130.531 159.834 130.719 159.793 130.901C159.737 131.089 159.641 131.263 159.511 131.412C159.382 131.56 159.222 131.679 159.043 131.761C158.967 131.814 158.887 131.861 158.803 131.901L158.643 131.991C157.853 132.461 157.643 132.641 157.693 132.991C157.706 133.21 157.74 133.427 157.793 133.641V133.851C158.103 135.271 158.134 136.738 157.883 138.171C157.704 138.981 157.453 139.774 157.133 140.541C156.644 141.491 156.413 142.553 156.463 143.621C156.576 144.412 156.602 145.213 156.543 146.011C156.452 146.678 156.22 147.319 155.863 147.891C155.524 148.476 155.351 149.144 155.363 149.821C155.396 150.662 155.551 151.494 155.823 152.291C156.052 152.748 156.145 153.262 156.093 153.771C156.048 154.299 155.858 154.804 155.543 155.231L155.463 155.411C155.333 155.661 155.193 155.941 155.043 156.301L154.573 157.301C154.003 158.491 153.823 158.931 154.173 159.491C155.965 158.419 157.659 157.191 159.233 155.821C162.103 153.511 163.953 152.101 164.953 152.101C165.617 152.169 166.257 152.388 166.823 152.741C167.832 153.31 168.943 153.674 170.093 153.811C171.245 153.941 172.411 153.793 173.493 153.381C174.064 153.034 174.594 152.625 175.073 152.161L175.084 152.151C176.181 151.184 177.317 150.182 178.313 150.711C178.923 151.063 179.414 151.588 179.723 152.221C180.162 152.945 180.782 153.541 181.523 153.951C182.056 154.274 182.555 154.649 183.013 155.071C183.345 155.438 183.771 155.709 184.245 155.854C184.718 155.998 185.223 156.011 185.703 155.891C186.041 155.752 186.332 155.521 186.543 155.224C186.753 154.926 186.875 154.575 186.893 154.211C186.935 153.704 186.878 153.195 186.723 152.711C186.476 151.884 186.408 151.015 186.523 150.161C186.793 148.711 187.523 147.781 188.523 147.611C189.35 147.595 190.168 147.773 190.913 148.131C191.697 148.46 192.521 148.685 193.363 148.801C194.06 148.797 194.753 148.699 195.423 148.511C196.572 148.125 197.815 148.125 198.963 148.511C199.85 148.861 200.644 149.412 201.283 150.121L201.292 150.129C201.966 150.823 202.271 151.137 204.113 150.411L204.117 150.409C205.256 149.969 206.805 149.372 208.113 150.641C208.669 151.216 209.327 151.684 210.053 152.021C210.45 152.192 210.881 152.27 211.313 152.251C211.625 152.225 211.928 152.132 212.201 151.979C212.473 151.825 212.71 151.614 212.893 151.361C213.658 150.177 213.937 148.745 213.673 147.361C213.285 144.908 214.953 144.125 216.568 143.368L216.583 143.361C217.108 143.131 217.619 142.87 218.113 142.581C219.877 141.507 221.107 141.976 222.396 142.469L222.453 142.491C223.365 142.889 224.34 143.123 225.333 143.181C226.363 143.273 227.398 143.09 228.333 142.651C230.023 141.683 231.985 141.303 233.913 141.571C234.385 141.699 234.881 141.705 235.355 141.587C235.829 141.47 236.266 141.234 236.623 140.901C237.773 139.829 238.739 138.575 239.483 137.191C239.802 135.902 239.95 134.577 239.923 133.251L239.925 133.21C240.034 130.775 240.138 128.476 240.923 127.571C241.317 127.136 241.559 126.585 241.613 126.001C241.674 125.421 241.552 124.837 241.263 124.331C241.123 124.151 239.923 123.771 237.503 124.561C236.992 124.764 236.439 124.842 235.891 124.788C235.343 124.734 234.816 124.55 234.353 124.251C233.821 123.81 233.398 123.252 233.119 122.621C232.839 121.989 232.711 121.301 232.743 120.611C232.673 118.356 231.867 117.903 230.752 117.275L230.743 117.271L230.363 117.051C229.937 116.78 229.527 116.486 229.133 116.171C228.776 115.875 228.404 115.599 228.02 115.343C227.201 114.881 226.137 114.394 224.5 113.89C223.635 113.624 223.021 113.161 222.603 112.59C222.28 112.268 222.013 111.893 221.813 111.481C221.583 110.806 221.493 110.092 221.55 109.381C221.607 108.671 221.809 107.98 222.143 107.351C222.27 107.09 222.408 106.829 222.55 106.564C222.588 106.493 222.625 106.422 222.663 106.351L222.703 106.273C223.409 104.901 224.085 103.587 223.663 101.811C222.963 98.8306 224.183 98.4906 227.113 97.6906C227.76 97.5962 228.348 97.2647 228.763 96.7606C229.003 96.3206 228.803 95.6706 228.533 94.8506C228.453 94.5906 228.373 94.3206 228.293 94.0306C228.188 93.7453 228.145 93.441 228.165 93.1378C228.186 92.8345 228.271 92.539 228.413 92.2706C228.696 91.9437 229.042 91.6777 229.43 91.4886C229.819 91.2995 230.242 91.1913 230.673 91.1706C230.862 91.1412 231.049 91.1011 231.233 91.0506C231.434 91.0278 231.628 90.9614 231.801 90.856C231.973 90.7507 232.121 90.6089 232.233 90.4406C232.342 90.1603 232.394 89.8611 232.385 89.5605C232.377 89.2599 232.308 88.9641 232.183 88.6906C231.965 88.0801 231.655 87.5068 231.263 86.9906C230.721 86.3158 230.351 85.5198 230.183 84.6706C230.133 84.1952 230.133 83.7159 230.183 83.2406C230.293 82.724 230.258 82.1871 230.081 81.6894C229.905 81.1916 229.594 80.7525 229.183 80.4206C227.243 78.6806 226.273 76.6206 225.343 73.8806C224.969 72.873 224.291 72.0064 223.403 71.4006C222.891 71.0686 222.45 70.6375 222.106 70.1326C221.763 69.6277 221.524 69.0592 221.403 68.4606C221.093 66.4606 222.663 64.9306 224.193 63.4606C224.865 62.8564 225.475 62.1863 226.013 61.4606C226.883 60.1906 226.073 58.6906 225.353 57.3706C225.065 56.889 224.833 56.3756 224.663 55.8406C224.556 54.9141 224.76 53.9782 225.243 53.1806C225.612 52.5018 225.846 51.7582 225.933 50.9906V50.6506L225.934 50.635C226.004 48.9133 226.121 46.0458 225.273 44.4506C224.523 43.0306 223.803 42.8006 220.803 44.1806C220.331 44.4706 219.788 44.6242 219.233 44.6242C218.679 44.6242 218.136 44.4706 217.663 44.1806C217.215 43.7922 216.873 43.2973 216.666 42.7416C216.46 42.1858 216.397 41.5871 216.483 41.0006C216.502 40.8524 216.488 40.7018 216.441 40.5599C216.395 40.418 216.317 40.2884 216.213 40.1806C215.251 39.5893 214.096 39.3957 212.993 39.6406C212.673 39.7104 212.341 39.7109 212.02 39.6419C211.699 39.5729 211.397 39.4361 211.133 39.2406C210.389 38.6151 210.334 37.4673 210.265 36.0123L210.263 35.9806V35.1706C210.143 33.0734 208.787 32.7813 207.349 32.4718L207.343 32.4706L207.003 32.3906C205.493 32.0606 204.973 31.8406 204.053 29.3906C203.403 27.6806 202.913 27.6206 201.253 27.4506C200.933 27.4206 200.573 27.3806 200.173 27.3206C198.486 27.0638 196.876 26.4427 195.453 25.5006L194.453 24.9406L194.113 24.7506L194.112 24.7499C192.423 23.8104 191.723 23.421 189.983 25.0906C187.816 27.1884 185.139 25.8333 183.538 25.023L183.533 25.0206L183.003 24.7606C181.513 24.0406 180.503 23.9206 178.083 24.9906C177.137 25.345 176.292 25.9274 175.624 26.6861C174.956 27.4448 174.485 28.3566 174.253 29.3406C174.182 29.7034 174.034 30.0467 173.818 30.347C173.603 30.6473 173.325 30.8975 173.003 31.0806C172.489 31.2904 171.937 31.3933 171.382 31.383C170.827 31.3727 170.279 31.2494 169.773 31.0206C168.563 30.6206 167.203 31.2606 166.003 31.8306L165.293 32.1606C163.714 32.9284 162.373 34.1104 161.413 35.5806C160.483 36.9406 159.503 38.2306 158.413 38.3906C158.173 38.4276 157.927 38.411 157.693 38.3418C157.46 38.2726 157.245 38.1527 157.063 37.9906C155.844 37.0293 154.685 35.994 153.593 34.8906C151.833 33.1906 150.473 30.2606 150.833 28.8906C151.089 27.8069 151.486 26.7613 152.013 25.7806C152.222 25.2234 152.36 24.6421 152.423 24.0506L152.445 23.9279C152.688 22.5394 152.957 21.0059 154.113 20.1706C155.299 19.3139 155.174 19.0724 154.501 17.7659L154.493 17.7506C153.973 16.7606 153.473 16.5306 152.133 15.9206C152.002 15.8586 151.861 15.793 151.71 15.723C151.422 15.5899 151.101 15.441 150.753 15.2706C149.293 14.5806 149.283 14.5806 148.623 14.5806C147.911 14.6251 147.196 14.6251 146.483 14.5806C144.347 14.4408 142.719 13.0955 141.281 11.9071L141.273 11.9006C140.58 11.252 139.799 10.7034 138.953 10.2706C137.033 9.48057 134.983 10.7006 133.233 11.9906C132.569 12.4597 131.846 12.8396 131.083 13.1206C129.792 13.5404 128.668 14.3598 127.873 15.4606C126.403 17.5106 126.013 17.7006 124.673 17.5106C124.483 17.4306 124.273 17.4306 124.023 17.4306C122.463 17.2906 120.943 16.8506 120.373 14.6106C120.103 12.826 119.619 11.0802 118.933 9.41057C118.186 7.99778 117.347 6.63492 116.423 5.33057C115.654 4.24118 113.466 4.42037 111.147 4.61025L111.143 4.61057C110.213 4.69057 109.163 4.77057 108.213 4.77057C105.043 4.77057 104.583 5.71057 104.353 6.77057C104.288 7.20686 104.125 7.62262 103.875 7.98643C103.626 8.35024 103.297 8.65257 102.913 8.87057C102.557 9.02202 102.169 9.08562 101.783 9.05604C101.396 9.02646 101.023 8.90455 100.693 8.70057C99.6534 8.09648 98.8708 7.13242 98.4933 5.99057C98.357 5.61243 98.1933 5.24478 98.0033 4.89057C96.9355 3.34973 95.6677 1.95756 94.2333 0.75057C92.8133 -0.50943 91.9433 -0.0194304 90.4233 1.33057C88.9111 2.67365 88.1214 2.75972 86.0356 2.98704L86.0033 2.99057L85.2333 3.04057C83.3008 3.25971 82.8369 4.60008 82.2996 6.15236L82.2933 6.17057C82.2033 6.44057 82.1033 6.72057 82.0033 6.99057C81.546 7.92385 80.779 8.66958 79.8333 9.10057C79.0389 9.50088 78.3319 10.0549 77.7533 10.7306C77.2378 11.3896 76.9158 12.179 76.8233 13.0106C76.7529 13.8752 76.3603 14.6818 75.7233 15.2706C75.1667 15.725 74.5858 16.149 73.9833 16.5406C72.6491 17.3348 71.459 18.3491 70.4633 19.5406C69.6033 20.7906 69.5333 23.8406 69.5333 26.0606C69.4833 26.7506 69.4833 27.3806 69.4833 27.9106C69.4841 28.2988 69.394 28.6819 69.2204 29.0291C69.0468 29.3764 68.7943 29.6782 68.4833 29.9106C67.3233 30.8106 65.3933 30.6506 63.9833 30.3606C63.2597 30.2286 62.528 30.1451 61.7933 30.1106C60.6043 30.1065 59.4293 29.8544 58.3433 29.3706C56.7733 28.6006 55.8533 28.6506 53.8433 29.7406C51.8333 30.8306 50.7033 29.5206 49.6133 28.2506C49.2375 27.7986 48.8369 27.368 48.4133 26.9606C47.2567 25.8737 46.6071 25.9601 45.1857 26.1489L45.1733 26.1506C45.0416 26.1659 44.9065 26.1837 44.7667 26.2021C44.2699 26.2675 43.7145 26.3406 43.0433 26.3406C39.9133 26.4306 38.6533 27.4406 38.4333 27.6406C37.0573 28.7914 35.9483 30.228 35.1833 31.8506C34.2633 34.1506 32.5633 36.5206 31.3333 37.2206C31.1215 37.3479 30.9178 37.4881 30.7233 37.6406C29.8533 38.3106 28.7633 39.1406 25.9633 38.5606C24.1133 38.1806 22.7633 38.0206 22.1833 38.4706C21.9933 38.6206 21.7433 38.9106 21.6933 39.8106C21.6754 40.1599 21.655 40.5104 21.6344 40.863C21.5743 41.8932 21.5133 42.9403 21.5133 44.0206C21.4995 44.3654 21.4797 44.7125 21.4598 45.0633C21.4219 45.7299 21.3833 46.4095 21.3833 47.1106C21.2835 49.345 19.4922 51.0322 18.6297 51.8445L18.6233 51.8506C18.4847 51.961 18.3574 52.085 18.2433 52.2206C18.2462 52.5989 18.2762 52.9765 18.3333 53.3506C18.4851 54.457 18.532 55.5753 18.4733 56.6906C18.385 57.7338 17.9234 58.7102 17.1733 59.4406C16.5263 60.0685 16.1105 60.8966 15.9933 61.7906C15.8243 62.8628 15.3603 63.8669 14.6533 64.6906C13.9633 65.5706 13.6533 66.0706 13.9633 66.8906C14.087 67.3431 14.3063 67.7638 14.6065 68.1244C14.9066 68.4849 15.2807 68.7769 15.7033 68.9806C16.2617 69.1202 16.8432 69.1408 17.41 69.0409C17.9769 68.9409 18.5163 68.7228 18.9933 68.4006C21.5133 67.0706 21.9533 67.1006 23.0933 67.8306C23.4931 68.0928 23.9146 68.3204 24.3533 68.5106C25.0925 68.8161 25.8507 69.0733 26.6233 69.2806C27.7267 69.4604 28.7433 69.9897 29.5233 70.7906C29.7664 71.0388 29.951 71.3382 30.0635 71.667C30.1759 71.9957 30.2135 72.3454 30.1733 72.6906C30.0333 73.5906 29.2833 74.4406 27.7333 75.4406C26.8704 75.9934 25.9602 76.4686 25.0133 76.8606C24.2615 77.1224 23.578 77.5495 23.0133 78.1106C22.2933 78.8806 22.1733 79.9606 22.0133 81.4606C22.0027 81.5506 21.9921 81.642 21.9813 81.7349C21.9109 82.3432 21.8334 83.0118 21.7033 83.7406C21.6783 84.1721 21.5251 84.5863 21.2632 84.9302C21.0013 85.274 20.6427 85.5319 20.2333 85.6706C18.9933 86.0206 17.5333 85.0306 16.9133 84.3206C16.4166 83.8289 15.7751 83.5099 15.0833 83.4106C14.393 83.3169 13.6911 83.4503 13.0833 83.7906C11.2533 84.6306 10.8933 84.4706 8.55328 83.4106L7.95328 83.1306C7.52315 82.8761 7.04313 82.7176 6.54607 82.6658C6.049 82.614 5.54662 82.6702 5.07329 82.8306C4.19329 83.2506 3.55329 84.2206 3.07329 85.8306C2.44561 88.3237 1.64363 90.7698 0.673279 93.1506Z" fill="#F4F7F7"/>
<path d="M118.622 74.8136C118.622 75.5083 118.415 76.1874 118.029 76.765C117.642 77.3426 117.093 77.7928 116.45 78.0587C115.807 78.3245 115.1 78.3941 114.418 78.2586C113.735 78.123 113.109 77.7885 112.617 77.2973C112.125 76.8061 111.79 76.1802 111.654 75.4988C111.518 74.8175 111.588 74.1112 111.854 73.4694C112.12 72.8276 112.571 72.279 113.15 71.8931C113.728 71.5071 114.408 71.3011 115.104 71.3011C116.037 71.3011 116.932 71.6712 117.591 72.3299C118.251 72.9886 118.622 73.882 118.622 74.8136Z" fill="#DCDBDB"/>
<path d="M172.242 86.8349C172.242 87.2108 172.131 87.5782 171.922 87.8907C171.712 88.2032 171.415 88.4468 171.067 88.5906C170.72 88.7345 170.337 88.7721 169.968 88.6988C169.599 88.6254 169.26 88.4444 168.993 88.1787C168.727 87.9129 168.546 87.5743 168.473 87.2056C168.399 86.837 168.437 86.4549 168.581 86.1077C168.725 85.7604 168.969 85.4636 169.282 85.2548C169.595 85.046 169.963 84.9345 170.339 84.9345C170.844 84.9345 171.328 85.1348 171.685 85.4911C172.042 85.8475 172.242 86.3309 172.242 86.8349Z" fill="#DCDBDB"/>
<path d="M84.6115 40.3508C84.6115 40.7266 84.4998 41.094 84.2907 41.4065C84.0816 41.7191 83.7844 41.9626 83.4366 42.1065C83.0888 42.2503 82.7062 42.2879 82.337 42.2146C81.9678 42.1413 81.6287 41.9603 81.3625 41.6945C81.0964 41.4288 80.9151 41.0901 80.8417 40.7215C80.7683 40.3529 80.8059 39.9708 80.95 39.6235C81.094 39.2763 81.338 38.9795 81.6509 38.7707C81.9639 38.5619 82.3319 38.4504 82.7083 38.4504C83.213 38.4504 83.6971 38.6506 84.054 39.007C84.4109 39.3634 84.6115 39.8468 84.6115 40.3508Z" fill="#DCDBDB"/>
</svg>
