<svg width="167" height="223" viewBox="0 0 167 223" fill="none" xmlns="http://www.w3.org/2000/svg">
<path fill-rule="evenodd" clip-rule="evenodd" d="M163.004 79.3606C163.175 78.8317 163.223 78.2708 163.144 77.7206C163.015 76.6312 163.08 75.5277 163.334 74.4606C163.514 73.6705 163.595 72.8608 163.574 72.0506C163.618 70.8127 163.918 69.5974 164.454 68.4806C164.623 68.1195 164.75 67.7404 164.834 67.3506C164.432 67.0791 163.974 66.9014 163.494 66.8306C162.476 66.6779 161.528 66.2213 160.774 65.5206C159.654 64.2006 160.124 63.2206 160.774 61.8706L161.234 60.8706C161.384 60.5106 161.534 60.2106 161.664 59.9506L161.794 59.6906C162.02 59.4012 162.162 59.0553 162.204 58.6906C162.233 58.3451 162.163 57.9984 162.004 57.6906C161.687 56.7787 161.505 55.8252 161.464 54.8606C161.45 53.9946 161.671 53.1409 162.104 52.3906C162.387 51.9404 162.574 51.4366 162.654 50.9106C162.703 50.1828 162.673 49.4519 162.564 48.7306C162.499 47.4849 162.761 46.2438 163.324 45.1306C163.616 44.4398 163.844 43.7234 164.004 42.9906C164.208 41.7071 164.161 40.396 163.864 39.1306L163.814 38.9206C163.747 38.6657 163.71 38.404 163.704 38.1406C163.535 37.1247 164.427 36.6246 165.086 36.2551L165.094 36.2506L165.324 36.1206L165.504 36.0106C165.824 35.8406 165.824 35.7506 165.824 35.7506C165.824 35.6546 165.788 35.562 165.724 35.4906C165.454 35.0506 165.354 35.0706 164.654 35.3506C163.77 35.8057 162.761 35.9535 161.784 35.7706C160.804 35.4894 159.764 35.4894 158.784 35.7706L158.184 35.9106C158.114 35.9258 158.042 35.9417 157.967 35.9581C157.554 36.0495 157.072 36.1558 156.504 36.2406C154.704 36.5106 153.314 36.6006 153.064 35.1306C153.022 34.5452 153.08 33.957 153.234 33.3906C153.244 33.2262 153.264 33.0626 153.294 32.9006C153.484 31.9006 153.154 31.7506 153.044 31.7506C152.262 31.581 151.448 31.6329 150.694 31.9006C149.895 32.1045 149.077 32.2285 148.254 32.2706C147.594 32.3006 147.444 32.3206 147.194 32.6106C146.251 33.3765 145.068 33.7839 143.854 33.7606C142.449 33.9027 141.031 33.7944 139.664 33.4406C139.082 33.2249 138.45 33.1798 137.844 33.3106C137.764 33.3506 137.69 33.401 137.624 33.4606C137.592 33.4938 137.571 33.5355 137.564 33.5806C137.484 33.8003 137.484 34.0409 137.564 34.2606C137.833 35.0268 137.912 35.8471 137.794 36.6506C137.722 37.1928 137.516 37.7085 137.194 38.1506C137.025 38.3946 136.803 38.5965 136.544 38.7406C136.29 38.8913 136.007 38.9867 135.714 39.0206C135.259 39.0645 134.8 38.9887 134.384 38.8006C133.641 38.5499 133.003 38.0569 132.574 37.4006L132.572 37.3983C132.413 37.17 132.351 37.0806 131.574 37.0806C130.319 37.1804 129.058 37.0274 127.864 36.6306C127.119 36.3515 126.481 35.8426 126.045 35.1774C125.608 34.5123 125.394 33.7254 125.434 32.9306V32.3506C125.414 31.2506 125.384 30.9806 125.144 30.8306C124.725 30.5969 123.339 30.7046 121.244 30.8674L121.074 30.8806H120.834C117.494 31.1806 117.494 31.7606 117.494 32.7606C117.53 33.4024 117.424 34.0443 117.184 34.6406C116.643 35.8679 115.907 36.9993 115.004 37.9906C114.754 38.3283 114.438 38.6112 114.075 38.8217C113.711 39.0323 113.309 39.1661 112.891 39.2148C112.474 39.2636 112.052 39.2262 111.65 39.1051C111.248 38.984 110.875 38.7816 110.554 38.5106C109.026 37.3747 107.698 35.9925 106.624 34.4206C106.5 34.2746 106.37 34.1072 106.239 33.9379C106.191 33.8754 106.142 33.8126 106.094 33.7506C106.034 33.675 105.975 33.5993 105.916 33.5236C105.606 33.1291 105.296 32.7333 104.944 32.3306C103.63 30.8379 102.633 31.2565 100.653 32.0885L100.624 32.1006L99.6238 32.5406C98.1295 33.1877 96.481 33.3924 94.8738 33.1306C94.5414 33.0943 94.2061 33.0943 93.8738 33.1306C93.2338 33.1591 92.5928 33.1121 91.9638 32.9906C90.5828 32.7516 89.1738 32.7212 87.7838 32.9006C86.349 33.1622 84.8687 32.9881 83.5338 32.4006C82.2282 31.7912 81.048 30.9434 80.0538 29.9006C79.8239 29.6622 79.6302 29.489 79.4542 29.3317C79.4236 29.3043 79.3935 29.2773 79.3638 29.2506L79.1838 29.0906C77.7738 27.7806 77.5938 27.4806 77.5238 24.0906C77.5138 22.1118 77.2369 22.0611 76.4275 21.9131L76.4138 21.9106C75.6596 21.806 74.929 21.5726 74.2538 21.2206C73.7738 20.9806 73.3538 20.8006 72.9838 20.6506L72.7838 20.5706C71.2238 19.9706 70.4238 19.5706 69.5838 16.5706C69.3873 15.7488 68.9886 14.9891 68.4238 14.3606C67.8847 13.7363 67.1968 13.2582 66.4238 12.9706C65.8794 12.7065 65.3518 12.4093 64.8438 12.0806C64.3066 11.7137 63.6894 11.4805 63.0438 11.4006C62.0132 11.2616 61.0281 10.8888 60.1638 10.3106C59.0147 9.58049 58.1992 8.42734 57.8938 7.10061C57.4942 5.73432 57.5935 4.27048 58.1738 2.97062C58.3037 2.78004 58.3638 2.5504 58.3438 2.32061C58.3613 2.26872 58.3613 2.2125 58.3438 2.16061C58.2731 2.05234 58.177 1.96307 58.0638 1.90062C57.6531 1.69398 57.1882 1.62056 56.7338 1.69061C55.696 1.77318 54.6597 1.51324 53.7838 0.950611C53.2433 0.572046 52.5931 0.382248 51.9338 0.410611C51.1938 0.490611 50.8938 1.16061 50.4238 2.35061C50.1588 3.14546 49.778 3.89688 49.2938 4.58061L49.2138 4.67061L49.0238 4.84061C48.4773 5.24584 47.8457 5.52128 47.1769 5.64603C46.5081 5.77078 45.8196 5.74157 45.1638 5.56061C43.7548 5.30669 42.4256 4.72428 41.2838 3.86062C41.0742 3.69885 40.8801 3.51808 40.7038 3.32061C39.805 2.38192 39.4747 2.55014 38.3983 3.09832L38.3938 3.10061L37.8138 3.37061C37.5438 3.52061 37.2038 3.67061 36.8138 3.83061C36.2763 4.04386 35.7606 4.30841 35.2738 4.62061C34.2338 5.28061 33.6238 5.57061 32.0338 4.49061C31.3055 3.94203 30.4658 3.55973 29.5738 3.37061C28.8537 3.19427 28.0932 3.30548 27.4538 3.68061C25.9038 4.54062 24.2938 4.32061 22.5838 4.08061H22.4038C21.8338 3.98061 21.2238 3.88061 20.6238 3.82061C19.7666 3.75441 18.9223 3.57277 18.1138 3.28061C17.2329 2.91175 16.2531 2.85183 15.3338 3.11062C14.6796 3.3261 14.0818 3.6848 13.5838 4.16061C13.1586 4.58907 12.8192 5.09481 12.5838 5.65062C12.712 5.87692 12.8403 6.07477 12.9556 6.25276C12.9932 6.31072 13.0294 6.36657 13.0638 6.42061C13.6025 7.22392 14.0328 8.09476 14.3438 9.01061C14.4657 9.46379 14.5559 9.92491 14.6138 10.3906L14.6189 10.4238C14.8159 11.6952 14.946 12.5344 16.3538 12.9706C18.6238 13.6806 19.7438 15.2706 20.7438 16.8106L20.744 16.8108C20.9539 17.1208 21.1638 17.4307 21.3938 17.7406L21.4125 17.7665C22.6292 19.4519 24.1324 21.5341 23.8638 24.1706C23.6638 26.1906 25.6038 28.6706 27.5238 29.9906C30.0538 31.7206 30.6938 33.8106 29.3138 35.8706C28.9431 36.4143 28.6063 36.8359 28.309 37.208C28.2454 37.2875 28.1837 37.3649 28.1238 37.4406C28.1002 37.4703 28.077 37.4996 28.054 37.5284C27.1031 38.7246 26.6844 39.2513 27.1238 42.1806C27.3343 43.1241 27.2956 44.1061 27.0116 45.0301C26.7275 45.9541 26.2079 46.7883 25.5038 47.4506C24.9923 48.0034 24.5522 48.6182 24.1938 49.2806C23.7133 50.3064 23.3283 51.3742 23.0438 52.4706C22.8138 53.2706 22.5638 54.0806 22.2638 54.8606C21.3238 57.2106 18.4738 62.4006 16.3238 63.9506C14.8108 65.0878 13.0632 65.0223 11.2162 64.953L11.1538 64.9506C9.46469 64.7603 7.75445 64.9587 6.15378 65.5306H6.03379C3.35379 66.7206 0.0337872 68.2006 0.0337872 71.6506C0.0203391 71.8394 0.0734034 72.0269 0.183781 72.1806C0.403781 72.3606 1.0538 72.2306 1.5738 72.1206C2.07297 71.9921 2.58959 71.9448 3.10379 71.9806C3.35974 72.011 3.60656 72.0943 3.82863 72.2251C4.0507 72.3559 4.24316 72.5315 4.39379 72.7406C4.58723 73.0598 4.71516 73.4143 4.7701 73.7834C4.82504 74.1526 4.8059 74.5289 4.7138 74.8906C4.43696 76.2229 4.52682 77.6054 4.97379 78.8906C5.00061 78.9991 5.05013 79.1006 5.11908 79.1885C5.18804 79.2764 5.27484 79.3487 5.37378 79.4006C5.89678 79.6276 6.88717 79.2313 7.77805 78.8749L7.81379 78.8606C8.61409 78.4869 9.47383 78.2568 10.3538 78.1806C12.5095 78.1806 12.6641 79.5024 12.7964 80.6334C12.8022 80.6829 12.8079 80.732 12.8138 80.7806L12.821 80.8401C12.957 81.972 13.0643 82.8646 14.8138 83.0906C15.4238 83.0907 16.0158 83.2973 16.4934 83.6768C16.971 84.0563 17.306 84.5864 17.4438 85.1806C17.4922 85.8107 17.3403 86.4401 17.0099 86.9788C16.6795 87.5175 16.1874 87.9381 15.6038 88.1806C14.0738 88.8906 13.8638 89.5206 13.6038 90.3106C13.4553 90.8692 13.1942 91.3915 12.8365 91.8455C12.4788 92.2995 12.0321 92.6756 11.5238 92.9506C10.6167 93.4795 9.63598 93.8705 8.61379 94.1106C7.61379 94.4006 6.79379 94.7106 6.61379 95.1106C6.43379 95.5106 6.62379 96.2106 7.14379 97.2106C7.59827 97.7059 8.16374 98.0863 8.79378 98.3206C9.76378 98.8006 10.7738 99.3006 10.9238 100.191C10.9424 100.51 10.8839 100.83 10.7534 101.122C10.6229 101.414 10.4241 101.671 10.1738 101.871C9.87882 102.157 9.56836 102.428 9.24379 102.681C8.40379 103.361 7.55379 104.071 7.55379 104.881C7.56379 105.501 8.12378 106.221 9.12378 107.021L9.19379 107.071L9.54378 107.231L9.84378 107.371C11.9038 108.171 11.9838 109.111 11.9038 110.111L11.9027 110.125C11.8533 110.756 11.8237 111.134 13.1738 111.621C15.0938 112.311 18.3538 113.901 18.6438 116.811C18.7811 117.634 19.0477 118.43 19.4338 119.171C20.3838 121.261 20.4138 121.511 19.9138 123.001L19.7538 123.491C19.3761 124.644 19.5813 124.73 20.1925 124.986L20.2038 124.991C20.5779 125.102 20.9171 125.307 21.1886 125.587C21.4601 125.868 21.6547 126.213 21.7538 126.591C21.924 127.284 21.8998 128.01 21.6838 128.691C21.4325 129.495 21.4325 130.356 21.6838 131.161C21.9047 131.685 22.0075 132.252 21.9851 132.82C21.9626 133.389 21.8154 133.945 21.5538 134.451C20.7038 135.801 18.8138 136.101 16.9838 136.391C16.2901 136.48 15.6023 136.611 14.9238 136.781C14.3266 136.948 13.7445 137.166 13.1838 137.431C12.9955 138.997 13.1912 140.586 13.7538 142.061C14.0678 142.859 14.2469 143.704 14.2838 144.561C14.3433 146.782 12.8984 147.056 11.8991 147.246L11.8738 147.251C10.5738 147.491 9.44379 147.701 9.66379 150.951C9.83379 153.951 10.1438 156.311 12.5038 156.951C15.0738 157.681 19.4138 159.251 19.7038 161.681C19.8638 163.021 18.8538 164.291 16.6038 165.551L15.9338 165.921L15.9266 165.924C14.3697 166.763 13.0333 167.482 12.6938 168.651C12.6056 169.203 12.6274 169.767 12.7578 170.311C12.8882 170.855 13.1247 171.368 13.4538 171.821C14.9538 174.491 14.7638 175.351 14.3338 177.231C14.3076 177.353 14.2797 177.478 14.2508 177.607C14.1806 177.921 14.1047 178.261 14.0338 178.651C13.7338 180.221 13.7738 181.271 14.3938 181.571C15.0138 181.871 16.5438 181.171 18.1538 179.301C19.5238 177.711 20.6738 177.011 21.7538 177.081C23.1573 177.18 24.0555 178.548 24.9316 179.882L24.9438 179.901C25.7038 181.071 26.5338 182.281 27.5338 182.531C29.23 183.029 30.7293 184.042 31.8238 185.431C33.0644 186.912 34.6659 188.049 36.4738 188.731C37.7509 189.117 39.1027 189.19 40.4138 188.941C41.3352 188.717 42.3018 188.769 43.1938 189.091C44.4938 189.731 44.6538 191.061 44.7838 192.241C44.9338 193.691 45.1138 194.951 46.9338 195.461C47.2433 195.544 47.6017 195.607 47.974 195.672C48.0468 195.685 48.1202 195.698 48.1938 195.711C50.2438 196.061 53.0438 196.551 52.9138 199.431C52.9123 199.823 52.8306 200.211 52.6738 200.571C52.514 200.942 52.2786 201.276 51.9824 201.552C51.6863 201.827 51.3359 202.038 50.9538 202.171C50.5742 202.298 50.1737 202.353 49.7738 202.331H48.7738C46.9038 202.331 46.2638 202.581 45.9938 202.931C45.7238 203.281 45.9038 203.911 46.1138 204.641C46.5034 205.545 46.5356 206.563 46.2038 207.491C45.4838 208.961 46.8338 210.321 48.0938 211.191C50.1838 212.661 52.1438 214.051 50.7538 217.281C50.4038 218.091 52.1638 219.221 53.1638 219.821L53.7838 220.231C54.6332 220.8 55.4091 221.471 56.0938 222.231C59.4362 219.257 59.2845 218.315 59.0951 217.139L59.0938 217.131C58.8547 216.003 58.9735 214.828 59.4338 213.771C60.2938 211.521 61.1738 210.331 63.8638 209.771C65.0677 209.498 66.2216 209.039 67.2838 208.411C69.8838 206.981 71.1138 206.951 74.1138 212.281C76.6938 216.921 83.8438 216.731 86.8438 216.431C89.6638 216.151 89.8338 214.601 89.9938 212.981C90.1538 211.361 90.3638 209.341 93.2038 208.761C94.2006 208.56 95.2344 208.653 96.179 209.03C97.1237 209.406 97.9384 210.049 98.5238 210.881C101.524 215.371 107.704 213.431 109.524 212.731C110.324 212.411 112.954 211.231 113.414 209.311C113.55 208.264 113.534 207.203 113.364 206.161C113.189 204.883 113.189 203.588 113.364 202.311C113.558 201.179 113.977 200.098 114.594 199.131C115.183 198.294 115.853 197.517 116.594 196.811C116.934 196.471 117.274 196.111 117.594 195.741L117.324 195.641C111.974 193.681 109.214 191.531 108.914 189.101C108.624 186.991 110.194 184.841 113.624 182.531C116.534 180.531 117.554 177.871 117.024 173.531C116.585 169.759 117.789 168.815 118.668 168.125L118.674 168.121L118.677 168.118C119.555 167.429 120.323 166.827 119.964 163.591C119.898 162.571 119.922 161.547 120.034 160.531C120.144 159.261 120.274 157.681 119.844 157.351C119.674 157.191 119.344 157.261 119.084 157.351L119.082 157.351C117.781 157.792 115.393 158.6 113.784 157.181C112.323 156.029 110.647 155.183 108.854 154.691L108.843 154.687C106.947 154.048 105.162 153.447 104.064 151.561C103.704 150.921 103.134 150.741 102.134 150.501C100.764 150.171 99.0738 149.751 98.6538 146.981C98.3038 144.901 99.0038 144.011 99.6538 143.631C101.214 142.711 103.904 143.791 105.744 145.191C107.734 146.701 109.434 146.141 110.924 145.641C111.337 145.488 111.757 145.358 112.184 145.251L112.674 145.161C114.144 144.891 114.944 144.671 115.534 143.671C115.586 143.609 115.625 143.537 115.649 143.46C115.673 143.382 115.681 143.301 115.674 143.221C115.66 143.077 115.592 142.945 115.484 142.851C114.867 142.303 114.16 141.867 113.394 141.561C112.97 141.372 112.584 141.107 112.254 140.781C111.816 140.409 111.54 139.882 111.484 139.311C111.425 138.779 111.53 138.242 111.784 137.771C112.037 137.26 112.375 136.797 112.784 136.401C113.266 135.887 113.544 135.215 113.564 134.511C113.601 133.504 113.513 132.496 113.304 131.511C112.904 128.873 114.121 127.543 115.201 126.364L115.204 126.361L115.464 126.061C116.115 125.378 116.931 124.876 117.834 124.601C118.334 124.427 118.814 124.199 119.264 123.921C119.582 123.702 119.916 123.508 120.264 123.341L120.288 123.327C121.674 122.539 123.433 121.54 123.264 119.641C123.173 119.228 123.165 118.802 123.24 118.386C123.316 117.971 123.473 117.575 123.704 117.221C123.847 117.048 124.025 116.909 124.227 116.812C124.429 116.716 124.65 116.664 124.874 116.661C125.683 116.674 126.483 116.837 127.234 117.141L127.834 117.321C128.144 117.411 128.394 117.501 128.634 117.591L129.074 117.751C130.553 118.294 132.134 118.505 133.704 118.371C137.222 118.291 137.84 120.218 138.497 122.271L138.504 122.291C138.673 122.854 138.88 123.405 139.124 123.941C139.215 124.222 139.365 124.481 139.564 124.701C139.752 124.9 139.98 125.057 140.234 125.161C140.337 125.172 140.441 125.172 140.544 125.161C140.586 125.16 140.628 125.15 140.667 125.131C140.705 125.112 140.738 125.084 140.764 125.051C140.837 124.978 140.892 124.889 140.924 124.791C140.944 124.698 140.944 124.603 140.924 124.511V124.281C140.89 124.129 140.87 123.975 140.864 123.821L140.863 123.815C140.653 122.146 140.396 120.1 142.334 119.371C142.702 119.22 143.079 119.093 143.464 118.991L143.854 118.871C144.958 118.707 145.995 118.243 146.854 117.531C147.063 117.131 147.154 116.68 147.114 116.231V116.091C147.184 114.911 147.284 113.431 149.004 112.551C149.623 112.23 150.307 112.055 151.004 112.041C151.689 112.014 152.371 112.137 153.004 112.401C153.683 112.627 154.404 112.698 155.114 112.611C156.604 112.361 156.894 112.141 158.894 110.431C159.312 110.057 159.809 109.659 160.478 109.125C160.56 109.059 160.646 108.991 160.734 108.921C163.274 106.831 163.274 105.801 163.274 105.181C163.237 104.717 163.369 104.256 163.644 103.881L163.744 103.781C164.242 103.384 164.849 103.147 165.484 103.101C166.554 102.931 166.604 102.781 166.554 102.461C166.484 101.771 166.174 101.651 165.074 101.551C164.613 101.509 164.157 101.422 163.714 101.291C162.122 100.803 161.945 100.058 161.52 98.2569L161.514 98.2306C161.5 98.1723 161.486 98.1129 161.472 98.0519C161.404 97.7571 161.328 97.4266 161.204 97.0206C160.917 96.2336 160.848 95.3837 161.004 94.5606L161.007 94.5448C161.036 94.392 161.062 94.2568 160.714 93.5606C160.18 92.0584 159.975 90.4589 160.114 88.8706C160.143 87.8373 160.083 86.8035 159.934 85.7806C159.764 85.0997 159.795 84.3841 160.024 83.7206C160.262 83.0419 160.689 82.4453 161.254 82.0006C161.436 81.8495 161.598 81.6746 161.734 81.4806L162.164 80.8506C162.548 80.4203 162.835 79.912 163.004 79.3606Z" fill="#F4F7F7"/>
<path d="M50.8165 32.9039C50.8165 33.4783 50.6459 34.0397 50.3263 34.5173C50.0068 34.9948 49.5526 35.367 49.0212 35.5868C48.4897 35.8066 47.905 35.8641 47.3409 35.7521C46.7767 35.64 46.2585 35.3634 45.8518 34.9573C45.4451 34.5512 45.1681 34.0338 45.0559 33.4705C44.9437 32.9072 45.0013 32.3233 45.2214 31.7926C45.4415 31.262 45.8142 30.8085 46.2925 30.4894C46.7708 30.1703 47.333 30 47.9082 30C48.6795 30 49.4193 30.306 49.9647 30.8505C50.5101 31.3951 50.8165 32.1338 50.8165 32.9039Z" fill="#DCDBDB"/>
<path d="M118.816 56.9039C118.816 57.4774 118.646 58.038 118.328 58.515C118.009 58.9921 117.556 59.3643 117.026 59.5847C116.496 59.8051 115.912 59.8638 115.349 59.7535C114.785 59.6432 114.267 59.3687 113.859 58.9648C113.452 58.5608 113.173 58.0453 113.059 57.4834C112.944 56.9215 112.998 56.3383 113.215 55.8073C113.432 55.2764 113.802 54.8214 114.277 54.4997C114.752 54.1781 115.313 54.0042 115.887 54C116.269 54 116.647 54.0751 117 54.2211C117.353 54.367 117.673 54.5809 117.943 54.8505C118.213 55.1202 118.428 55.4403 118.574 55.7926C118.72 56.145 118.795 56.5226 118.795 56.9039" fill="#DCDBDB"/>
<path d="M40.8756 112.434C40.8756 112.916 40.7326 113.386 40.4647 113.787C40.1969 114.187 39.8161 114.499 39.3707 114.683C38.9252 114.867 38.4351 114.915 37.9622 114.822C37.4893 114.728 37.0549 114.496 36.714 114.155C36.3731 113.815 36.1409 113.381 36.0468 112.909C35.9528 112.437 36.0011 111.947 36.1856 111.503C36.3701 111.058 36.6825 110.678 37.0834 110.41C37.4843 110.143 37.9556 110 38.4378 110C39.0843 110 39.7044 110.256 40.1616 110.713C40.6187 111.169 40.8756 111.789 40.8756 112.434Z" fill="#DCDBDB"/>
<path d="M84.5435 171.267C84.5435 171.913 84.3516 172.545 83.9921 173.082C83.6326 173.619 83.1216 174.038 82.5238 174.285C81.926 174.532 81.2681 174.597 80.6335 174.471C79.9988 174.345 79.4158 174.034 78.9583 173.577C78.5007 173.12 78.1891 172.538 78.0629 171.904C77.9366 171.271 78.0014 170.614 78.2491 170.017C78.4967 169.42 78.916 168.91 79.4541 168.551C79.9921 168.192 80.6246 168 81.2717 168C82.1395 168 82.9717 168.344 83.5852 168.957C84.1988 169.57 84.5435 170.4 84.5435 171.267Z" fill="#DCDBDB"/>
<path d="M132.816 50.9039C132.816 51.4783 132.646 52.0397 132.326 52.5172C132.007 52.9948 131.553 53.367 131.021 53.5868C130.49 53.8066 129.905 53.8641 129.341 53.752C128.777 53.64 128.259 53.3634 127.852 52.9573C127.445 52.5512 127.168 52.0338 127.056 51.4704C126.944 50.9071 127.001 50.3233 127.221 49.7926C127.441 49.262 127.814 48.8085 128.293 48.4894C128.771 48.1703 129.333 48 129.908 48C130.29 48 130.668 48.0751 131.021 48.221C131.374 48.367 131.695 48.5809 131.965 48.8505C132.235 49.1202 132.449 49.4403 132.595 49.7926C132.741 50.145 132.816 50.5226 132.816 50.9039Z" fill="#DCDBDB"/>
<path d="M37.0793 135.537C37.0793 135.841 36.989 136.139 36.8198 136.391C36.6506 136.644 36.4102 136.841 36.1288 136.958C35.8475 137.074 35.5379 137.105 35.2393 137.045C34.9406 136.986 34.6663 136.839 34.451 136.624C34.2356 136.409 34.089 136.136 34.0296 135.837C33.9702 135.539 34.0007 135.23 34.1172 134.949C34.2337 134.668 34.4311 134.428 34.6843 134.259C34.9375 134.09 35.2351 134 35.5397 134C35.948 134 36.3396 134.162 36.6284 134.45C36.9171 134.739 37.0793 135.13 37.0793 135.537Z" fill="#DCDBDB"/>
<path d="M143.816 40.9039C143.816 41.4783 143.646 42.0397 143.326 42.5172C143.007 42.9948 142.553 43.367 142.021 43.5868C141.49 43.8066 140.905 43.8641 140.341 43.752C139.777 43.64 139.259 43.3634 138.852 42.9573C138.445 42.5512 138.168 42.0338 138.056 41.4704C137.944 40.9071 138.001 40.3233 138.221 39.7926C138.441 39.262 138.814 38.8085 139.293 38.4894C139.771 38.1703 140.333 38 140.908 38C141.29 38 141.668 38.0751 142.021 38.221C142.374 38.367 142.695 38.5809 142.965 38.8505C143.235 39.1202 143.449 39.4403 143.595 39.7926C143.741 40.145 143.816 40.5226 143.816 40.9039Z" fill="#DCDBDB"/>
<path d="M135.01 88.0036C135.01 88.2021 134.951 88.3961 134.841 88.5611C134.73 88.7262 134.573 88.8548 134.39 88.9307C134.206 89.0067 134.004 89.0266 133.809 88.9878C133.614 88.9491 133.435 88.8535 133.294 88.7132C133.154 88.5728 133.058 88.394 133.019 88.1993C132.981 88.0047 133 87.8029 133.077 87.6195C133.153 87.4362 133.281 87.2794 133.447 87.1691C133.612 87.0589 133.806 87 134.005 87C134.272 87 134.527 87.1057 134.716 87.2939C134.904 87.4822 135.01 87.7374 135.01 88.0036Z" fill="#DCDBDB"/>
</svg>
