<svg width="40" height="55" viewBox="0 0 40 55" fill="none" xmlns="http://www.w3.org/2000/svg">
<path fill-rule="evenodd" clip-rule="evenodd" d="M27.6742 1.94309C30.1026 2.8958 32.308 4.29208 34.164 6.05182L34.1418 6.07278C37.5661 9.66482 39.6119 14.2409 39.9501 19.0646C40.2883 23.8884 38.8992 28.6794 36.0064 32.6669L20.002 54.5L3.97541 32.6249C1.09104 28.6371 -0.291034 23.8491 0.0511496 19.0298C0.393334 14.2106 2.43992 9.63985 5.86221 6.05182C7.71821 4.29208 9.92363 2.8958 12.352 1.94309C14.7803 0.990388 17.3837 0.5 20.0131 0.5C22.6425 0.5 25.2459 0.990388 27.6742 1.94309ZM18.2039 9.91089H23.0429L29.4137 25.3053H16.3837L8.61458 33.0444L13.3649 21.572H23.3094L20.6234 15.0913L18.9808 19.0343H14.4304L18.2039 9.91089Z" fill="url(#paint0_linear)"/>
<defs>
<linearGradient id="paint0_linear" x1="20" y1="0.5" x2="20" y2="54.5" gradientUnits="userSpaceOnUse">
<stop stop-color="#F5871F"/>
<stop offset="1" stop-color="#F06D22"/>
</linearGradient>
</defs>
</svg>
