<svg width="21" height="28" viewBox="0 0 21 28" fill="none" xmlns="http://www.w3.org/2000/svg">
<path fill-rule="evenodd" clip-rule="evenodd" d="M14.0783 0.950048C15.2925 1.4264 16.3952 2.12452 17.3232 3.00439L17.3121 2.96247C19.0243 4.75849 20.0472 7.04648 20.2163 9.45836C20.3854 11.8702 19.6908 14.2658 18.2444 16.2595L10.2422 27.2285L2.22891 16.291C0.786729 14.2971 0.0956937 11.903 0.266786 9.4934C0.437878 7.08378 1.46117 4.79841 3.17231 3.00439C4.10031 2.12452 5.20299 1.4264 6.41716 0.950048C7.63132 0.473695 8.93309 0.228485 10.2478 0.228485C11.5624 0.228485 12.8642 0.473695 14.0783 0.950048ZM9.33177 4.93404H11.7513L14.9367 12.6207H8.42167L4.53711 16.5008L6.91226 10.7646H11.8845L10.5415 7.51373L9.73135 9.48522H7.44501L9.33177 4.93404Z" fill="#FDB97F"/>
</svg>
