<svg width="100" height="30" viewBox="0 0 100 30" fill="none" xmlns="http://www.w3.org/2000/svg">
<path d="M6.50391 29V8.84375C5.59245 9.3776 4.64844 9.78776 3.67188 10.0742C2.69531 10.3477 1.58854 10.5495 0.351562 10.6797V4.42969C2.10938 4.13021 3.74349 3.66146 5.25391 3.02344C6.77734 2.3724 8.33333 1.48698 9.92188 0.367188H14.8242V29H6.50391ZM51.9727 14.7617C51.9727 19.5664 51.0547 23.2253 49.2188 25.7383C47.3958 28.2383 44.7266 29.4883 41.2109 29.4883C37.6172 29.4883 34.9284 28.3359 33.1445 26.0312C31.3737 23.7266 30.4883 20.1589 30.4883 15.3281C30.4883 10.4844 31.4453 6.80599 33.3594 4.29297C35.2865 1.77995 38.0664 0.523438 41.6992 0.523438C48.5482 0.523438 51.9727 5.26953 51.9727 14.7617ZM43.7695 14.7617C43.7695 11.9753 43.5742 9.91797 43.1836 8.58984C42.793 7.26172 42.1615 6.59766 41.2891 6.59766C39.5833 6.59766 38.7305 9.44922 38.7305 15.1523C38.7305 17.9518 38.9258 20.0286 39.3164 21.3828C39.7201 22.724 40.3516 23.3945 41.2109 23.3945C42.9167 23.3945 43.7695 20.5169 43.7695 14.7617ZM75.957 14.7617C75.957 19.5664 75.0391 23.2253 73.2031 25.7383C71.3802 28.2383 68.7109 29.4883 65.1953 29.4883C61.6016 29.4883 58.9128 28.3359 57.1289 26.0312C55.3581 23.7266 54.4727 20.1589 54.4727 15.3281C54.4727 10.4844 55.4297 6.80599 57.3438 4.29297C59.2708 1.77995 62.0508 0.523438 65.6836 0.523438C72.5326 0.523438 75.957 5.26953 75.957 14.7617ZM67.7539 14.7617C67.7539 11.9753 67.5586 9.91797 67.168 8.58984C66.7773 7.26172 66.1458 6.59766 65.2734 6.59766C63.5677 6.59766 62.7148 9.44922 62.7148 15.1523C62.7148 17.9518 62.9102 20.0286 63.3008 21.3828C63.7044 22.724 64.3359 23.3945 65.1953 23.3945C66.901 23.3945 67.7539 20.5169 67.7539 14.7617ZM99.9414 14.7617C99.9414 19.5664 99.0234 23.2253 97.1875 25.7383C95.3646 28.2383 92.6953 29.4883 89.1797 29.4883C85.5859 29.4883 82.8971 28.3359 81.1133 26.0312C79.3424 23.7266 78.457 20.1589 78.457 15.3281C78.457 10.4844 79.4141 6.80599 81.3281 4.29297C83.2552 1.77995 86.0352 0.523438 89.668 0.523438C96.5169 0.523438 99.9414 5.26953 99.9414 14.7617ZM91.7383 14.7617C91.7383 11.9753 91.543 9.91797 91.1523 8.58984C90.7617 7.26172 90.1302 6.59766 89.2578 6.59766C87.5521 6.59766 86.6992 9.44922 86.6992 15.1523C86.6992 17.9518 86.8945 20.0286 87.2852 21.3828C87.6888 22.724 88.3203 23.3945 89.1797 23.3945C90.8854 23.3945 91.7383 20.5169 91.7383 14.7617Z" fill="white"/>
</svg>
