<svg width="66" height="30" viewBox="0 0 66 30" fill="none" xmlns="http://www.w3.org/2000/svg">
<path d="M7.0625 29V8.84375C6.15104 9.3776 5.20703 9.78776 4.23047 10.0742C3.25391 10.3477 2.14714 10.5495 0.910156 10.6797V4.42969C2.66797 4.13021 4.30208 3.66146 5.8125 3.02344C7.33594 2.3724 8.89193 1.48698 10.4805 0.367188H15.3828V29H7.0625ZM20.4414 29V26.7539C20.4414 25.1654 20.6367 23.7852 21.0273 22.6133C21.418 21.4414 22.0299 20.3411 22.8633 19.3125C23.7096 18.2839 25.1745 16.9622 27.2578 15.3477C28.7422 14.1758 29.7253 13.3359 30.207 12.8281C30.7018 12.3073 31.0664 11.806 31.3008 11.3242C31.5482 10.8424 31.6719 10.3216 31.6719 9.76172C31.6719 7.89974 30.5521 6.96875 28.3125 6.96875C26.0339 6.96875 23.8789 7.79557 21.8477 9.44922V2.63281C23.3971 1.85156 24.8424 1.30469 26.1836 0.992188C27.5378 0.679688 28.9245 0.523438 30.3438 0.523438C33.3906 0.523438 35.7474 1.2526 37.4141 2.71094C39.0807 4.16927 39.9141 6.21354 39.9141 8.84375C39.9141 10.862 39.4779 12.5742 38.6055 13.9805C37.7331 15.3867 36.112 16.8516 33.7422 18.375C31.9323 19.5469 30.7279 20.4062 30.1289 20.9531C29.543 21.487 29.2435 21.9427 29.2305 22.3203H40.168V29H20.4414ZM65.3828 14.7617C65.3828 19.5664 64.4648 23.2253 62.6289 25.7383C60.806 28.2383 58.1367 29.4883 54.6211 29.4883C51.0273 29.4883 48.3385 28.3359 46.5547 26.0312C44.7839 23.7266 43.8984 20.1589 43.8984 15.3281C43.8984 10.4844 44.8555 6.80599 46.7695 4.29297C48.6966 1.77995 51.4766 0.523438 55.1094 0.523438C61.9583 0.523438 65.3828 5.26953 65.3828 14.7617ZM57.1797 14.7617C57.1797 11.9753 56.9844 9.91797 56.5938 8.58984C56.2031 7.26172 55.5716 6.59766 54.6992 6.59766C52.9935 6.59766 52.1406 9.44922 52.1406 15.1523C52.1406 17.9518 52.3359 20.0286 52.7266 21.3828C53.1302 22.724 53.7617 23.3945 54.6211 23.3945C56.3268 23.3945 57.1797 20.5169 57.1797 14.7617Z" fill="white"/>
</svg>
