<svg width="40" height="30" viewBox="0 0 40 30" fill="none" xmlns="http://www.w3.org/2000/svg">
<path d="M7.05469 29V8.84375C6.14323 9.3776 5.19922 9.78776 4.22266 10.0742C3.24609 10.3477 2.13932 10.5495 0.902344 10.6797V4.42969C2.66016 4.13021 4.29427 3.66146 5.80469 3.02344C7.32812 2.3724 8.88411 1.48698 10.4727 0.367188H15.375V29H7.05469ZM39.9648 19.5273C39.9648 21.4414 39.5091 23.1602 38.5977 24.6836C37.6992 26.194 36.3971 27.3724 34.6914 28.2188C32.9857 29.0651 30.974 29.4883 28.6562 29.4883C27.3672 29.4883 26.0195 29.3776 24.6133 29.1562C23.2201 28.9349 22.0742 28.6549 21.1758 28.3164V21.832C23.1289 22.8737 25.1927 23.3945 27.3672 23.3945C28.7995 23.3945 29.8802 23.1341 30.6094 22.6133C31.3516 22.0924 31.7227 21.3568 31.7227 20.4062C31.7227 18.349 30.0169 17.3203 26.6055 17.3203C24.8997 17.3203 23.3177 17.4831 21.8594 17.8086L22.9141 0.992188H38.7344V7.47656H29.3594L29.0859 11.4023C29.8411 11.3242 30.5508 11.2852 31.2148 11.2852C33.9492 11.2852 36.0911 12.0273 37.6406 13.5117C39.1901 14.9831 39.9648 16.9883 39.9648 19.5273Z" fill="white"/>
</svg>
