<svg width="66" height="30" viewBox="0 0 66 30" fill="none" xmlns="http://www.w3.org/2000/svg">
<path d="M7.0625 29V8.84375C6.15104 9.3776 5.20703 9.78776 4.23047 10.0742C3.25391 10.3477 2.14714 10.5495 0.910156 10.6797V4.42969C2.66797 4.13021 4.30208 3.66146 5.8125 3.02344C7.33594 2.3724 8.89193 1.48698 10.4805 0.367188H15.3828V29H7.0625ZM39.9727 19.5273C39.9727 21.4414 39.5169 23.1602 38.6055 24.6836C37.707 26.194 36.4049 27.3724 34.6992 28.2188C32.9935 29.0651 30.9818 29.4883 28.6641 29.4883C27.375 29.4883 26.0273 29.3776 24.6211 29.1562C23.2279 28.9349 22.082 28.6549 21.1836 28.3164V21.832C23.1367 22.8737 25.2005 23.3945 27.375 23.3945C28.8073 23.3945 29.888 23.1341 30.6172 22.6133C31.3594 22.0924 31.7305 21.3568 31.7305 20.4062C31.7305 18.349 30.0247 17.3203 26.6133 17.3203C24.9076 17.3203 23.3255 17.4831 21.8672 17.8086L22.9219 0.992188H38.7422V7.47656H29.3672L29.0938 11.4023C29.849 11.3242 30.5586 11.2852 31.2227 11.2852C33.957 11.2852 36.099 12.0273 37.6484 13.5117C39.1979 14.9831 39.9727 16.9883 39.9727 19.5273ZM65.3828 14.7617C65.3828 19.5664 64.4648 23.2253 62.6289 25.7383C60.806 28.2383 58.1367 29.4883 54.6211 29.4883C51.0273 29.4883 48.3385 28.3359 46.5547 26.0312C44.7839 23.7266 43.8984 20.1589 43.8984 15.3281C43.8984 10.4844 44.8555 6.80599 46.7695 4.29297C48.6966 1.77995 51.4766 0.523438 55.1094 0.523438C61.9583 0.523438 65.3828 5.26953 65.3828 14.7617ZM57.1797 14.7617C57.1797 11.9753 56.9844 9.91797 56.5938 8.58984C56.2031 7.26172 55.5716 6.59766 54.6992 6.59766C52.9935 6.59766 52.1406 9.44922 52.1406 15.1523C52.1406 17.9518 52.3359 20.0286 52.7266 21.3828C53.1302 22.724 53.7617 23.3945 54.6211 23.3945C56.3268 23.3945 57.1797 20.5169 57.1797 14.7617Z" fill="white"/>
</svg>
