<svg width="153" height="30" viewBox="0 0 153 30" fill="none" xmlns="http://www.w3.org/2000/svg">
<path d="M0.238281 29V26.7539C0.238281 25.1654 0.433594 23.7852 0.824219 22.6133C1.21484 21.4414 1.82682 20.3411 2.66016 19.3125C3.50651 18.2839 4.97135 16.9622 7.05469 15.3477C8.53906 14.1758 9.52214 13.3359 10.0039 12.8281C10.4987 12.3073 10.8633 11.806 11.0977 11.3242C11.3451 10.8424 11.4688 10.3216 11.4688 9.76172C11.4688 7.89974 10.349 6.96875 8.10938 6.96875C5.83073 6.96875 3.67578 7.79557 1.64453 9.44922V2.63281C3.19401 1.85156 4.63932 1.30469 5.98047 0.992188C7.33464 0.679688 8.72135 0.523438 10.1406 0.523438C13.1875 0.523438 15.5443 1.2526 17.2109 2.71094C18.8776 4.16927 19.7109 6.21354 19.7109 8.84375C19.7109 10.862 19.2747 12.5742 18.4023 13.9805C17.5299 15.3867 15.9089 16.8516 13.5391 18.375C11.7292 19.5469 10.5247 20.4062 9.92578 20.9531C9.33984 21.487 9.04036 21.9427 9.02734 22.3203H19.9648V29H0.238281ZM45.1797 14.7617C45.1797 19.5664 44.2617 23.2253 42.4258 25.7383C40.6029 28.2383 37.9336 29.4883 34.418 29.4883C30.8242 29.4883 28.1354 28.3359 26.3516 26.0312C24.5807 23.7266 23.6953 20.1589 23.6953 15.3281C23.6953 10.4844 24.6523 6.80599 26.5664 4.29297C28.4935 1.77995 31.2734 0.523438 34.9062 0.523438C41.7552 0.523438 45.1797 5.26953 45.1797 14.7617ZM36.9766 14.7617C36.9766 11.9753 36.7812 9.91797 36.3906 8.58984C36 7.26172 35.3685 6.59766 34.4961 6.59766C32.7904 6.59766 31.9375 9.44922 31.9375 15.1523C31.9375 17.9518 32.1328 20.0286 32.5234 21.3828C32.9271 22.724 33.5586 23.3945 34.418 23.3945C36.1237 23.3945 36.9766 20.5169 36.9766 14.7617ZM69.1641 14.7617C69.1641 19.5664 68.2461 23.2253 66.4102 25.7383C64.5872 28.2383 61.918 29.4883 58.4023 29.4883C54.8086 29.4883 52.1198 28.3359 50.3359 26.0312C48.5651 23.7266 47.6797 20.1589 47.6797 15.3281C47.6797 10.4844 48.6367 6.80599 50.5508 4.29297C52.4779 1.77995 55.2578 0.523438 58.8906 0.523438C65.7396 0.523438 69.1641 5.26953 69.1641 14.7617ZM60.9609 14.7617C60.9609 11.9753 60.7656 9.91797 60.375 8.58984C59.9844 7.26172 59.3529 6.59766 58.4805 6.59766C56.7747 6.59766 55.9219 9.44922 55.9219 15.1523C55.9219 17.9518 56.1172 20.0286 56.5078 21.3828C56.9115 22.724 57.543 23.3945 58.4023 23.3945C60.1081 23.3945 60.9609 20.5169 60.9609 14.7617ZM104.281 14.7617C104.281 19.5664 103.363 23.2253 101.527 25.7383C99.7044 28.2383 97.0352 29.4883 93.5195 29.4883C89.9258 29.4883 87.237 28.3359 85.4531 26.0312C83.6823 23.7266 82.7969 20.1589 82.7969 15.3281C82.7969 10.4844 83.7539 6.80599 85.668 4.29297C87.5951 1.77995 90.375 0.523438 94.0078 0.523438C100.857 0.523438 104.281 5.26953 104.281 14.7617ZM96.0781 14.7617C96.0781 11.9753 95.8828 9.91797 95.4922 8.58984C95.1016 7.26172 94.4701 6.59766 93.5977 6.59766C91.8919 6.59766 91.0391 9.44922 91.0391 15.1523C91.0391 17.9518 91.2344 20.0286 91.625 21.3828C92.0286 22.724 92.6602 23.3945 93.5195 23.3945C95.2253 23.3945 96.0781 20.5169 96.0781 14.7617ZM128.266 14.7617C128.266 19.5664 127.348 23.2253 125.512 25.7383C123.689 28.2383 121.02 29.4883 117.504 29.4883C113.91 29.4883 111.221 28.3359 109.438 26.0312C107.667 23.7266 106.781 20.1589 106.781 15.3281C106.781 10.4844 107.738 6.80599 109.652 4.29297C111.579 1.77995 114.359 0.523438 117.992 0.523438C124.841 0.523438 128.266 5.26953 128.266 14.7617ZM120.062 14.7617C120.062 11.9753 119.867 9.91797 119.477 8.58984C119.086 7.26172 118.454 6.59766 117.582 6.59766C115.876 6.59766 115.023 9.44922 115.023 15.1523C115.023 17.9518 115.219 20.0286 115.609 21.3828C116.013 22.724 116.645 23.3945 117.504 23.3945C119.21 23.3945 120.062 20.5169 120.062 14.7617ZM152.25 14.7617C152.25 19.5664 151.332 23.2253 149.496 25.7383C147.673 28.2383 145.004 29.4883 141.488 29.4883C137.895 29.4883 135.206 28.3359 133.422 26.0312C131.651 23.7266 130.766 20.1589 130.766 15.3281C130.766 10.4844 131.723 6.80599 133.637 4.29297C135.564 1.77995 138.344 0.523438 141.977 0.523438C148.826 0.523438 152.25 5.26953 152.25 14.7617ZM144.047 14.7617C144.047 11.9753 143.852 9.91797 143.461 8.58984C143.07 7.26172 142.439 6.59766 141.566 6.59766C139.861 6.59766 139.008 9.44922 139.008 15.1523C139.008 17.9518 139.203 20.0286 139.594 21.3828C139.997 22.724 140.629 23.3945 141.488 23.3945C143.194 23.3945 144.047 20.5169 144.047 14.7617Z" fill="white"/>
</svg>
