<svg width="1922" height="115" viewBox="0 0 1922 115" fill="none" xmlns="http://www.w3.org/2000/svg">
<path d="M1052.06 45.6146C1052.06 40.6441 1048.04 36.6146 1043.06 36.6146H1019.72V77.9914H1043.06C1048.04 77.9914 1052.06 73.962 1052.06 68.9914V45.6146Z" stroke="#B8B7B7" stroke-width="2" stroke-linecap="round"/>
<rect x="-1" y="1" width="7.03684" height="48.6063" rx="3" transform="matrix(-1 0 0 1 1018.53 32)" stroke="#B8B7B7" stroke-width="2" stroke-linecap="round"/>
<path d="M1010 73H989C987.343 73 986 71.6569 986 70V70C986 68.3431 987.343 67 989 67H1010" stroke="#F17321" stroke-width="2" stroke-linecap="round"/>
<path d="M1010 48H989C987.343 48 986 46.6569 986 45V45C986 43.3431 987.343 42 989 42H1010" stroke="#F17321" stroke-width="2" stroke-linecap="round"/>
<path d="M1062.91 46.8442C1062.91 45.1874 1061.57 43.8442 1059.91 43.8442H1052.26V69.8584H1059.91C1061.57 69.8584 1062.91 68.5153 1062.91 66.8584V46.8442Z" stroke="#B8B7B7" stroke-width="2" stroke-linecap="round"/>
<path d="M1058.94 49.6218V64.5326" stroke="#B8B7B7" stroke-width="2" stroke-linecap="round"/>
<path d="M1055.78 49.6218V64.5326" stroke="#B8B7B7" stroke-width="2" stroke-linecap="round"/>
<path d="M1083.69 55.881C1083.69 54.2241 1082.35 52.881 1080.69 52.881H1063.1V60.8215H1080.69C1082.35 60.8215 1083.69 59.4784 1083.69 57.8215V55.881Z" stroke="#B8B7B7" stroke-width="2" stroke-linecap="round"/>
<rect x="1" y="-1" width="13.3626" height="5.22947" transform="matrix(1 0 0 -1 1018.72 58.9177)" stroke="#B8B7B7" stroke-width="2" stroke-linecap="round"/>
<path d="M1091 57L1921 57.0001" stroke="#B8B7B7" stroke-width="2" stroke-linecap="round" stroke-dasharray="5 5"/>
<path d="M868.982 46.6146C868.982 41.6441 873.012 37.6146 877.982 37.6146H901.322V78.9914H877.982C873.012 78.9914 868.982 74.962 868.982 69.9914V46.6146Z" stroke="#B8B7B7" stroke-width="2" stroke-linecap="round"/>
<rect x="901.516" y="34" width="7.03684" height="48.6063" rx="3" stroke="#F17321" stroke-width="2" stroke-linecap="round"/>
<path d="M855 48C855 46.3431 856.343 45 858 45H869V71H858C856.343 71 855 69.6569 855 68V48Z" stroke="#B8B7B7" stroke-width="2" stroke-linecap="round"/>
<path d="M860 50V66" stroke="#B8B7B7" stroke-width="2" stroke-linecap="round"/>
<path d="M865 50V66" stroke="#B8B7B7" stroke-width="2" stroke-linecap="round"/>
<path d="M837 57C837 55.3431 838.343 54 840 54H855V62H840C838.343 62 837 60.6569 837 59V57Z" stroke="#B8B7B7" stroke-width="2" stroke-linecap="round"/>
<path d="M831 58L1.00001 58" stroke="#B8B7B7" stroke-width="2" stroke-linecap="round" stroke-dasharray="5 5"/>
<path d="M955 94.435V113.435" stroke="#B8B7B7" stroke-width="2" stroke-linecap="round"/>
<path d="M941.435 90L928 103.435" stroke="#B8B7B7" stroke-width="2" stroke-linecap="round"/>
<path d="M969 90L982.436 103.435" stroke="#B8B7B7" stroke-width="2" stroke-linecap="round"/>
<path d="M955 20V1" stroke="#B8B7B7" stroke-width="2" stroke-linecap="round"/>
<path d="M941.435 24.435L928 11" stroke="#B8B7B7" stroke-width="2" stroke-linecap="round"/>
<path d="M969.001 24.435L982.436 11" stroke="#B8B7B7" stroke-width="2" stroke-linecap="round"/>
</svg>
