<svg width="125" height="35" viewBox="0 0 125 35" fill="none" xmlns="http://www.w3.org/2000/svg">
<g clip-path="url(#clip0)">
<path d="M46.6555 33.053H43.6409V27.2655H44.3123V32.442H46.6353L46.6555 33.053Z" fill="#6D6E71"/>
<path d="M48.6361 27.8698C48.5802 27.8709 48.5246 27.8608 48.4727 27.8401C48.4208 27.8193 48.3736 27.7883 48.334 27.7489C48.2922 27.7093 48.2592 27.6613 48.2373 27.6081C48.2153 27.5549 48.2048 27.4976 48.2064 27.4401C48.2055 27.3834 48.216 27.3271 48.2373 27.2746C48.2585 27.222 48.2902 27.1743 48.3302 27.1342C48.3703 27.0941 48.4181 27.0625 48.4706 27.0412C48.5231 27.02 48.5794 27.0095 48.6361 27.0104C48.693 27.009 48.7496 27.0191 48.8027 27.0398C48.8557 27.0605 48.904 27.0916 48.9449 27.1312C48.9853 27.1712 49.0174 27.2188 49.0393 27.2712C49.0612 27.3236 49.0725 27.3799 49.0725 27.4367C49.0725 27.4935 49.0612 27.5498 49.0393 27.6022C49.0174 27.6547 48.9853 27.7022 48.9449 27.7422C48.9048 27.7833 48.8568 27.8158 48.8037 27.8378C48.7506 27.8597 48.6935 27.8706 48.6361 27.8698ZM48.9584 33.053H48.287V28.9171H48.9584V33.053Z" fill="#6D6E71"/>
<path d="M54.672 32.724C54.672 34.2413 53.9446 35 52.4899 35C52.0258 35.0116 51.5655 34.9127 51.1471 34.7113V34.0399C51.5538 34.2831 52.0163 34.4172 52.4899 34.4293C53.506 34.4293 54.014 33.8877 54.014 32.8045V32.3614C53.8783 32.5862 53.6916 32.776 53.469 32.9152C53.2463 33.0544 52.994 33.1392 52.7325 33.1628C52.4709 33.1863 52.2075 33.1479 51.9636 33.0507C51.7196 32.9534 51.502 32.8001 51.3284 32.6031C50.9979 32.184 50.8309 31.6591 50.8584 31.126C50.8246 30.5248 51.0028 29.9308 51.362 29.4475C51.5287 29.242 51.7413 29.0785 51.9826 28.97C52.224 28.8616 52.4874 28.8113 52.7518 28.8231C53.0007 28.8087 53.2488 28.8638 53.4682 28.9824C53.6876 29.101 53.8696 29.2783 53.9939 29.4945V28.9238H54.6653L54.672 32.724ZM54.0006 31.1864V30.5755C54.0033 30.4193 53.9751 30.2641 53.9174 30.1189C53.8598 29.9737 53.774 29.8413 53.6649 29.7295C53.5589 29.6154 53.4299 29.5253 53.2863 29.4651C53.1427 29.4049 52.988 29.376 52.8323 29.3804C52.6485 29.3719 52.4653 29.4077 52.2982 29.4848C52.1312 29.562 51.9851 29.6781 51.8722 29.8235C51.6214 30.1899 51.4987 30.6289 51.5231 31.0723C51.5046 31.4671 51.6232 31.8561 51.8588 32.1734C51.9623 32.3071 52.0959 32.4145 52.2488 32.4868C52.4016 32.5592 52.5693 32.5944 52.7384 32.5897C52.91 32.6021 53.0824 32.576 53.2427 32.5133C53.403 32.4506 53.5472 32.3528 53.6649 32.2271C53.9106 31.938 54.0356 31.5653 54.014 31.1864H54.0006Z" fill="#6D6E71"/>
<path d="M60.2916 33.053H59.6202V30.6695C59.6202 29.8101 59.3001 29.3804 58.6601 29.3804C58.5053 29.3792 58.3522 29.4122 58.2117 29.4772C58.0712 29.5423 57.9469 29.6376 57.8477 29.7564C57.6209 30.0235 57.5034 30.3664 57.5187 30.7165V33.0597H56.8473V26.9298H57.5187V29.6154C57.6497 29.3745 57.844 29.174 58.0806 29.0355C58.3173 28.8971 58.5873 28.826 58.8615 28.8299C59.7925 28.8299 60.258 29.3916 60.258 30.5151L60.2916 33.053Z" fill="#6D6E71"/>
<path d="M64.2998 33.0127C64.1079 33.1062 63.8955 33.1501 63.6821 33.1402C62.957 33.1402 62.5945 32.7374 62.5945 31.9317V29.4811H61.8828V28.9171H62.5945V27.91L63.2659 27.6952V28.9171H64.3065V29.4811H63.2592V31.8109C63.2415 32.0178 63.2909 32.225 63.4002 32.4017C63.4597 32.4651 63.5332 32.5138 63.6147 32.5441C63.6962 32.5744 63.7836 32.5854 63.8701 32.5763C64.0246 32.5823 64.1763 32.5349 64.2998 32.442V33.0127Z" fill="#6D6E71"/>
<path d="M66.3677 27.8698C66.3119 27.8706 66.2564 27.8603 66.2046 27.8395C66.1527 27.8188 66.1055 27.788 66.0656 27.7489C66.0238 27.7093 65.9909 27.6613 65.9689 27.6081C65.9469 27.5549 65.9364 27.4976 65.938 27.4401C65.9371 27.3834 65.9476 27.3271 65.9689 27.2746C65.9902 27.222 66.0218 27.1743 66.0619 27.1342C66.1019 27.0941 66.1497 27.0625 66.2022 27.0412C66.2548 27.02 66.3111 27.0095 66.3677 27.0104C66.4246 27.009 66.4813 27.0191 66.5343 27.0398C66.5873 27.0605 66.6357 27.0916 66.6766 27.1312C66.717 27.1712 66.749 27.2188 66.7709 27.2712C66.7928 27.3236 66.8041 27.3799 66.8041 27.4367C66.8041 27.4935 66.7928 27.5498 66.7709 27.6022C66.749 27.6547 66.717 27.7022 66.6766 27.7422C66.6365 27.7833 66.5884 27.8158 66.5353 27.8378C66.4822 27.8597 66.4252 27.8706 66.3677 27.8698ZM66.69 33.053H66.0186V28.9171H66.69V33.053Z" fill="#6D6E71"/>
<path d="M72.3029 33.053H71.6315V30.6964C71.6315 29.8012 71.3115 29.3536 70.6714 29.3536C70.5154 29.3508 70.3608 29.3832 70.219 29.4483C70.0772 29.5134 69.9519 29.6095 69.8523 29.7295C69.6321 29.9921 69.5173 30.3271 69.53 30.6695V33.0261H68.8586V28.9171H69.53V29.5885C69.6598 29.3467 69.8539 29.1453 70.0908 29.0067C70.3277 28.8681 70.5984 28.7976 70.8728 28.803C71.0682 28.79 71.264 28.8227 71.4446 28.8984C71.6252 28.9742 71.7858 29.0909 71.9135 29.2394C72.1778 29.6075 72.306 30.0561 72.276 30.5084L72.3029 33.053Z" fill="#6D6E71"/>
<path d="M77.9225 32.724C77.9225 34.2413 77.1952 35 75.7405 35C75.2763 35.0116 74.816 34.9127 74.3977 34.7113V34.0399C74.8043 34.2831 75.2668 34.4172 75.7405 34.4293C76.7565 34.4293 77.2645 33.8877 77.2645 32.8045V32.3614C77.1289 32.5862 76.9422 32.776 76.7195 32.9152C76.4969 33.0544 76.2445 33.1392 75.983 33.1628C75.7215 33.1863 75.458 33.1479 75.2141 33.0507C74.9702 32.9534 74.7526 32.8001 74.579 32.6031C74.2485 32.184 74.0815 31.6591 74.109 31.126C74.0751 30.5248 74.2533 29.9308 74.6125 29.4475C74.7792 29.242 74.9918 29.0785 75.2332 28.97C75.4745 28.8616 75.738 28.8113 76.0023 28.8231C76.2513 28.8087 76.4993 28.8638 76.7187 28.9824C76.9381 29.101 77.1201 29.2783 77.2444 29.4945V28.9238H77.9158L77.9225 32.724ZM77.2511 31.1864V30.5755C77.2539 30.4193 77.2256 30.2641 77.168 30.1189C77.1104 29.9737 77.0245 29.8413 76.9154 29.7295C76.8092 29.6158 76.6801 29.5259 76.5366 29.4657C76.3931 29.4055 76.2384 29.3764 76.0829 29.3804C75.8991 29.3719 75.7159 29.4077 75.5488 29.4848C75.3817 29.562 75.2356 29.6781 75.1228 29.8235C74.8719 30.1899 74.7492 30.6289 74.7737 31.0723C74.7551 31.4671 74.8737 31.8561 75.1094 32.1734C75.2129 32.3071 75.3465 32.4145 75.4993 32.4868C75.6521 32.5592 75.8199 32.5944 75.9889 32.5897C76.1599 32.5954 76.3301 32.5628 76.4869 32.4942C76.6438 32.4257 76.7833 32.323 76.8953 32.1935C77.1384 31.9153 77.2678 31.5558 77.2578 31.1864H77.2511Z" fill="#6D6E71"/>
<path d="M88.3762 33.1469C88.2394 33.1498 88.1032 33.1294 87.9733 33.0865C87.8574 33.0455 87.7487 32.9866 87.6511 32.9119C87.545 32.8286 87.4482 32.734 87.3624 32.6299C87.2684 32.518 87.1699 32.3927 87.0669 32.2539C86.9514 32.3764 86.8256 32.4887 86.691 32.5896C86.5443 32.7013 86.3869 32.798 86.221 32.8783C85.8378 33.0627 85.4175 33.1568 84.9923 33.1536C84.7222 33.157 84.453 33.1208 84.1934 33.0462C83.9658 32.9815 83.7535 32.8719 83.569 32.7239C83.3962 32.5827 83.2583 32.4035 83.1661 32.2002C83.068 31.9761 83.0199 31.7332 83.0251 31.4886C83.0147 31.1072 83.1382 30.7342 83.3742 30.4345C83.6416 30.1172 83.9828 29.8705 84.3679 29.7161C84.2825 29.6526 84.2017 29.583 84.1262 29.5079C84.0444 29.427 83.9723 29.3369 83.9114 29.2394C83.8459 29.1344 83.794 29.0216 83.7569 28.9037C83.6619 28.585 83.6809 28.2431 83.8107 27.9369C83.8839 27.7765 83.9916 27.6344 84.1262 27.5206C84.2662 27.4041 84.4284 27.3173 84.6029 27.2655C84.7942 27.2063 84.9935 27.1768 85.1937 27.1782C85.3897 27.1758 85.5847 27.2052 85.7711 27.2655C85.9357 27.3185 86.0884 27.4029 86.221 27.5139C86.3464 27.6208 86.4472 27.7537 86.5164 27.9033C86.6139 28.1214 86.6493 28.3623 86.6185 28.5993C86.5877 28.8363 86.4919 29.0601 86.3418 29.2461C86.1108 29.4902 85.8256 29.6765 85.5093 29.7899C85.6872 29.8592 85.8562 29.9493 86.0128 30.0585C86.1619 30.162 86.3012 30.2789 86.4291 30.4076C86.5572 30.538 86.6761 30.677 86.785 30.8239C86.8969 30.9716 87.0065 31.126 87.1139 31.2871C87.3326 30.9812 87.4982 30.6408 87.6041 30.28C87.716 29.9076 87.7725 29.5208 87.7719 29.1319C87.7782 29.0358 87.7782 28.9394 87.7719 28.8432C87.7587 28.7529 87.7408 28.6632 87.7182 28.5747H88.3896C88.4112 28.6582 88.4247 28.7437 88.4299 28.8298V29.1118C88.4305 29.3599 88.4057 29.6073 88.356 29.8503C88.2569 30.3336 88.0873 30.7996 87.8525 31.2334C87.7441 31.4334 87.623 31.6263 87.4899 31.8108L87.7451 32.1465C87.8151 32.2348 87.8938 32.3157 87.98 32.3882C88.0544 32.4488 88.1384 32.4964 88.2285 32.5292C88.3212 32.5617 88.4189 32.5776 88.5172 32.5762C88.5996 32.5868 88.6831 32.5868 88.7656 32.5762L89.0274 32.4956V33.1066C88.9298 33.1454 88.8286 33.1746 88.7253 33.1939C88.6077 33.1897 88.4907 33.174 88.3762 33.1469ZM85.0192 32.5762C85.2092 32.5776 85.3987 32.5551 85.5832 32.5091C85.748 32.4686 85.9078 32.41 86.0598 32.3345C86.2009 32.2644 86.3338 32.1788 86.456 32.0794C86.5708 31.9844 86.6785 31.8812 86.7782 31.7705C86.6126 31.5154 86.4605 31.2916 86.3217 31.0991C86.1941 30.9309 86.0526 30.7737 85.8987 30.6292C85.7614 30.5013 85.6106 30.3887 85.4489 30.2935C85.2706 30.1911 85.0842 30.1035 84.8916 30.0316C84.7298 30.0941 84.5728 30.1681 84.4216 30.2532C84.2847 30.3302 84.1602 30.4276 84.0524 30.5419C83.9485 30.6557 83.8665 30.7877 83.8107 30.9313C83.7483 31.0987 83.7187 31.2764 83.7234 31.455C83.7201 31.6216 83.7546 31.7869 83.8241 31.9384C83.8879 32.0743 83.9821 32.1938 84.0994 32.2875C84.2214 32.3823 84.3604 32.4529 84.5089 32.4956C84.6658 32.5428 84.8285 32.5677 84.9923 32.5695L85.0192 32.5762ZM86.0263 28.4538C86.03 28.3354 86.0047 28.2178 85.9524 28.1114C85.9071 28.0233 85.8445 27.9452 85.7684 27.8817C85.6923 27.8183 85.6042 27.7708 85.5093 27.7422C85.4178 27.715 85.3228 27.7014 85.2273 27.7019C84.9973 27.6907 84.7716 27.7675 84.5962 27.9167C84.5163 27.991 84.4533 28.0816 84.4116 28.1824C84.3699 28.2832 84.3504 28.3918 84.3545 28.5008C84.355 28.6061 84.3731 28.7105 84.4082 28.8097C84.4417 28.9056 84.4892 28.9961 84.5492 29.0782C84.6104 29.1615 84.6827 29.236 84.764 29.2998C84.8451 29.3649 84.9329 29.4212 85.0259 29.4676C85.3045 29.3821 85.5627 29.2405 85.7846 29.0514C85.8609 28.9714 85.9194 28.8763 85.9565 28.7722C85.9935 28.668 86.0081 28.5573 85.9994 28.4471L86.0263 28.4538Z" fill="#6D6E71"/>
<path d="M96.9432 33.053H93.8749V27.2655H96.8157V27.8765H94.553V29.8034H96.6478V30.4144H94.553V32.4286H96.9432V33.053Z" fill="#6D6E71"/>
<path d="M99.4744 33.053H98.803V26.9298H99.4744V33.053Z" fill="#6D6E71"/>
<path d="M104.98 31.1529H102.053C102.036 31.5426 102.168 31.924 102.422 32.2204C102.549 32.3487 102.703 32.4485 102.872 32.5133C103.041 32.5781 103.221 32.6064 103.402 32.5964C103.87 32.5957 104.324 32.4319 104.684 32.1331V32.7575C104.258 33.0403 103.752 33.1791 103.241 33.1536C102.984 33.1668 102.728 33.1231 102.49 33.0256C102.252 32.9281 102.038 32.7792 101.865 32.5897C101.505 32.1426 101.326 31.5776 101.361 31.0052C101.336 30.4314 101.531 29.8698 101.905 29.4341C102.071 29.242 102.278 29.0884 102.51 28.9841C102.742 28.8797 102.993 28.8271 103.248 28.8298C103.483 28.8165 103.718 28.8567 103.936 28.9474C104.153 29.0381 104.347 29.177 104.503 29.3535C104.821 29.7705 104.978 30.2874 104.946 30.8105L104.98 31.1529ZM104.308 30.5889C104.327 30.2679 104.229 29.951 104.033 29.6959C103.939 29.5893 103.822 29.5055 103.69 29.4509C103.559 29.3962 103.417 29.3721 103.275 29.3804C103.126 29.3783 102.979 29.4071 102.843 29.4649C102.707 29.5227 102.584 29.6082 102.482 29.7161C102.257 29.9559 102.116 30.2621 102.079 30.5889H104.308Z" fill="#6D6E71"/>
<path d="M109.639 32.865C109.297 33.0632 108.907 33.1631 108.511 33.1537C108.246 33.1644 107.981 33.1185 107.734 33.019C107.488 32.9194 107.265 32.7685 107.081 32.5763C106.71 32.1707 106.515 31.6349 106.538 31.0857C106.509 30.4841 106.719 29.8955 107.122 29.4475C107.322 29.2379 107.566 29.0742 107.836 28.9676C108.106 28.861 108.396 28.814 108.686 28.8298C109.017 28.823 109.346 28.8919 109.646 29.0313V29.7027C109.359 29.4941 109.014 29.3813 108.659 29.3804C108.463 29.3758 108.268 29.4143 108.088 29.4932C107.908 29.572 107.748 29.6894 107.618 29.8369C107.338 30.1702 107.194 30.5971 107.216 31.032C107.192 31.4496 107.329 31.8603 107.598 32.1801C107.729 32.319 107.887 32.4285 108.063 32.5014C108.239 32.5744 108.428 32.609 108.619 32.6031C108.992 32.5961 109.351 32.4636 109.639 32.2271V32.865Z" fill="#6D6E71"/>
<path d="M113.406 33.0127C113.214 33.1062 113.002 33.1501 112.788 33.1402C112.063 33.1402 111.701 32.7374 111.701 31.9317V29.4811H110.989V28.9171H111.701V27.91L112.372 27.6952V28.9171H113.413V29.4811H112.372V31.8109C112.354 32.0178 112.404 32.225 112.513 32.4017C112.573 32.4651 112.646 32.5138 112.727 32.5441C112.809 32.5744 112.896 32.5854 112.983 32.5763C113.137 32.5823 113.289 32.5349 113.413 32.442L113.406 33.0127Z" fill="#6D6E71"/>
<path d="M117.287 29.5885C117.138 29.4897 116.961 29.4425 116.783 29.4542C116.64 29.4558 116.5 29.4935 116.375 29.564C116.251 29.6344 116.146 29.7353 116.071 29.8571C115.867 30.1815 115.768 30.5617 115.789 30.9447V33.0529H115.118V28.9171H115.789V29.7698C115.867 29.5101 116.016 29.2774 116.219 29.0984C116.405 28.9369 116.644 28.8507 116.89 28.8567C117.025 28.8497 117.159 28.8679 117.287 28.9104V29.5885Z" fill="#6D6E71"/>
<path d="M119.187 27.8698C119.131 27.8709 119.075 27.8608 119.023 27.8401C118.971 27.8193 118.924 27.7883 118.885 27.7489C118.843 27.7093 118.81 27.6613 118.788 27.6081C118.766 27.5549 118.755 27.4976 118.757 27.4401C118.756 27.3834 118.767 27.3271 118.788 27.2746C118.809 27.222 118.841 27.1743 118.881 27.1342C118.921 27.0941 118.969 27.0625 119.021 27.0412C119.074 27.02 119.13 27.0095 119.187 27.0104C119.244 27.009 119.3 27.0191 119.353 27.0398C119.406 27.0605 119.455 27.0916 119.495 27.1312C119.536 27.1712 119.568 27.2188 119.59 27.2712C119.612 27.3236 119.623 27.3799 119.623 27.4367C119.623 27.4935 119.612 27.5498 119.59 27.6022C119.568 27.6547 119.536 27.7022 119.495 27.7422C119.455 27.7833 119.407 27.8158 119.354 27.8378C119.301 27.8597 119.244 27.8706 119.187 27.8698ZM119.509 33.053H118.838V28.9171H119.509V33.053Z" fill="#6D6E71"/>
<path d="M124.511 32.865C124.169 33.0632 123.778 33.1631 123.383 33.1537C123.117 33.1644 122.852 33.1185 122.606 33.019C122.359 32.9194 122.137 32.7685 121.953 32.5763C121.582 32.1707 121.386 31.6349 121.409 31.0857C121.381 30.4841 121.59 29.8955 121.993 29.4475C122.194 29.2379 122.438 29.0742 122.708 28.9676C122.978 28.861 123.268 28.814 123.557 28.8298C123.889 28.823 124.217 28.8919 124.518 29.0313V29.7027C124.231 29.4941 123.885 29.3813 123.531 29.3804C123.334 29.3758 123.139 29.4143 122.96 29.4932C122.78 29.572 122.619 29.6894 122.49 29.8369C122.21 30.1702 122.066 30.5971 122.087 31.032C122.063 31.4496 122.2 31.8603 122.47 32.1801C122.6 32.319 122.759 32.4285 122.935 32.5014C123.11 32.5744 123.3 32.609 123.49 32.6031C123.861 32.6018 124.22 32.4765 124.511 32.2473V32.865Z" fill="#6D6E71"/>
<path d="M49.2135 9.74871L44.8091 17.6108H40.4048L36.0004 9.74871V22.0084H30.3405V0H36.3159L42.6069 11.6353L48.8979 0H54.8734V22.0084H49.2135V9.74871ZM59.9022 0H73.1086C75.3108 0 76.9087 0.496835 77.9024 1.4905C78.896 2.48417 79.3951 4.0821 79.3996 6.28429V9.42643C79.3996 11.6286 78.9005 13.2266 77.9024 14.2202C76.9042 15.2139 75.3063 15.7107 73.1086 15.7107H65.5621V22.0017H59.9022V0ZM73.7397 6.291C73.7774 6.03334 73.7541 5.77043 73.6717 5.5234C73.5893 5.27638 73.4501 5.05212 73.2653 4.86864C73.0805 4.68516 72.8553 4.54758 72.6077 4.46695C72.3601 4.38632 72.097 4.36489 71.8396 4.40437H65.5621V11.3198H71.8396C72.096 11.3569 72.3575 11.3337 72.6034 11.2521C72.8492 11.1704 73.0726 11.0325 73.2558 10.8493C73.439 10.6661 73.5769 10.4427 73.6585 10.1969C73.7402 9.95104 73.7634 9.68953 73.7263 9.43315L73.7397 6.291ZM100.938 22.0152H83.4817V0H100.938V4.40437H89.1483V8.64761H98.427V13.052H89.1483V17.6108H100.938V22.0152ZM104.738 0H117.945C120.147 0 121.745 0.496835 122.738 1.4905C123.732 2.48417 124.222 4.08434 124.209 6.291V9.1243C124.28 10.5199 123.981 11.9096 123.343 13.1527C123.039 13.6436 122.638 14.0673 122.165 14.3975C121.691 14.7277 121.155 14.9576 120.59 15.0729L124.518 21.9883H118.388L114.769 15.3817H110.364V21.9883H104.738V0ZM118.576 6.291C118.613 6.03463 118.59 5.77312 118.508 5.52727C118.426 5.28143 118.288 5.05803 118.105 4.87485C117.922 4.69167 117.699 4.55376 117.453 4.47209C117.207 4.39041 116.945 4.36723 116.689 4.40437H110.398V11.0109H116.689C116.945 11.0481 117.207 11.0249 117.453 10.9432C117.699 10.8615 117.922 10.7236 118.105 10.5405C118.288 10.3573 118.426 10.1339 118.508 9.88804C118.59 9.64219 118.613 9.38068 118.576 9.1243V6.291ZM18.8663 0H12.5417L7.60694 13.0453H13.569L15.704 7.38538L19.2221 16.6843H6.22386L0 33.1201L10.1717 22.0152H27.1983L18.8663 0Z" fill="url(#paint0_linear)"/>
</g>
<defs>
<linearGradient id="paint0_linear" x1="63.3599" y1="29.5214" x2="59.0294" y2="-5.70689" gradientUnits="userSpaceOnUse">
<stop stop-color="#F37021"/>
<stop offset="0.14" stop-color="#F47620"/>
<stop offset="0.32" stop-color="#F6861F"/>
<stop offset="0.5" stop-color="#F99D1C"/>
<stop offset="0.68" stop-color="#F6861F"/>
<stop offset="0.86" stop-color="#F47620"/>
<stop offset="1" stop-color="#F37021"/>
</linearGradient>
<clipPath id="clip0">
<rect width="124.518" height="35" fill="white"/>
</clipPath>
</defs>
</svg>
