<svg width="40" height="54" viewBox="0 0 40 54" fill="none" xmlns="http://www.w3.org/2000/svg">
<rect x="8" y="6" width="26" height="29" fill="white"/>
<path fill-rule="evenodd" clip-rule="evenodd" d="M27.6742 1.44309C30.1026 2.3958 32.308 3.79208 34.164 5.55182L34.1418 5.57278C37.5661 9.16482 39.6119 13.7409 39.9501 18.5646C40.2883 23.3884 38.8992 28.1794 36.0064 32.1669L20.002 54L3.97541 32.1249C1.09104 28.1371 -0.291034 23.3491 0.0511496 18.5298C0.393334 13.7106 2.43992 9.13985 5.86221 5.55182C7.71821 3.79208 9.92363 2.3958 12.352 1.44309C14.7803 0.490388 17.3837 0 20.0131 0C22.6425 0 25.2459 0.490388 27.6742 1.44309ZM18.2039 9.41089H23.0429L29.4137 24.8053H16.3837L8.61458 32.5444L13.3649 21.072H23.3094L20.6234 14.5913L18.9808 18.5343H14.4304L18.2039 9.41089Z" fill="url(#paint0_linear)"/>
<defs>
<linearGradient id="paint0_linear" x1="20" y1="0" x2="20" y2="54" gradientUnits="userSpaceOnUse">
<stop stop-color="#F5871F"/>
<stop offset="1" stop-color="#F06D22"/>
</linearGradient>
</defs>
</svg>
