<svg width="87" height="24" viewBox="0 0 87 24" fill="none" xmlns="http://www.w3.org/2000/svg">
<path d="M39.4909 4.15761C38.5616 5.85938 37.7291 7.45786 36.9934 8.95305C36.2578 10.4384 35.6092 11.909 35.0478 13.3649C34.4863 14.8109 34.0072 16.2864 33.6103 17.7914C33.2134 19.2866 32.8891 20.8998 32.6375 22.6311H27.8459C28.1169 20.9884 28.4751 19.4047 28.9204 17.8799C29.3657 16.3552 29.8787 14.8797 30.4595 13.4534C31.05 12.0172 31.6985 10.6204 32.4052 9.26291C33.1215 7.90543 33.8765 6.57747 34.6703 5.27901H25V1.47217H39.4909V4.15761Z" fill="#433B3B"/>
<path d="M49.1466 23C44.1905 23 41.7124 19.4637 41.7124 12.391C41.7124 8.72189 42.3803 5.92824 43.7162 4.01006C45.0617 2.08205 47.0073 1.11804 49.5532 1.11804C54.3931 1.11804 56.8131 4.71339 56.8131 11.9041C56.8131 15.4847 56.15 18.2292 54.8239 20.1375C53.5074 22.0458 51.615 23 49.1466 23ZM49.3499 4.67404C47.3655 4.67404 46.3733 7.20702 46.3733 12.273C46.3733 17.0438 47.3461 19.4292 49.2918 19.4292C51.1891 19.4292 52.1377 16.97 52.1377 12.0516C52.1377 7.13324 51.2084 4.67404 49.3499 4.67404Z" fill="#433B3B"/>
<path d="M69.8955 1V22.6311H65.3218V6.25285C65.0701 6.4791 64.77 6.69551 64.4215 6.90208C64.0827 7.09882 63.7197 7.2808 63.3326 7.44802C62.9454 7.60541 62.5436 7.74313 62.1274 7.86117C61.7112 7.96937 61.2998 8.04807 60.8932 8.09725V4.17237C62.0838 3.81824 63.2067 3.36575 64.2618 2.81489C65.3169 2.26403 66.2704 1.65907 67.1222 1H69.8955Z" fill="#433B3B"/>
<path d="M87 1V22.6311H82.4262V6.25285C82.1745 6.4791 81.8745 6.69551 81.526 6.90208C81.1872 7.09882 80.8242 7.2808 80.437 7.44802C80.0498 7.60541 79.6481 7.74313 79.2318 7.86117C78.8156 7.96937 78.4042 8.04807 77.9977 8.09725V4.17237C79.1883 3.81824 80.3112 3.36575 81.3663 2.81489C82.4214 2.26403 83.3749 1.65907 84.2267 1H87Z" fill="#433B3B"/>
<path fill-rule="evenodd" clip-rule="evenodd" d="M1.7991 0H12.2009C13.1946 0 14 0.783616 14 1.74827V22.2535C14 23.2173 13.1946 24 12.2009 24H1.7991C0.803603 24 0 23.2173 0 22.2535V1.74827C0 0.783616 0.803603 0 1.7991 0ZM2 16H12V4H2V16ZM7 21.6C7.9665 21.6 8.75 20.7941 8.75 19.8C8.75 18.8059 7.9665 18 7 18C6.0335 18 5.25 18.8059 5.25 19.8C5.25 20.7941 6.0335 21.6 7 21.6Z" fill="#DCDBDB"/>
</svg>
